M48
; DRILL file {KiCad 7.0.5} date Wed Aug 14 01:08:42 2024
; FORMAT={-:-/ absolute / metric / decimal}
; #@! TF.CreationDate,2024-08-14T01:08:42+02:00
; #@! TF.GenerationSoftware,Kicad,Pcbnew,7.0.5
; #@! TF.FileFunction,Plated,1,2,PTH
FMAT,2
METRIC
; #@! TA.AperFunction,Plated,PTH,ComponentDrill
T1C0.800
; #@! TA.AperFunction,Plated,PTH,ComponentDrill
T2C0.900
; #@! TA.AperFunction,Plated,PTH,ComponentDrill
T3C1.000
; #@! TA.AperFunction,Plated,PTH,ComponentDrill
T4C1.040
; #@! TA.AperFunction,Plated,PTH,ComponentDrill
T5C1.400
; #@! TA.AperFunction,Plated,PTH,ViaDrill
T6C3.200
%
G90
G05
T1
X78.755Y-89.289
X78.755Y-114.689
X91.455Y-89.289
X91.455Y-114.689
X98.049Y-109.609
X101.899Y-81.669
X106.899Y-81.669
X110.749Y-109.609
X123.196Y-113.424
X123.21Y-81.669
X123.21Y-89.607
X123.21Y-97.546
X123.21Y-105.485
X135.896Y-113.424
X135.91Y-81.669
X135.91Y-89.607
X135.91Y-97.546
X135.91Y-105.485
X148.361Y-109.609
X152.211Y-81.669
X157.211Y-81.669
X161.061Y-109.609
X167.655Y-89.289
X167.655Y-114.689
X180.355Y-89.289
X180.355Y-114.689
T2
X103.124Y-101.989
X105.664Y-101.989
X128.271Y-117.229
X128.285Y-86.749
X128.285Y-94.369
X128.285Y-101.989
X128.285Y-109.609
X130.811Y-117.229
X130.825Y-86.749
X130.825Y-94.369
X130.825Y-101.989
X130.825Y-109.609
X153.436Y-101.989
X155.976Y-101.989
T3
X125.635Y-56.269
X125.755Y-127.389
X128.175Y-56.269
X130.715Y-56.269
X133.255Y-56.269
X133.355Y-127.389
T4
X116.568Y-86.749
X116.568Y-89.289
X116.568Y-91.829
X116.568Y-94.369
X116.568Y-96.909
X116.568Y-99.449
X116.568Y-101.989
X116.568Y-104.529
X116.568Y-107.069
X116.568Y-109.609
X116.568Y-112.149
X116.568Y-114.689
X116.568Y-117.229
X116.568Y-119.769
X116.568Y-122.309
X116.568Y-124.849
X116.568Y-127.389
X116.568Y-129.929
X116.568Y-132.469
X141.968Y-86.749
X141.968Y-89.289
X141.968Y-91.829
X141.968Y-94.369
X141.968Y-96.909
X141.968Y-99.449
X141.968Y-101.989
X141.968Y-104.529
X141.968Y-107.069
X141.968Y-109.609
X141.968Y-112.149
X141.968Y-114.689
X141.968Y-117.229
X141.968Y-119.769
X141.968Y-122.309
X141.968Y-124.849
X141.968Y-127.389
X141.968Y-129.929
X141.968Y-132.469
T5
X79.405Y-99.489
X79.405Y-104.489
X91.905Y-99.489
X91.905Y-104.489
X168.305Y-99.489
X168.305Y-104.489
X180.805Y-99.489
X180.805Y-104.489
T6
X75.0Y-70.0
X75.0Y-123.0
X110.0Y-57.0
X150.0Y-57.0
X185.0Y-70.0
X185.0Y-123.0
T0
M30
