%TF.GenerationSoftware,KiCad,Pcbnew,7.0.5*%
%TF.CreationDate,2024-08-14T01:08:48+02:00*%
%TF.ProjectId,game,67616d65-2e6b-4696-9361-645f70636258,rev?*%
%TF.SameCoordinates,Original*%
%TF.FileFunction,Drillmap*%
%TF.FilePolarity,Positive*%
%FSLAX45Y45*%
G04 Gerber Fmt 4.5, Leading zero omitted, Abs format (unit mm)*
G04 Created by KiCad (PCBNEW 7.0.5) date 2024-08-14 01:08:48*
%MOMM*%
%LPD*%
G01*
G04 APERTURE LIST*
%ADD10C,0.000000*%
%ADD11C,0.200000*%
G04 APERTURE END LIST*
D10*
X7114176Y-12618046D02*
X7129891Y-12636188D01*
X15090363Y-5098116D02*
X15070294Y-5084010D01*
X7010159Y-12400769D02*
X7015742Y-12424959D01*
X10599343Y-12999506D02*
X10565163Y-12975008D01*
X15125120Y-13315415D02*
X15105196Y-13353280D01*
X7129891Y-12636188D02*
X7146446Y-12653553D01*
X14995256Y-13684027D02*
X15002796Y-13663663D01*
X6999992Y-6999945D02*
X6999992Y-12300078D01*
X15002796Y-13663663D02*
X15009482Y-13642858D01*
X10216991Y-12823720D02*
X10174635Y-12815281D01*
X18997554Y-12349419D02*
X18999386Y-12324794D01*
X18671918Y-6530341D02*
X18648686Y-6522480D01*
X7015742Y-6875042D02*
X7010159Y-6899232D01*
X7000001Y-12300002D02*
X7000652Y-12325732D01*
X7283230Y-6549307D02*
X7261671Y-6560348D01*
X7015742Y-12424959D02*
X7022480Y-12448686D01*
X10418670Y-12891771D02*
X10379833Y-12874838D01*
X10979797Y-13600002D02*
X10969973Y-13556743D01*
X7328083Y-12769660D02*
X7351315Y-12777521D01*
X7039293Y-12494623D02*
X7049306Y-12516771D01*
X7000652Y-12325732D02*
X7002583Y-12351124D01*
X10780400Y-13174619D02*
X10753312Y-13142271D01*
X7022480Y-12448686D02*
X7030340Y-12471917D01*
X7351315Y-12777521D02*
X7375042Y-12784259D01*
X7002583Y-12351124D02*
X7005762Y-12376147D01*
X7005762Y-12376147D02*
X7010159Y-12400769D01*
X7030340Y-12471917D02*
X7039293Y-12494623D01*
X7049306Y-12516771D02*
X7060348Y-12538330D01*
X10913160Y-13392139D02*
X10894805Y-13353282D01*
X14792894Y-4999960D02*
X11207107Y-4999960D01*
X7060348Y-12538330D02*
X7072387Y-12559268D01*
X10695294Y-13081259D02*
X10664454Y-13052669D01*
X15620168Y-12874836D02*
X15581330Y-12891770D01*
X7072387Y-12559268D02*
X7085392Y-12579555D01*
X10529960Y-12951948D02*
X10493779Y-12930364D01*
X7085392Y-12579555D02*
X7099332Y-12599158D01*
X7099332Y-12599158D02*
X7114176Y-12618046D01*
X15506221Y-12930362D02*
X15434838Y-12975006D01*
X7146448Y-6646447D02*
X7129892Y-6663812D01*
X7146446Y-12653553D02*
X7163811Y-12670109D01*
X7163811Y-12670109D02*
X7181953Y-12685824D01*
X10664454Y-13052669D02*
X10632456Y-13025405D01*
X10874881Y-13315417D02*
X10853433Y-13278580D01*
X14720223Y-13962583D02*
X14739642Y-13954117D01*
X7181953Y-12685824D02*
X7200842Y-12700667D01*
X10131713Y-12808652D02*
X10088269Y-12803872D01*
X7200842Y-12700667D02*
X7220445Y-12714608D01*
X7220445Y-12714608D02*
X7240731Y-12727613D01*
X15086841Y-13392138D02*
X15070101Y-13431950D01*
X10258734Y-12833932D02*
X10216991Y-12823720D01*
X7423854Y-12794239D02*
X7448877Y-12797419D01*
X7030341Y-6828083D02*
X7022480Y-6851315D01*
X7240731Y-12727613D02*
X7261670Y-12739652D01*
X18950695Y-6783229D02*
X18939653Y-6761670D01*
X7500001Y-12800009D02*
X9999995Y-12800009D01*
X11133272Y-5005483D02*
X11109106Y-5009700D01*
X7261670Y-12739652D02*
X7283229Y-12750694D01*
X7283229Y-12750694D02*
X7305377Y-12760707D01*
X7305377Y-12760707D02*
X7328083Y-12769660D01*
X15434838Y-12975006D02*
X15367545Y-13025404D01*
X10944979Y-13472681D02*
X10929900Y-13431951D01*
X7375042Y-12784259D02*
X7399232Y-12789842D01*
X10632456Y-13025405D02*
X10599343Y-12999506D01*
X7399232Y-12789842D02*
X7423854Y-12794239D01*
X7448877Y-12797419D02*
X7474269Y-12799350D01*
X7474269Y-12799350D02*
X7499999Y-12800001D01*
X11054442Y-13778597D02*
X11066622Y-13795930D01*
X10724928Y-13111139D02*
X10695294Y-13081259D01*
X10969973Y-13556743D02*
X10958352Y-13514290D01*
X11207107Y-5000002D02*
X11182313Y-5000617D01*
X10958352Y-13514290D02*
X10944979Y-13472681D01*
X10379833Y-12874838D02*
X10340200Y-12859528D01*
X10929900Y-13431951D02*
X10913160Y-13392139D01*
X10894805Y-13353282D02*
X10874881Y-13315417D01*
X11425560Y-13998065D02*
X11447520Y-13999513D01*
X10299819Y-12845881D02*
X10258734Y-12833932D01*
X10853433Y-13278580D02*
X10830506Y-13242811D01*
X10830506Y-13242811D02*
X10806147Y-13208144D01*
X10997206Y-13663662D02*
X11004745Y-13684027D01*
X10806147Y-13208144D02*
X10780400Y-13174619D01*
X14680216Y-13977062D02*
X14700407Y-13970238D01*
X10753312Y-13142271D02*
X10724928Y-13111139D01*
X11170023Y-13900249D02*
X11187114Y-13912498D01*
X16207094Y-6206989D02*
X15146445Y-5146541D01*
X10565163Y-12975008D02*
X10529960Y-12951948D01*
X10493779Y-12930364D02*
X10456668Y-12910293D01*
X11222805Y-13934819D02*
X11241361Y-13944855D01*
X10456668Y-12910293D02*
X10418670Y-12891771D01*
X10340200Y-12859528D02*
X10299819Y-12845881D01*
X10174635Y-12815281D02*
X10131713Y-12808652D01*
X10088269Y-12803872D02*
X10044350Y-12800976D01*
X10044350Y-12800976D02*
X10000001Y-12800002D01*
X7163812Y-6629892D02*
X7146448Y-6646447D01*
X10979797Y-13600002D02*
X10984709Y-13621631D01*
X10984709Y-13621631D02*
X10990519Y-13642857D01*
X10990519Y-13642857D02*
X10997206Y-13663662D01*
X11004745Y-13684027D02*
X11013115Y-13703933D01*
X11013115Y-13703933D02*
X11022292Y-13723361D01*
X11022292Y-13723361D02*
X11032255Y-13742294D01*
X11032255Y-13742294D02*
X11042979Y-13760712D01*
X11042979Y-13760712D02*
X11054442Y-13778597D01*
X11066622Y-13795930D02*
X11079495Y-13812692D01*
X11079495Y-13812692D02*
X11093039Y-13828866D01*
X11093039Y-13828866D02*
X11107231Y-13844432D01*
X11107231Y-13844432D02*
X11122048Y-13859372D01*
X11122048Y-13859372D02*
X11137468Y-13873667D01*
X11137468Y-13873667D02*
X11153467Y-13887299D01*
X18668587Y-12770723D02*
X18691342Y-12761941D01*
X11153467Y-13887299D02*
X11170023Y-13900249D01*
X16577041Y-6441448D02*
X16623379Y-6456780D01*
X11187114Y-13912498D02*
X11204715Y-13924027D01*
X11204715Y-13924027D02*
X11222805Y-13934819D01*
X11241361Y-13944855D02*
X11260360Y-13954116D01*
X11260360Y-13954116D02*
X11279779Y-13962582D01*
X11279779Y-13962582D02*
X11299595Y-13970237D01*
X11299595Y-13970237D02*
X11319786Y-13977061D01*
X11319786Y-13977061D02*
X11340328Y-13983035D01*
X11340328Y-13983035D02*
X11361200Y-13988141D01*
X11361200Y-13988141D02*
X11382377Y-13992361D01*
X11382377Y-13992361D02*
X11403838Y-13995675D01*
X11403838Y-13995675D02*
X11425560Y-13998065D01*
X11447520Y-13999513D02*
X11469694Y-14000000D01*
X14530305Y-14000000D02*
X11469696Y-14000000D01*
X14530307Y-14000000D02*
X14552481Y-13999513D01*
X14552481Y-13999513D02*
X14574441Y-13998066D01*
X14574441Y-13998066D02*
X14596163Y-13995676D01*
X14596163Y-13995676D02*
X14617624Y-13992361D01*
X14617624Y-13992361D02*
X14638802Y-13988142D01*
X14967747Y-13742295D02*
X14977709Y-13723362D01*
X14638802Y-13988142D02*
X14659673Y-13983036D01*
X14659673Y-13983036D02*
X14680216Y-13977062D01*
X14700407Y-13970238D02*
X14720223Y-13962583D01*
X14739642Y-13954117D02*
X14758640Y-13944856D01*
X14758640Y-13944856D02*
X14777196Y-13934821D01*
X14777196Y-13934821D02*
X14812888Y-13912499D01*
X18939653Y-6761670D02*
X18927614Y-6740732D01*
X14812888Y-13912499D02*
X14846534Y-13887300D01*
X18853554Y-6646447D02*
X18836190Y-6629892D01*
X14938311Y-5021618D02*
X14914769Y-5015085D01*
X9756961Y-6241307D02*
X9792893Y-6207112D01*
X14846534Y-13887300D02*
X14877953Y-13859373D01*
X14877953Y-13859373D02*
X14906963Y-13828867D01*
X14906963Y-13828867D02*
X14920507Y-13812693D01*
X18624960Y-6515743D02*
X18600769Y-6510160D01*
X14920507Y-13812693D02*
X14933380Y-13795931D01*
X18716772Y-6549307D02*
X18694624Y-6539294D01*
X14933380Y-13795931D02*
X14945559Y-13778598D01*
X14817687Y-5000620D02*
X14792894Y-5000005D01*
X14945559Y-13778598D02*
X14957023Y-13760713D01*
X14957023Y-13760713D02*
X14967747Y-13742295D01*
X14977709Y-13723362D02*
X14986886Y-13703933D01*
X7060348Y-6761670D02*
X7049306Y-6783229D01*
X14986886Y-13703933D02*
X14995256Y-13684027D01*
X15009482Y-13642858D02*
X15015293Y-13621631D01*
X15955651Y-12800974D02*
X15911732Y-12803870D01*
X15015293Y-13621631D02*
X15020204Y-13600002D01*
X18600769Y-6510160D02*
X18576147Y-6505763D01*
X16000000Y-12800001D02*
X15955651Y-12800974D01*
X15911732Y-12803870D02*
X15868288Y-12808651D01*
X18500000Y-12800001D02*
X18524794Y-12799386D01*
X15868288Y-12808651D02*
X15825366Y-12815279D01*
X18551124Y-6502583D02*
X18525732Y-6500652D01*
X16670464Y-6469846D02*
X16718213Y-6480612D01*
X15825366Y-12815279D02*
X15783010Y-12823718D01*
X15783010Y-12823718D02*
X15741267Y-12833931D01*
X15741267Y-12833931D02*
X15700182Y-12845879D01*
X15700182Y-12845879D02*
X15659800Y-12859527D01*
X15659800Y-12859527D02*
X15620168Y-12874836D01*
X18525732Y-6500652D02*
X18500002Y-6500001D01*
X15581330Y-12891770D02*
X15543333Y-12910291D01*
X15543333Y-12910291D02*
X15506221Y-12930362D01*
X15367545Y-13025404D02*
X15304707Y-13081257D01*
X16914219Y-6499882D02*
X18500000Y-6499882D01*
X15304707Y-13081257D02*
X15246688Y-13142270D01*
X15246688Y-13142270D02*
X15219600Y-13174617D01*
X15219600Y-13174617D02*
X15193854Y-13208143D01*
X15193854Y-13208143D02*
X15169495Y-13242809D01*
X18713642Y-12752060D02*
X18735446Y-12741098D01*
X15169495Y-13242809D02*
X15146568Y-13278579D01*
X16718213Y-6480612D02*
X16766544Y-6489046D01*
X15146568Y-13278579D02*
X15125120Y-13315415D01*
X15105196Y-13353280D02*
X15086841Y-13392138D01*
X15070101Y-13431950D02*
X15055022Y-13472679D01*
X9599210Y-6358144D02*
X9640587Y-6331994D01*
X15055022Y-13472679D02*
X15041649Y-13514289D01*
X15041649Y-13514289D02*
X15030028Y-13556742D01*
X15030028Y-13556742D02*
X15020204Y-13600000D01*
X18500000Y-12800009D02*
X16000005Y-12800009D01*
X15028339Y-5058908D02*
X15006535Y-5047946D01*
X18524794Y-12799386D02*
X18549419Y-12797554D01*
X18549419Y-12797554D02*
X18573835Y-12794521D01*
X18573835Y-12794521D02*
X18598001Y-12790305D01*
X18598001Y-12790305D02*
X18621876Y-12784921D01*
X18621876Y-12784921D02*
X18645418Y-12778388D01*
X16359414Y-6331993D02*
X16400791Y-6358143D01*
X18645418Y-12778388D02*
X18668587Y-12770723D01*
X18691342Y-12761941D02*
X18713642Y-12752060D01*
X18735446Y-12741098D02*
X18756712Y-12729071D01*
X18756712Y-12729071D02*
X18777401Y-12715995D01*
X18777401Y-12715995D02*
X18797470Y-12701889D01*
X18797470Y-12701889D02*
X18816879Y-12686769D01*
X18816879Y-12686769D02*
X18835588Y-12670652D01*
X18835588Y-12670652D02*
X18853554Y-12653555D01*
X18853554Y-12653555D02*
X18870651Y-12635588D01*
X18870651Y-12635588D02*
X18886768Y-12616880D01*
X18886768Y-12616880D02*
X18901888Y-12597471D01*
X18901888Y-12597471D02*
X18915995Y-12577401D01*
X18915995Y-12577401D02*
X18929070Y-12556713D01*
X14914769Y-5015085D02*
X14890894Y-5009701D01*
X18929070Y-12556713D02*
X18941097Y-12535446D01*
X18941097Y-12535446D02*
X18952060Y-12513642D01*
X18952060Y-12513642D02*
X18961940Y-12491342D01*
X18961940Y-12491342D02*
X18970722Y-12468587D01*
X18970722Y-12468587D02*
X18978388Y-12445418D01*
X18978388Y-12445418D02*
X18984921Y-12421876D01*
X18984921Y-12421876D02*
X18990304Y-12398001D01*
X18990304Y-12398001D02*
X18994521Y-12373835D01*
X18994521Y-12373835D02*
X18997554Y-12349419D01*
X18999386Y-12324794D02*
X19000001Y-12300001D01*
X19000009Y-6999945D02*
X19000009Y-12300078D01*
X19000000Y-7000000D02*
X18999350Y-6974270D01*
X18999350Y-6974270D02*
X18997419Y-6948878D01*
X18997419Y-6948878D02*
X18994239Y-6923855D01*
X16207107Y-6207109D02*
X16243040Y-6241304D01*
X18994239Y-6923855D02*
X18989842Y-6899232D01*
X10890228Y-5113238D02*
X10871520Y-5129356D01*
X9376622Y-6456779D02*
X9422960Y-6441448D01*
X18989842Y-6899232D02*
X18984259Y-6875042D01*
X14984235Y-5038065D02*
X14961480Y-5029284D01*
X18984259Y-6875042D02*
X18977521Y-6851315D01*
X11182313Y-5000617D02*
X11157688Y-5002450D01*
X7375043Y-6515743D02*
X7351316Y-6522480D01*
X18977521Y-6851315D02*
X18969661Y-6828083D01*
X18969661Y-6828083D02*
X18960708Y-6805377D01*
X18799159Y-6599333D02*
X18779556Y-6585393D01*
X18960708Y-6805377D02*
X18950695Y-6783229D01*
X9281788Y-6480611D02*
X9329537Y-6469845D01*
X18927614Y-6740732D02*
X18914609Y-6720445D01*
X18914609Y-6720445D02*
X18900669Y-6700842D01*
X10929707Y-5084011D02*
X10909637Y-5098118D01*
X18900669Y-6700842D02*
X18885825Y-6681954D01*
X18885825Y-6681954D02*
X18870110Y-6663812D01*
X18870110Y-6663812D02*
X18853554Y-6646447D01*
X18836190Y-6629892D02*
X18818048Y-6614176D01*
X18818048Y-6614176D02*
X18799159Y-6599333D01*
X18779556Y-6585393D02*
X18759270Y-6572388D01*
X18759270Y-6572388D02*
X18738331Y-6560348D01*
X18576147Y-6505763D02*
X18551124Y-6502583D01*
X18738331Y-6560348D02*
X18716772Y-6549307D01*
X18694624Y-6539294D02*
X18671918Y-6530341D01*
X18648686Y-6522480D02*
X18624960Y-6515743D01*
X16243040Y-6241304D02*
X16280456Y-6273539D01*
X16280456Y-6273539D02*
X16319275Y-6303780D01*
X16319275Y-6303780D02*
X16359414Y-6331993D01*
X16400791Y-6358143D02*
X16443324Y-6382198D01*
X16443324Y-6382198D02*
X16486931Y-6404123D01*
X16486931Y-6404123D02*
X16531531Y-6423884D01*
X16531531Y-6423884D02*
X16577041Y-6441448D01*
X16623379Y-6456780D02*
X16670464Y-6469846D01*
X16766544Y-6489046D02*
X16815377Y-6495111D01*
X16815377Y-6495111D02*
X16864627Y-6498776D01*
X16864627Y-6498776D02*
X16914214Y-6500005D01*
X15146447Y-5146450D02*
X15128481Y-5129353D01*
X15128481Y-5129353D02*
X15109773Y-5113236D01*
X11038520Y-5029283D02*
X11015765Y-5038065D01*
X15109773Y-5113236D02*
X15090363Y-5098116D01*
X15070294Y-5084010D02*
X15049605Y-5070935D01*
X15049605Y-5070935D02*
X15028339Y-5058908D01*
X15006535Y-5047946D02*
X14984235Y-5038065D01*
X10909637Y-5098118D02*
X10890228Y-5113238D01*
X14961480Y-5029284D02*
X14938311Y-5021618D01*
X9085787Y-6500001D02*
X9135374Y-6498773D01*
X14890894Y-5009701D02*
X14866728Y-5005485D01*
X11061689Y-5021617D02*
X11038520Y-5029283D01*
X14866728Y-5005485D02*
X14842312Y-5002452D01*
X14842312Y-5002452D02*
X14817687Y-5000620D01*
X11157688Y-5002450D02*
X11133272Y-5005483D01*
X11109106Y-5009700D02*
X11085232Y-5015084D01*
X11085232Y-5015084D02*
X11061689Y-5021617D01*
X11015765Y-5038065D02*
X10993465Y-5047946D01*
X10993465Y-5047946D02*
X10971662Y-5058909D01*
X10971662Y-5058909D02*
X10950395Y-5070936D01*
X10950395Y-5070936D02*
X10929707Y-5084011D01*
X10871520Y-5129356D02*
X10853554Y-5146453D01*
X10853555Y-5146538D02*
X9792906Y-6206986D01*
X9135374Y-6498773D02*
X9184625Y-6495109D01*
X9184625Y-6495109D02*
X9233457Y-6489044D01*
X9233457Y-6489044D02*
X9281788Y-6480611D01*
X9329537Y-6469845D02*
X9376622Y-6456779D01*
X9422960Y-6441448D02*
X9468470Y-6423884D01*
X9468470Y-6423884D02*
X9513070Y-6404124D01*
X9513070Y-6404124D02*
X9556677Y-6382199D01*
X9556677Y-6382199D02*
X9599210Y-6358144D01*
X9640587Y-6331994D02*
X9680726Y-6303781D01*
X9680726Y-6303781D02*
X9719544Y-6273541D01*
X9719544Y-6273541D02*
X9756961Y-6241307D01*
X9085781Y-6499882D02*
X7500001Y-6499882D01*
X7500001Y-6500001D02*
X7474271Y-6500652D01*
X7474271Y-6500652D02*
X7448879Y-6502583D01*
X7448879Y-6502583D02*
X7423856Y-6505763D01*
X7423856Y-6505763D02*
X7399233Y-6510160D01*
X7114177Y-6681954D02*
X7099333Y-6700842D01*
X7399233Y-6510160D02*
X7375043Y-6515743D01*
X7351316Y-6522480D02*
X7328084Y-6530341D01*
X7328084Y-6530341D02*
X7305378Y-6539294D01*
X7305378Y-6539294D02*
X7283230Y-6549307D01*
X7261671Y-6560348D02*
X7240733Y-6572388D01*
X7240733Y-6572388D02*
X7220446Y-6585393D01*
X7220446Y-6585393D02*
X7200843Y-6599333D01*
X7200843Y-6599333D02*
X7181955Y-6614176D01*
X7181955Y-6614176D02*
X7163812Y-6629892D01*
X7072388Y-6740732D02*
X7060348Y-6761670D01*
X7129892Y-6663812D02*
X7114177Y-6681954D01*
X7099333Y-6700842D02*
X7085393Y-6720445D01*
X7085393Y-6720445D02*
X7072388Y-6740732D01*
X7049306Y-6783229D02*
X7039293Y-6805377D01*
X7039293Y-6805377D02*
X7030341Y-6828083D01*
X7022480Y-6851315D02*
X7015742Y-6875042D01*
X7010159Y-6899232D02*
X7005761Y-6923855D01*
X7005761Y-6923855D02*
X7002582Y-6948878D01*
X7002582Y-6948878D02*
X7000651Y-6974270D01*
X7000651Y-6974270D02*
X7000000Y-7000000D01*
D11*
X7260768Y-14311484D02*
X7260768Y-14111484D01*
X7260768Y-14111484D02*
X7308387Y-14111484D01*
X7308387Y-14111484D02*
X7336959Y-14121008D01*
X7336959Y-14121008D02*
X7356006Y-14140055D01*
X7356006Y-14140055D02*
X7365530Y-14159103D01*
X7365530Y-14159103D02*
X7375054Y-14197198D01*
X7375054Y-14197198D02*
X7375054Y-14225770D01*
X7375054Y-14225770D02*
X7365530Y-14263865D01*
X7365530Y-14263865D02*
X7356006Y-14282912D01*
X7356006Y-14282912D02*
X7336959Y-14301960D01*
X7336959Y-14301960D02*
X7308387Y-14311484D01*
X7308387Y-14311484D02*
X7260768Y-14311484D01*
X7460768Y-14311484D02*
X7460768Y-14178150D01*
X7460768Y-14216246D02*
X7470292Y-14197198D01*
X7470292Y-14197198D02*
X7479816Y-14187674D01*
X7479816Y-14187674D02*
X7498864Y-14178150D01*
X7498864Y-14178150D02*
X7517911Y-14178150D01*
X7584578Y-14311484D02*
X7584578Y-14178150D01*
X7584578Y-14111484D02*
X7575054Y-14121008D01*
X7575054Y-14121008D02*
X7584578Y-14130531D01*
X7584578Y-14130531D02*
X7594102Y-14121008D01*
X7594102Y-14121008D02*
X7584578Y-14111484D01*
X7584578Y-14111484D02*
X7584578Y-14130531D01*
X7708387Y-14311484D02*
X7689340Y-14301960D01*
X7689340Y-14301960D02*
X7679816Y-14282912D01*
X7679816Y-14282912D02*
X7679816Y-14111484D01*
X7813149Y-14311484D02*
X7794102Y-14301960D01*
X7794102Y-14301960D02*
X7784578Y-14282912D01*
X7784578Y-14282912D02*
X7784578Y-14111484D01*
X8041721Y-14311484D02*
X8041721Y-14111484D01*
X8041721Y-14111484D02*
X8108387Y-14254341D01*
X8108387Y-14254341D02*
X8175054Y-14111484D01*
X8175054Y-14111484D02*
X8175054Y-14311484D01*
X8356006Y-14311484D02*
X8356006Y-14206722D01*
X8356006Y-14206722D02*
X8346483Y-14187674D01*
X8346483Y-14187674D02*
X8327435Y-14178150D01*
X8327435Y-14178150D02*
X8289340Y-14178150D01*
X8289340Y-14178150D02*
X8270292Y-14187674D01*
X8356006Y-14301960D02*
X8336959Y-14311484D01*
X8336959Y-14311484D02*
X8289340Y-14311484D01*
X8289340Y-14311484D02*
X8270292Y-14301960D01*
X8270292Y-14301960D02*
X8260768Y-14282912D01*
X8260768Y-14282912D02*
X8260768Y-14263865D01*
X8260768Y-14263865D02*
X8270292Y-14244817D01*
X8270292Y-14244817D02*
X8289340Y-14235293D01*
X8289340Y-14235293D02*
X8336959Y-14235293D01*
X8336959Y-14235293D02*
X8356006Y-14225770D01*
X8451245Y-14178150D02*
X8451245Y-14378150D01*
X8451245Y-14187674D02*
X8470292Y-14178150D01*
X8470292Y-14178150D02*
X8508388Y-14178150D01*
X8508388Y-14178150D02*
X8527435Y-14187674D01*
X8527435Y-14187674D02*
X8536959Y-14197198D01*
X8536959Y-14197198D02*
X8546483Y-14216246D01*
X8546483Y-14216246D02*
X8546483Y-14273389D01*
X8546483Y-14273389D02*
X8536959Y-14292436D01*
X8536959Y-14292436D02*
X8527435Y-14301960D01*
X8527435Y-14301960D02*
X8508388Y-14311484D01*
X8508388Y-14311484D02*
X8470292Y-14311484D01*
X8470292Y-14311484D02*
X8451245Y-14301960D01*
X8632197Y-14292436D02*
X8641721Y-14301960D01*
X8641721Y-14301960D02*
X8632197Y-14311484D01*
X8632197Y-14311484D02*
X8622673Y-14301960D01*
X8622673Y-14301960D02*
X8632197Y-14292436D01*
X8632197Y-14292436D02*
X8632197Y-14311484D01*
X8632197Y-14187674D02*
X8641721Y-14197198D01*
X8641721Y-14197198D02*
X8632197Y-14206722D01*
X8632197Y-14206722D02*
X8622673Y-14197198D01*
X8622673Y-14197198D02*
X8632197Y-14187674D01*
X8632197Y-14187674D02*
X8632197Y-14206722D01*
M02*
