%TF.GenerationSoftware,KiCad,Pcbnew,7.0.5*%
%TF.CreationDate,2024-08-14T01:08:48+02:00*%
%TF.ProjectId,game,67616d65-2e6b-4696-9361-645f70636258,rev?*%
%TF.SameCoordinates,Original*%
%TF.FileFunction,Drillmap*%
%TF.FilePolarity,Positive*%
%FSLAX45Y45*%
G04 Gerber Fmt 4.5, Leading zero omitted, Abs format (unit mm)*
G04 Created by KiCad (PCBNEW 7.0.5) date 2024-08-14 01:08:48*
%MOMM*%
%LPD*%
G01*
G04 APERTURE LIST*
%ADD10C,0.000000*%
%ADD11C,0.200000*%
%ADD12C,0.080000*%
%ADD13C,0.090000*%
%ADD14C,0.100000*%
%ADD15C,0.104000*%
%ADD16C,0.140000*%
%ADD17C,0.320000*%
G04 APERTURE END LIST*
D10*
X7114176Y-12618046D02*
X7129891Y-12636188D01*
X15090363Y-5098116D02*
X15070294Y-5084010D01*
X7010159Y-12400769D02*
X7015742Y-12424959D01*
X10599343Y-12999506D02*
X10565163Y-12975008D01*
X15125120Y-13315415D02*
X15105196Y-13353280D01*
X7129891Y-12636188D02*
X7146446Y-12653553D01*
X14995256Y-13684027D02*
X15002796Y-13663663D01*
X6999992Y-6999945D02*
X6999992Y-12300078D01*
X15002796Y-13663663D02*
X15009482Y-13642858D01*
X10216991Y-12823720D02*
X10174635Y-12815281D01*
X18997554Y-12349419D02*
X18999386Y-12324794D01*
X18671918Y-6530341D02*
X18648686Y-6522480D01*
X7015742Y-6875042D02*
X7010159Y-6899232D01*
X7000001Y-12300002D02*
X7000652Y-12325732D01*
X7283230Y-6549307D02*
X7261671Y-6560348D01*
X7015742Y-12424959D02*
X7022480Y-12448686D01*
X10418670Y-12891771D02*
X10379833Y-12874838D01*
X10979797Y-13600002D02*
X10969973Y-13556743D01*
X7328083Y-12769660D02*
X7351315Y-12777521D01*
X7039293Y-12494623D02*
X7049306Y-12516771D01*
X7000652Y-12325732D02*
X7002583Y-12351124D01*
X10780400Y-13174619D02*
X10753312Y-13142271D01*
X7022480Y-12448686D02*
X7030340Y-12471917D01*
X7351315Y-12777521D02*
X7375042Y-12784259D01*
X7002583Y-12351124D02*
X7005762Y-12376147D01*
X7005762Y-12376147D02*
X7010159Y-12400769D01*
X7030340Y-12471917D02*
X7039293Y-12494623D01*
X7049306Y-12516771D02*
X7060348Y-12538330D01*
X10913160Y-13392139D02*
X10894805Y-13353282D01*
X14792894Y-4999960D02*
X11207107Y-4999960D01*
X7060348Y-12538330D02*
X7072387Y-12559268D01*
X10695294Y-13081259D02*
X10664454Y-13052669D01*
X15620168Y-12874836D02*
X15581330Y-12891770D01*
X7072387Y-12559268D02*
X7085392Y-12579555D01*
X10529960Y-12951948D02*
X10493779Y-12930364D01*
X7085392Y-12579555D02*
X7099332Y-12599158D01*
X7099332Y-12599158D02*
X7114176Y-12618046D01*
X15506221Y-12930362D02*
X15434838Y-12975006D01*
X7146448Y-6646447D02*
X7129892Y-6663812D01*
X7146446Y-12653553D02*
X7163811Y-12670109D01*
X7163811Y-12670109D02*
X7181953Y-12685824D01*
X10664454Y-13052669D02*
X10632456Y-13025405D01*
X10874881Y-13315417D02*
X10853433Y-13278580D01*
X14720223Y-13962583D02*
X14739642Y-13954117D01*
X7181953Y-12685824D02*
X7200842Y-12700667D01*
X10131713Y-12808652D02*
X10088269Y-12803872D01*
X7200842Y-12700667D02*
X7220445Y-12714608D01*
X7220445Y-12714608D02*
X7240731Y-12727613D01*
X15086841Y-13392138D02*
X15070101Y-13431950D01*
X10258734Y-12833932D02*
X10216991Y-12823720D01*
X7423854Y-12794239D02*
X7448877Y-12797419D01*
X7030341Y-6828083D02*
X7022480Y-6851315D01*
X7240731Y-12727613D02*
X7261670Y-12739652D01*
X18950695Y-6783229D02*
X18939653Y-6761670D01*
X7500001Y-12800009D02*
X9999995Y-12800009D01*
X11133272Y-5005483D02*
X11109106Y-5009700D01*
X7261670Y-12739652D02*
X7283229Y-12750694D01*
X7283229Y-12750694D02*
X7305377Y-12760707D01*
X7305377Y-12760707D02*
X7328083Y-12769660D01*
X15434838Y-12975006D02*
X15367545Y-13025404D01*
X10944979Y-13472681D02*
X10929900Y-13431951D01*
X7375042Y-12784259D02*
X7399232Y-12789842D01*
X10632456Y-13025405D02*
X10599343Y-12999506D01*
X7399232Y-12789842D02*
X7423854Y-12794239D01*
X7448877Y-12797419D02*
X7474269Y-12799350D01*
X7474269Y-12799350D02*
X7499999Y-12800001D01*
X11054442Y-13778597D02*
X11066622Y-13795930D01*
X10724928Y-13111139D02*
X10695294Y-13081259D01*
X10969973Y-13556743D02*
X10958352Y-13514290D01*
X11207107Y-5000002D02*
X11182313Y-5000617D01*
X10958352Y-13514290D02*
X10944979Y-13472681D01*
X10379833Y-12874838D02*
X10340200Y-12859528D01*
X10929900Y-13431951D02*
X10913160Y-13392139D01*
X10894805Y-13353282D02*
X10874881Y-13315417D01*
X11425560Y-13998065D02*
X11447520Y-13999513D01*
X10299819Y-12845881D02*
X10258734Y-12833932D01*
X10853433Y-13278580D02*
X10830506Y-13242811D01*
X10830506Y-13242811D02*
X10806147Y-13208144D01*
X10997206Y-13663662D02*
X11004745Y-13684027D01*
X10806147Y-13208144D02*
X10780400Y-13174619D01*
X14680216Y-13977062D02*
X14700407Y-13970238D01*
X10753312Y-13142271D02*
X10724928Y-13111139D01*
X11170023Y-13900249D02*
X11187114Y-13912498D01*
X16207094Y-6206989D02*
X15146445Y-5146541D01*
X10565163Y-12975008D02*
X10529960Y-12951948D01*
X10493779Y-12930364D02*
X10456668Y-12910293D01*
X11222805Y-13934819D02*
X11241361Y-13944855D01*
X10456668Y-12910293D02*
X10418670Y-12891771D01*
X10340200Y-12859528D02*
X10299819Y-12845881D01*
X10174635Y-12815281D02*
X10131713Y-12808652D01*
X10088269Y-12803872D02*
X10044350Y-12800976D01*
X10044350Y-12800976D02*
X10000001Y-12800002D01*
X7163812Y-6629892D02*
X7146448Y-6646447D01*
X10979797Y-13600002D02*
X10984709Y-13621631D01*
X10984709Y-13621631D02*
X10990519Y-13642857D01*
X10990519Y-13642857D02*
X10997206Y-13663662D01*
X11004745Y-13684027D02*
X11013115Y-13703933D01*
X11013115Y-13703933D02*
X11022292Y-13723361D01*
X11022292Y-13723361D02*
X11032255Y-13742294D01*
X11032255Y-13742294D02*
X11042979Y-13760712D01*
X11042979Y-13760712D02*
X11054442Y-13778597D01*
X11066622Y-13795930D02*
X11079495Y-13812692D01*
X11079495Y-13812692D02*
X11093039Y-13828866D01*
X11093039Y-13828866D02*
X11107231Y-13844432D01*
X11107231Y-13844432D02*
X11122048Y-13859372D01*
X11122048Y-13859372D02*
X11137468Y-13873667D01*
X11137468Y-13873667D02*
X11153467Y-13887299D01*
X18668587Y-12770723D02*
X18691342Y-12761941D01*
X11153467Y-13887299D02*
X11170023Y-13900249D01*
X16577041Y-6441448D02*
X16623379Y-6456780D01*
X11187114Y-13912498D02*
X11204715Y-13924027D01*
X11204715Y-13924027D02*
X11222805Y-13934819D01*
X11241361Y-13944855D02*
X11260360Y-13954116D01*
X11260360Y-13954116D02*
X11279779Y-13962582D01*
X11279779Y-13962582D02*
X11299595Y-13970237D01*
X11299595Y-13970237D02*
X11319786Y-13977061D01*
X11319786Y-13977061D02*
X11340328Y-13983035D01*
X11340328Y-13983035D02*
X11361200Y-13988141D01*
X11361200Y-13988141D02*
X11382377Y-13992361D01*
X11382377Y-13992361D02*
X11403838Y-13995675D01*
X11403838Y-13995675D02*
X11425560Y-13998065D01*
X11447520Y-13999513D02*
X11469694Y-14000000D01*
X14530305Y-14000000D02*
X11469696Y-14000000D01*
X14530307Y-14000000D02*
X14552481Y-13999513D01*
X14552481Y-13999513D02*
X14574441Y-13998066D01*
X14574441Y-13998066D02*
X14596163Y-13995676D01*
X14596163Y-13995676D02*
X14617624Y-13992361D01*
X14617624Y-13992361D02*
X14638802Y-13988142D01*
X14967747Y-13742295D02*
X14977709Y-13723362D01*
X14638802Y-13988142D02*
X14659673Y-13983036D01*
X14659673Y-13983036D02*
X14680216Y-13977062D01*
X14700407Y-13970238D02*
X14720223Y-13962583D01*
X14739642Y-13954117D02*
X14758640Y-13944856D01*
X14758640Y-13944856D02*
X14777196Y-13934821D01*
X14777196Y-13934821D02*
X14812888Y-13912499D01*
X18939653Y-6761670D02*
X18927614Y-6740732D01*
X14812888Y-13912499D02*
X14846534Y-13887300D01*
X18853554Y-6646447D02*
X18836190Y-6629892D01*
X14938311Y-5021618D02*
X14914769Y-5015085D01*
X9756961Y-6241307D02*
X9792893Y-6207112D01*
X14846534Y-13887300D02*
X14877953Y-13859373D01*
X14877953Y-13859373D02*
X14906963Y-13828867D01*
X14906963Y-13828867D02*
X14920507Y-13812693D01*
X18624960Y-6515743D02*
X18600769Y-6510160D01*
X14920507Y-13812693D02*
X14933380Y-13795931D01*
X18716772Y-6549307D02*
X18694624Y-6539294D01*
X14933380Y-13795931D02*
X14945559Y-13778598D01*
X14817687Y-5000620D02*
X14792894Y-5000005D01*
X14945559Y-13778598D02*
X14957023Y-13760713D01*
X14957023Y-13760713D02*
X14967747Y-13742295D01*
X14977709Y-13723362D02*
X14986886Y-13703933D01*
X7060348Y-6761670D02*
X7049306Y-6783229D01*
X14986886Y-13703933D02*
X14995256Y-13684027D01*
X15009482Y-13642858D02*
X15015293Y-13621631D01*
X15955651Y-12800974D02*
X15911732Y-12803870D01*
X15015293Y-13621631D02*
X15020204Y-13600002D01*
X18600769Y-6510160D02*
X18576147Y-6505763D01*
X16000000Y-12800001D02*
X15955651Y-12800974D01*
X15911732Y-12803870D02*
X15868288Y-12808651D01*
X18500000Y-12800001D02*
X18524794Y-12799386D01*
X15868288Y-12808651D02*
X15825366Y-12815279D01*
X18551124Y-6502583D02*
X18525732Y-6500652D01*
X16670464Y-6469846D02*
X16718213Y-6480612D01*
X15825366Y-12815279D02*
X15783010Y-12823718D01*
X15783010Y-12823718D02*
X15741267Y-12833931D01*
X15741267Y-12833931D02*
X15700182Y-12845879D01*
X15700182Y-12845879D02*
X15659800Y-12859527D01*
X15659800Y-12859527D02*
X15620168Y-12874836D01*
X18525732Y-6500652D02*
X18500002Y-6500001D01*
X15581330Y-12891770D02*
X15543333Y-12910291D01*
X15543333Y-12910291D02*
X15506221Y-12930362D01*
X15367545Y-13025404D02*
X15304707Y-13081257D01*
X16914219Y-6499882D02*
X18500000Y-6499882D01*
X15304707Y-13081257D02*
X15246688Y-13142270D01*
X15246688Y-13142270D02*
X15219600Y-13174617D01*
X15219600Y-13174617D02*
X15193854Y-13208143D01*
X15193854Y-13208143D02*
X15169495Y-13242809D01*
X18713642Y-12752060D02*
X18735446Y-12741098D01*
X15169495Y-13242809D02*
X15146568Y-13278579D01*
X16718213Y-6480612D02*
X16766544Y-6489046D01*
X15146568Y-13278579D02*
X15125120Y-13315415D01*
X15105196Y-13353280D02*
X15086841Y-13392138D01*
X15070101Y-13431950D02*
X15055022Y-13472679D01*
X9599210Y-6358144D02*
X9640587Y-6331994D01*
X15055022Y-13472679D02*
X15041649Y-13514289D01*
X15041649Y-13514289D02*
X15030028Y-13556742D01*
X15030028Y-13556742D02*
X15020204Y-13600000D01*
X18500000Y-12800009D02*
X16000005Y-12800009D01*
X15028339Y-5058908D02*
X15006535Y-5047946D01*
X18524794Y-12799386D02*
X18549419Y-12797554D01*
X18549419Y-12797554D02*
X18573835Y-12794521D01*
X18573835Y-12794521D02*
X18598001Y-12790305D01*
X18598001Y-12790305D02*
X18621876Y-12784921D01*
X18621876Y-12784921D02*
X18645418Y-12778388D01*
X16359414Y-6331993D02*
X16400791Y-6358143D01*
X18645418Y-12778388D02*
X18668587Y-12770723D01*
X18691342Y-12761941D02*
X18713642Y-12752060D01*
X18735446Y-12741098D02*
X18756712Y-12729071D01*
X18756712Y-12729071D02*
X18777401Y-12715995D01*
X18777401Y-12715995D02*
X18797470Y-12701889D01*
X18797470Y-12701889D02*
X18816879Y-12686769D01*
X18816879Y-12686769D02*
X18835588Y-12670652D01*
X18835588Y-12670652D02*
X18853554Y-12653555D01*
X18853554Y-12653555D02*
X18870651Y-12635588D01*
X18870651Y-12635588D02*
X18886768Y-12616880D01*
X18886768Y-12616880D02*
X18901888Y-12597471D01*
X18901888Y-12597471D02*
X18915995Y-12577401D01*
X18915995Y-12577401D02*
X18929070Y-12556713D01*
X14914769Y-5015085D02*
X14890894Y-5009701D01*
X18929070Y-12556713D02*
X18941097Y-12535446D01*
X18941097Y-12535446D02*
X18952060Y-12513642D01*
X18952060Y-12513642D02*
X18961940Y-12491342D01*
X18961940Y-12491342D02*
X18970722Y-12468587D01*
X18970722Y-12468587D02*
X18978388Y-12445418D01*
X18978388Y-12445418D02*
X18984921Y-12421876D01*
X18984921Y-12421876D02*
X18990304Y-12398001D01*
X18990304Y-12398001D02*
X18994521Y-12373835D01*
X18994521Y-12373835D02*
X18997554Y-12349419D01*
X18999386Y-12324794D02*
X19000001Y-12300001D01*
X19000009Y-6999945D02*
X19000009Y-12300078D01*
X19000000Y-7000000D02*
X18999350Y-6974270D01*
X18999350Y-6974270D02*
X18997419Y-6948878D01*
X18997419Y-6948878D02*
X18994239Y-6923855D01*
X16207107Y-6207109D02*
X16243040Y-6241304D01*
X18994239Y-6923855D02*
X18989842Y-6899232D01*
X10890228Y-5113238D02*
X10871520Y-5129356D01*
X9376622Y-6456779D02*
X9422960Y-6441448D01*
X18989842Y-6899232D02*
X18984259Y-6875042D01*
X14984235Y-5038065D02*
X14961480Y-5029284D01*
X18984259Y-6875042D02*
X18977521Y-6851315D01*
X11182313Y-5000617D02*
X11157688Y-5002450D01*
X7375043Y-6515743D02*
X7351316Y-6522480D01*
X18977521Y-6851315D02*
X18969661Y-6828083D01*
X18969661Y-6828083D02*
X18960708Y-6805377D01*
X18799159Y-6599333D02*
X18779556Y-6585393D01*
X18960708Y-6805377D02*
X18950695Y-6783229D01*
X9281788Y-6480611D02*
X9329537Y-6469845D01*
X18927614Y-6740732D02*
X18914609Y-6720445D01*
X18914609Y-6720445D02*
X18900669Y-6700842D01*
X10929707Y-5084011D02*
X10909637Y-5098118D01*
X18900669Y-6700842D02*
X18885825Y-6681954D01*
X18885825Y-6681954D02*
X18870110Y-6663812D01*
X18870110Y-6663812D02*
X18853554Y-6646447D01*
X18836190Y-6629892D02*
X18818048Y-6614176D01*
X18818048Y-6614176D02*
X18799159Y-6599333D01*
X18779556Y-6585393D02*
X18759270Y-6572388D01*
X18759270Y-6572388D02*
X18738331Y-6560348D01*
X18576147Y-6505763D02*
X18551124Y-6502583D01*
X18738331Y-6560348D02*
X18716772Y-6549307D01*
X18694624Y-6539294D02*
X18671918Y-6530341D01*
X18648686Y-6522480D02*
X18624960Y-6515743D01*
X16243040Y-6241304D02*
X16280456Y-6273539D01*
X16280456Y-6273539D02*
X16319275Y-6303780D01*
X16319275Y-6303780D02*
X16359414Y-6331993D01*
X16400791Y-6358143D02*
X16443324Y-6382198D01*
X16443324Y-6382198D02*
X16486931Y-6404123D01*
X16486931Y-6404123D02*
X16531531Y-6423884D01*
X16531531Y-6423884D02*
X16577041Y-6441448D01*
X16623379Y-6456780D02*
X16670464Y-6469846D01*
X16766544Y-6489046D02*
X16815377Y-6495111D01*
X16815377Y-6495111D02*
X16864627Y-6498776D01*
X16864627Y-6498776D02*
X16914214Y-6500005D01*
X15146447Y-5146450D02*
X15128481Y-5129353D01*
X15128481Y-5129353D02*
X15109773Y-5113236D01*
X11038520Y-5029283D02*
X11015765Y-5038065D01*
X15109773Y-5113236D02*
X15090363Y-5098116D01*
X15070294Y-5084010D02*
X15049605Y-5070935D01*
X15049605Y-5070935D02*
X15028339Y-5058908D01*
X15006535Y-5047946D02*
X14984235Y-5038065D01*
X10909637Y-5098118D02*
X10890228Y-5113238D01*
X14961480Y-5029284D02*
X14938311Y-5021618D01*
X9085787Y-6500001D02*
X9135374Y-6498773D01*
X14890894Y-5009701D02*
X14866728Y-5005485D01*
X11061689Y-5021617D02*
X11038520Y-5029283D01*
X14866728Y-5005485D02*
X14842312Y-5002452D01*
X14842312Y-5002452D02*
X14817687Y-5000620D01*
X11157688Y-5002450D02*
X11133272Y-5005483D01*
X11109106Y-5009700D02*
X11085232Y-5015084D01*
X11085232Y-5015084D02*
X11061689Y-5021617D01*
X11015765Y-5038065D02*
X10993465Y-5047946D01*
X10993465Y-5047946D02*
X10971662Y-5058909D01*
X10971662Y-5058909D02*
X10950395Y-5070936D01*
X10950395Y-5070936D02*
X10929707Y-5084011D01*
X10871520Y-5129356D02*
X10853554Y-5146453D01*
X10853555Y-5146538D02*
X9792906Y-6206986D01*
X9135374Y-6498773D02*
X9184625Y-6495109D01*
X9184625Y-6495109D02*
X9233457Y-6489044D01*
X9233457Y-6489044D02*
X9281788Y-6480611D01*
X9329537Y-6469845D02*
X9376622Y-6456779D01*
X9422960Y-6441448D02*
X9468470Y-6423884D01*
X9468470Y-6423884D02*
X9513070Y-6404124D01*
X9513070Y-6404124D02*
X9556677Y-6382199D01*
X9556677Y-6382199D02*
X9599210Y-6358144D01*
X9640587Y-6331994D02*
X9680726Y-6303781D01*
X9680726Y-6303781D02*
X9719544Y-6273541D01*
X9719544Y-6273541D02*
X9756961Y-6241307D01*
X9085781Y-6499882D02*
X7500001Y-6499882D01*
X7500001Y-6500001D02*
X7474271Y-6500652D01*
X7474271Y-6500652D02*
X7448879Y-6502583D01*
X7448879Y-6502583D02*
X7423856Y-6505763D01*
X7423856Y-6505763D02*
X7399233Y-6510160D01*
X7114177Y-6681954D02*
X7099333Y-6700842D01*
X7399233Y-6510160D02*
X7375043Y-6515743D01*
X7351316Y-6522480D02*
X7328084Y-6530341D01*
X7328084Y-6530341D02*
X7305378Y-6539294D01*
X7305378Y-6539294D02*
X7283230Y-6549307D01*
X7261671Y-6560348D02*
X7240733Y-6572388D01*
X7240733Y-6572388D02*
X7220446Y-6585393D01*
X7220446Y-6585393D02*
X7200843Y-6599333D01*
X7200843Y-6599333D02*
X7181955Y-6614176D01*
X7181955Y-6614176D02*
X7163812Y-6629892D01*
X7072388Y-6740732D02*
X7060348Y-6761670D01*
X7129892Y-6663812D02*
X7114177Y-6681954D01*
X7099333Y-6700842D02*
X7085393Y-6720445D01*
X7085393Y-6720445D02*
X7072388Y-6740732D01*
X7049306Y-6783229D02*
X7039293Y-6805377D01*
X7039293Y-6805377D02*
X7030341Y-6828083D01*
X7022480Y-6851315D02*
X7015742Y-6875042D01*
X7010159Y-6899232D02*
X7005761Y-6923855D01*
X7005761Y-6923855D02*
X7002582Y-6948878D01*
X7002582Y-6948878D02*
X7000651Y-6974270D01*
X7000651Y-6974270D02*
X7000000Y-7000000D01*
D11*
D12*
X7835510Y-8888852D02*
X7915510Y-8968852D01*
X7915510Y-8888852D02*
X7835510Y-8968852D01*
X7835510Y-11428852D02*
X7915510Y-11508852D01*
X7915510Y-11428852D02*
X7835510Y-11508852D01*
X9105510Y-8888852D02*
X9185510Y-8968852D01*
X9185510Y-8888852D02*
X9105510Y-8968852D01*
X9105510Y-11428852D02*
X9185510Y-11508852D01*
X9185510Y-11428852D02*
X9105510Y-11508852D01*
X9764885Y-10920852D02*
X9844885Y-11000852D01*
X9844885Y-10920852D02*
X9764885Y-11000852D01*
X10149885Y-8126852D02*
X10229885Y-8206852D01*
X10229885Y-8126852D02*
X10149885Y-8206852D01*
X10649885Y-8126852D02*
X10729885Y-8206852D01*
X10729885Y-8126852D02*
X10649885Y-8206852D01*
X11034885Y-10920852D02*
X11114885Y-11000852D01*
X11114885Y-10920852D02*
X11034885Y-11000852D01*
X12279611Y-11302408D02*
X12359611Y-11382408D01*
X12359611Y-11302408D02*
X12279611Y-11382408D01*
X12281010Y-8126852D02*
X12361010Y-8206852D01*
X12361010Y-8126852D02*
X12281010Y-8206852D01*
X12281010Y-8920741D02*
X12361010Y-9000741D01*
X12361010Y-8920741D02*
X12281010Y-9000741D01*
X12281010Y-9714630D02*
X12361010Y-9794630D01*
X12361010Y-9714630D02*
X12281010Y-9794630D01*
X12281010Y-10508519D02*
X12361010Y-10588519D01*
X12361010Y-10508519D02*
X12281010Y-10588519D01*
X13549611Y-11302408D02*
X13629611Y-11382408D01*
X13629611Y-11302408D02*
X13549611Y-11382408D01*
X13551010Y-8126852D02*
X13631010Y-8206852D01*
X13631010Y-8126852D02*
X13551010Y-8206852D01*
X13551010Y-8920741D02*
X13631010Y-9000741D01*
X13631010Y-8920741D02*
X13551010Y-9000741D01*
X13551010Y-9714630D02*
X13631010Y-9794630D01*
X13631010Y-9714630D02*
X13551010Y-9794630D01*
X13551010Y-10508519D02*
X13631010Y-10588519D01*
X13631010Y-10508519D02*
X13551010Y-10588519D01*
X14796135Y-10920852D02*
X14876135Y-11000852D01*
X14876135Y-10920852D02*
X14796135Y-11000852D01*
X15181135Y-8126852D02*
X15261135Y-8206852D01*
X15261135Y-8126852D02*
X15181135Y-8206852D01*
X15681135Y-8126852D02*
X15761135Y-8206852D01*
X15761135Y-8126852D02*
X15681135Y-8206852D01*
X16066135Y-10920852D02*
X16146135Y-11000852D01*
X16146135Y-10920852D02*
X16066135Y-11000852D01*
X16725510Y-8888852D02*
X16805510Y-8968852D01*
X16805510Y-8888852D02*
X16725510Y-8968852D01*
X16725510Y-11428852D02*
X16805510Y-11508852D01*
X16805510Y-11428852D02*
X16725510Y-11508852D01*
X17995510Y-8888852D02*
X18075510Y-8968852D01*
X18075510Y-8888852D02*
X17995510Y-8968852D01*
X17995510Y-11428852D02*
X18075510Y-11508852D01*
X18075510Y-11428852D02*
X17995510Y-11508852D01*
D13*
X10357385Y-10198852D02*
G75*
G03*
X10357385Y-10198852I-45000J0D01*
G01*
X10611385Y-10198852D02*
G75*
G03*
X10611385Y-10198852I-45000J0D01*
G01*
X12872111Y-11722852D02*
G75*
G03*
X12872111Y-11722852I-45000J0D01*
G01*
X12873510Y-8674852D02*
G75*
G03*
X12873510Y-8674852I-45000J0D01*
G01*
X12873510Y-9436852D02*
G75*
G03*
X12873510Y-9436852I-45000J0D01*
G01*
X12873510Y-10198852D02*
G75*
G03*
X12873510Y-10198852I-45000J0D01*
G01*
X12873510Y-10960852D02*
G75*
G03*
X12873510Y-10960852I-45000J0D01*
G01*
X13126111Y-11722852D02*
G75*
G03*
X13126111Y-11722852I-45000J0D01*
G01*
X13127510Y-8674852D02*
G75*
G03*
X13127510Y-8674852I-45000J0D01*
G01*
X13127510Y-9436852D02*
G75*
G03*
X13127510Y-9436852I-45000J0D01*
G01*
X13127510Y-10198852D02*
G75*
G03*
X13127510Y-10198852I-45000J0D01*
G01*
X13127510Y-10960852D02*
G75*
G03*
X13127510Y-10960852I-45000J0D01*
G01*
X15388635Y-10198852D02*
G75*
G03*
X15388635Y-10198852I-45000J0D01*
G01*
X15642635Y-10198852D02*
G75*
G03*
X15642635Y-10198852I-45000J0D01*
G01*
D14*
X12563510Y-5576852D02*
X12563510Y-5676852D01*
X12513510Y-5626852D02*
X12613510Y-5626852D01*
X12575510Y-12688852D02*
X12575510Y-12788852D01*
X12525510Y-12738852D02*
X12625510Y-12738852D01*
X12817510Y-5576852D02*
X12817510Y-5676852D01*
X12767510Y-5626852D02*
X12867510Y-5626852D01*
X13071510Y-5576852D02*
X13071510Y-5676852D01*
X13021510Y-5626852D02*
X13121510Y-5626852D01*
X13325510Y-5576852D02*
X13325510Y-5676852D01*
X13275510Y-5626852D02*
X13375510Y-5626852D01*
X13335510Y-12688852D02*
X13335510Y-12788852D01*
X13285510Y-12738852D02*
X13385510Y-12738852D01*
D15*
X11693530Y-8711622D02*
X11693530Y-8638082D01*
X11619990Y-8638082D01*
X11619990Y-8711622D01*
X11693530Y-8711622D01*
X11693530Y-8965622D02*
X11693530Y-8892082D01*
X11619990Y-8892082D01*
X11619990Y-8965622D01*
X11693530Y-8965622D01*
X11693530Y-9219622D02*
X11693530Y-9146082D01*
X11619990Y-9146082D01*
X11619990Y-9219622D01*
X11693530Y-9219622D01*
X11693530Y-9473622D02*
X11693530Y-9400082D01*
X11619990Y-9400082D01*
X11619990Y-9473622D01*
X11693530Y-9473622D01*
X11693530Y-9727622D02*
X11693530Y-9654082D01*
X11619990Y-9654082D01*
X11619990Y-9727622D01*
X11693530Y-9727622D01*
X11693530Y-9981622D02*
X11693530Y-9908082D01*
X11619990Y-9908082D01*
X11619990Y-9981622D01*
X11693530Y-9981622D01*
X11693530Y-10235622D02*
X11693530Y-10162082D01*
X11619990Y-10162082D01*
X11619990Y-10235622D01*
X11693530Y-10235622D01*
X11693530Y-10489622D02*
X11693530Y-10416082D01*
X11619990Y-10416082D01*
X11619990Y-10489622D01*
X11693530Y-10489622D01*
X11693530Y-10743622D02*
X11693530Y-10670082D01*
X11619990Y-10670082D01*
X11619990Y-10743622D01*
X11693530Y-10743622D01*
X11693530Y-10997622D02*
X11693530Y-10924082D01*
X11619990Y-10924082D01*
X11619990Y-10997622D01*
X11693530Y-10997622D01*
X11693530Y-11251622D02*
X11693530Y-11178082D01*
X11619990Y-11178082D01*
X11619990Y-11251622D01*
X11693530Y-11251622D01*
X11693530Y-11505622D02*
X11693530Y-11432082D01*
X11619990Y-11432082D01*
X11619990Y-11505622D01*
X11693530Y-11505622D01*
X11693530Y-11759622D02*
X11693530Y-11686082D01*
X11619990Y-11686082D01*
X11619990Y-11759622D01*
X11693530Y-11759622D01*
X11693530Y-12013622D02*
X11693530Y-11940082D01*
X11619990Y-11940082D01*
X11619990Y-12013622D01*
X11693530Y-12013622D01*
X11693530Y-12267622D02*
X11693530Y-12194082D01*
X11619990Y-12194082D01*
X11619990Y-12267622D01*
X11693530Y-12267622D01*
X11693530Y-12521622D02*
X11693530Y-12448082D01*
X11619990Y-12448082D01*
X11619990Y-12521622D01*
X11693530Y-12521622D01*
X11693530Y-12775622D02*
X11693530Y-12702082D01*
X11619990Y-12702082D01*
X11619990Y-12775622D01*
X11693530Y-12775622D01*
X11693530Y-13029622D02*
X11693530Y-12956082D01*
X11619990Y-12956082D01*
X11619990Y-13029622D01*
X11693530Y-13029622D01*
X11693530Y-13283622D02*
X11693530Y-13210082D01*
X11619990Y-13210082D01*
X11619990Y-13283622D01*
X11693530Y-13283622D01*
X14233530Y-8711622D02*
X14233530Y-8638082D01*
X14159990Y-8638082D01*
X14159990Y-8711622D01*
X14233530Y-8711622D01*
X14233530Y-8965622D02*
X14233530Y-8892082D01*
X14159990Y-8892082D01*
X14159990Y-8965622D01*
X14233530Y-8965622D01*
X14233530Y-9219622D02*
X14233530Y-9146082D01*
X14159990Y-9146082D01*
X14159990Y-9219622D01*
X14233530Y-9219622D01*
X14233530Y-9473622D02*
X14233530Y-9400082D01*
X14159990Y-9400082D01*
X14159990Y-9473622D01*
X14233530Y-9473622D01*
X14233530Y-9727622D02*
X14233530Y-9654082D01*
X14159990Y-9654082D01*
X14159990Y-9727622D01*
X14233530Y-9727622D01*
X14233530Y-9981622D02*
X14233530Y-9908082D01*
X14159990Y-9908082D01*
X14159990Y-9981622D01*
X14233530Y-9981622D01*
X14233530Y-10235622D02*
X14233530Y-10162082D01*
X14159990Y-10162082D01*
X14159990Y-10235622D01*
X14233530Y-10235622D01*
X14233530Y-10489622D02*
X14233530Y-10416082D01*
X14159990Y-10416082D01*
X14159990Y-10489622D01*
X14233530Y-10489622D01*
X14233530Y-10743622D02*
X14233530Y-10670082D01*
X14159990Y-10670082D01*
X14159990Y-10743622D01*
X14233530Y-10743622D01*
X14233530Y-10997622D02*
X14233530Y-10924082D01*
X14159990Y-10924082D01*
X14159990Y-10997622D01*
X14233530Y-10997622D01*
X14233530Y-11251622D02*
X14233530Y-11178082D01*
X14159990Y-11178082D01*
X14159990Y-11251622D01*
X14233530Y-11251622D01*
X14233530Y-11505622D02*
X14233530Y-11432082D01*
X14159990Y-11432082D01*
X14159990Y-11505622D01*
X14233530Y-11505622D01*
X14233530Y-11759622D02*
X14233530Y-11686082D01*
X14159990Y-11686082D01*
X14159990Y-11759622D01*
X14233530Y-11759622D01*
X14233530Y-12013622D02*
X14233530Y-11940082D01*
X14159990Y-11940082D01*
X14159990Y-12013622D01*
X14233530Y-12013622D01*
X14233530Y-12267622D02*
X14233530Y-12194082D01*
X14159990Y-12194082D01*
X14159990Y-12267622D01*
X14233530Y-12267622D01*
X14233530Y-12521622D02*
X14233530Y-12448082D01*
X14159990Y-12448082D01*
X14159990Y-12521622D01*
X14233530Y-12521622D01*
X14233530Y-12775622D02*
X14233530Y-12702082D01*
X14159990Y-12702082D01*
X14159990Y-12775622D01*
X14233530Y-12775622D01*
X14233530Y-13029622D02*
X14233530Y-12956082D01*
X14159990Y-12956082D01*
X14159990Y-13029622D01*
X14233530Y-13029622D01*
X14233530Y-13283622D02*
X14233530Y-13210082D01*
X14159990Y-13210082D01*
X14159990Y-13283622D01*
X14233530Y-13283622D01*
D16*
X7940510Y-10018852D02*
X8010510Y-9948852D01*
X7940510Y-9878852D01*
X7870510Y-9948852D01*
X7940510Y-10018852D01*
X7940510Y-10518852D02*
X8010510Y-10448852D01*
X7940510Y-10378852D01*
X7870510Y-10448852D01*
X7940510Y-10518852D01*
X9190510Y-10018852D02*
X9260510Y-9948852D01*
X9190510Y-9878852D01*
X9120510Y-9948852D01*
X9190510Y-10018852D01*
X9190510Y-10518852D02*
X9260510Y-10448852D01*
X9190510Y-10378852D01*
X9120510Y-10448852D01*
X9190510Y-10518852D01*
X16830510Y-10018852D02*
X16900510Y-9948852D01*
X16830510Y-9878852D01*
X16760510Y-9948852D01*
X16830510Y-10018852D01*
X16830510Y-10518852D02*
X16900510Y-10448852D01*
X16830510Y-10378852D01*
X16760510Y-10448852D01*
X16830510Y-10518852D01*
X18080510Y-10018852D02*
X18150510Y-9948852D01*
X18080510Y-9878852D01*
X18010510Y-9948852D01*
X18080510Y-10018852D01*
X18080510Y-10518852D02*
X18150510Y-10448852D01*
X18080510Y-10378852D01*
X18010510Y-10448852D01*
X18080510Y-10518852D01*
D17*
X7340000Y-6840000D02*
X7660000Y-7160000D01*
X7660000Y-6840000D02*
X7340000Y-7160000D01*
X7660000Y-7000000D02*
G75*
G03*
X7660000Y-7000000I-160000J0D01*
G01*
X7340000Y-12140000D02*
X7660000Y-12460000D01*
X7660000Y-12140000D02*
X7340000Y-12460000D01*
X7660000Y-12300000D02*
G75*
G03*
X7660000Y-12300000I-160000J0D01*
G01*
X10840000Y-5540000D02*
X11160000Y-5860000D01*
X11160000Y-5540000D02*
X10840000Y-5860000D01*
X11160000Y-5700000D02*
G75*
G03*
X11160000Y-5700000I-160000J0D01*
G01*
X14840000Y-5540000D02*
X15160000Y-5860000D01*
X15160000Y-5540000D02*
X14840000Y-5860000D01*
X15160000Y-5700000D02*
G75*
G03*
X15160000Y-5700000I-160000J0D01*
G01*
X18340000Y-6840000D02*
X18660000Y-7160000D01*
X18660000Y-6840000D02*
X18340000Y-7160000D01*
X18660000Y-7000000D02*
G75*
G03*
X18660000Y-7000000I-160000J0D01*
G01*
X18340000Y-12140000D02*
X18660000Y-12460000D01*
X18660000Y-12140000D02*
X18340000Y-12460000D01*
X18660000Y-12300000D02*
G75*
G03*
X18660000Y-12300000I-160000J0D01*
G01*
D11*
X7260768Y-14311484D02*
X7260768Y-14111484D01*
X7260768Y-14111484D02*
X7308387Y-14111484D01*
X7308387Y-14111484D02*
X7336959Y-14121008D01*
X7336959Y-14121008D02*
X7356006Y-14140055D01*
X7356006Y-14140055D02*
X7365530Y-14159103D01*
X7365530Y-14159103D02*
X7375054Y-14197198D01*
X7375054Y-14197198D02*
X7375054Y-14225770D01*
X7375054Y-14225770D02*
X7365530Y-14263865D01*
X7365530Y-14263865D02*
X7356006Y-14282912D01*
X7356006Y-14282912D02*
X7336959Y-14301960D01*
X7336959Y-14301960D02*
X7308387Y-14311484D01*
X7308387Y-14311484D02*
X7260768Y-14311484D01*
X7460768Y-14311484D02*
X7460768Y-14178150D01*
X7460768Y-14216246D02*
X7470292Y-14197198D01*
X7470292Y-14197198D02*
X7479816Y-14187674D01*
X7479816Y-14187674D02*
X7498864Y-14178150D01*
X7498864Y-14178150D02*
X7517911Y-14178150D01*
X7584578Y-14311484D02*
X7584578Y-14178150D01*
X7584578Y-14111484D02*
X7575054Y-14121008D01*
X7575054Y-14121008D02*
X7584578Y-14130531D01*
X7584578Y-14130531D02*
X7594102Y-14121008D01*
X7594102Y-14121008D02*
X7584578Y-14111484D01*
X7584578Y-14111484D02*
X7584578Y-14130531D01*
X7708387Y-14311484D02*
X7689340Y-14301960D01*
X7689340Y-14301960D02*
X7679816Y-14282912D01*
X7679816Y-14282912D02*
X7679816Y-14111484D01*
X7813149Y-14311484D02*
X7794102Y-14301960D01*
X7794102Y-14301960D02*
X7784578Y-14282912D01*
X7784578Y-14282912D02*
X7784578Y-14111484D01*
X8041721Y-14311484D02*
X8041721Y-14111484D01*
X8041721Y-14111484D02*
X8108387Y-14254341D01*
X8108387Y-14254341D02*
X8175054Y-14111484D01*
X8175054Y-14111484D02*
X8175054Y-14311484D01*
X8356006Y-14311484D02*
X8356006Y-14206722D01*
X8356006Y-14206722D02*
X8346483Y-14187674D01*
X8346483Y-14187674D02*
X8327435Y-14178150D01*
X8327435Y-14178150D02*
X8289340Y-14178150D01*
X8289340Y-14178150D02*
X8270292Y-14187674D01*
X8356006Y-14301960D02*
X8336959Y-14311484D01*
X8336959Y-14311484D02*
X8289340Y-14311484D01*
X8289340Y-14311484D02*
X8270292Y-14301960D01*
X8270292Y-14301960D02*
X8260768Y-14282912D01*
X8260768Y-14282912D02*
X8260768Y-14263865D01*
X8260768Y-14263865D02*
X8270292Y-14244817D01*
X8270292Y-14244817D02*
X8289340Y-14235293D01*
X8289340Y-14235293D02*
X8336959Y-14235293D01*
X8336959Y-14235293D02*
X8356006Y-14225770D01*
X8451245Y-14178150D02*
X8451245Y-14378150D01*
X8451245Y-14187674D02*
X8470292Y-14178150D01*
X8470292Y-14178150D02*
X8508388Y-14178150D01*
X8508388Y-14178150D02*
X8527435Y-14187674D01*
X8527435Y-14187674D02*
X8536959Y-14197198D01*
X8536959Y-14197198D02*
X8546483Y-14216246D01*
X8546483Y-14216246D02*
X8546483Y-14273389D01*
X8546483Y-14273389D02*
X8536959Y-14292436D01*
X8536959Y-14292436D02*
X8527435Y-14301960D01*
X8527435Y-14301960D02*
X8508388Y-14311484D01*
X8508388Y-14311484D02*
X8470292Y-14311484D01*
X8470292Y-14311484D02*
X8451245Y-14301960D01*
X8632197Y-14292436D02*
X8641721Y-14301960D01*
X8641721Y-14301960D02*
X8632197Y-14311484D01*
X8632197Y-14311484D02*
X8622673Y-14301960D01*
X8622673Y-14301960D02*
X8632197Y-14292436D01*
X8632197Y-14292436D02*
X8632197Y-14311484D01*
X8632197Y-14187674D02*
X8641721Y-14197198D01*
X8641721Y-14197198D02*
X8632197Y-14206722D01*
X8632197Y-14206722D02*
X8622673Y-14197198D01*
X8622673Y-14197198D02*
X8632197Y-14187674D01*
X8632197Y-14187674D02*
X8632197Y-14206722D01*
D12*
X6919992Y-14600000D02*
X6999992Y-14680000D01*
X6999992Y-14600000D02*
X6919992Y-14680000D01*
D11*
X7298864Y-14531484D02*
X7317911Y-14531484D01*
X7317911Y-14531484D02*
X7336959Y-14541008D01*
X7336959Y-14541008D02*
X7346483Y-14550531D01*
X7346483Y-14550531D02*
X7356006Y-14569579D01*
X7356006Y-14569579D02*
X7365530Y-14607674D01*
X7365530Y-14607674D02*
X7365530Y-14655293D01*
X7365530Y-14655293D02*
X7356006Y-14693389D01*
X7356006Y-14693389D02*
X7346483Y-14712436D01*
X7346483Y-14712436D02*
X7336959Y-14721960D01*
X7336959Y-14721960D02*
X7317911Y-14731484D01*
X7317911Y-14731484D02*
X7298864Y-14731484D01*
X7298864Y-14731484D02*
X7279816Y-14721960D01*
X7279816Y-14721960D02*
X7270292Y-14712436D01*
X7270292Y-14712436D02*
X7260768Y-14693389D01*
X7260768Y-14693389D02*
X7251245Y-14655293D01*
X7251245Y-14655293D02*
X7251245Y-14607674D01*
X7251245Y-14607674D02*
X7260768Y-14569579D01*
X7260768Y-14569579D02*
X7270292Y-14550531D01*
X7270292Y-14550531D02*
X7279816Y-14541008D01*
X7279816Y-14541008D02*
X7298864Y-14531484D01*
X7451245Y-14712436D02*
X7460768Y-14721960D01*
X7460768Y-14721960D02*
X7451245Y-14731484D01*
X7451245Y-14731484D02*
X7441721Y-14721960D01*
X7441721Y-14721960D02*
X7451245Y-14712436D01*
X7451245Y-14712436D02*
X7451245Y-14731484D01*
X7575054Y-14617198D02*
X7556006Y-14607674D01*
X7556006Y-14607674D02*
X7546483Y-14598150D01*
X7546483Y-14598150D02*
X7536959Y-14579103D01*
X7536959Y-14579103D02*
X7536959Y-14569579D01*
X7536959Y-14569579D02*
X7546483Y-14550531D01*
X7546483Y-14550531D02*
X7556006Y-14541008D01*
X7556006Y-14541008D02*
X7575054Y-14531484D01*
X7575054Y-14531484D02*
X7613149Y-14531484D01*
X7613149Y-14531484D02*
X7632197Y-14541008D01*
X7632197Y-14541008D02*
X7641721Y-14550531D01*
X7641721Y-14550531D02*
X7651245Y-14569579D01*
X7651245Y-14569579D02*
X7651245Y-14579103D01*
X7651245Y-14579103D02*
X7641721Y-14598150D01*
X7641721Y-14598150D02*
X7632197Y-14607674D01*
X7632197Y-14607674D02*
X7613149Y-14617198D01*
X7613149Y-14617198D02*
X7575054Y-14617198D01*
X7575054Y-14617198D02*
X7556006Y-14626722D01*
X7556006Y-14626722D02*
X7546483Y-14636246D01*
X7546483Y-14636246D02*
X7536959Y-14655293D01*
X7536959Y-14655293D02*
X7536959Y-14693389D01*
X7536959Y-14693389D02*
X7546483Y-14712436D01*
X7546483Y-14712436D02*
X7556006Y-14721960D01*
X7556006Y-14721960D02*
X7575054Y-14731484D01*
X7575054Y-14731484D02*
X7613149Y-14731484D01*
X7613149Y-14731484D02*
X7632197Y-14721960D01*
X7632197Y-14721960D02*
X7641721Y-14712436D01*
X7641721Y-14712436D02*
X7651245Y-14693389D01*
X7651245Y-14693389D02*
X7651245Y-14655293D01*
X7651245Y-14655293D02*
X7641721Y-14636246D01*
X7641721Y-14636246D02*
X7632197Y-14626722D01*
X7632197Y-14626722D02*
X7613149Y-14617198D01*
X7775054Y-14531484D02*
X7794102Y-14531484D01*
X7794102Y-14531484D02*
X7813149Y-14541008D01*
X7813149Y-14541008D02*
X7822673Y-14550531D01*
X7822673Y-14550531D02*
X7832197Y-14569579D01*
X7832197Y-14569579D02*
X7841721Y-14607674D01*
X7841721Y-14607674D02*
X7841721Y-14655293D01*
X7841721Y-14655293D02*
X7832197Y-14693389D01*
X7832197Y-14693389D02*
X7822673Y-14712436D01*
X7822673Y-14712436D02*
X7813149Y-14721960D01*
X7813149Y-14721960D02*
X7794102Y-14731484D01*
X7794102Y-14731484D02*
X7775054Y-14731484D01*
X7775054Y-14731484D02*
X7756006Y-14721960D01*
X7756006Y-14721960D02*
X7746483Y-14712436D01*
X7746483Y-14712436D02*
X7736959Y-14693389D01*
X7736959Y-14693389D02*
X7727435Y-14655293D01*
X7727435Y-14655293D02*
X7727435Y-14607674D01*
X7727435Y-14607674D02*
X7736959Y-14569579D01*
X7736959Y-14569579D02*
X7746483Y-14550531D01*
X7746483Y-14550531D02*
X7756006Y-14541008D01*
X7756006Y-14541008D02*
X7775054Y-14531484D01*
X7965530Y-14531484D02*
X7984578Y-14531484D01*
X7984578Y-14531484D02*
X8003626Y-14541008D01*
X8003626Y-14541008D02*
X8013149Y-14550531D01*
X8013149Y-14550531D02*
X8022673Y-14569579D01*
X8022673Y-14569579D02*
X8032197Y-14607674D01*
X8032197Y-14607674D02*
X8032197Y-14655293D01*
X8032197Y-14655293D02*
X8022673Y-14693389D01*
X8022673Y-14693389D02*
X8013149Y-14712436D01*
X8013149Y-14712436D02*
X8003626Y-14721960D01*
X8003626Y-14721960D02*
X7984578Y-14731484D01*
X7984578Y-14731484D02*
X7965530Y-14731484D01*
X7965530Y-14731484D02*
X7946483Y-14721960D01*
X7946483Y-14721960D02*
X7936959Y-14712436D01*
X7936959Y-14712436D02*
X7927435Y-14693389D01*
X7927435Y-14693389D02*
X7917911Y-14655293D01*
X7917911Y-14655293D02*
X7917911Y-14607674D01*
X7917911Y-14607674D02*
X7927435Y-14569579D01*
X7927435Y-14569579D02*
X7936959Y-14550531D01*
X7936959Y-14550531D02*
X7946483Y-14541008D01*
X7946483Y-14541008D02*
X7965530Y-14531484D01*
X8117911Y-14731484D02*
X8117911Y-14598150D01*
X8117911Y-14617198D02*
X8127435Y-14607674D01*
X8127435Y-14607674D02*
X8146483Y-14598150D01*
X8146483Y-14598150D02*
X8175054Y-14598150D01*
X8175054Y-14598150D02*
X8194102Y-14607674D01*
X8194102Y-14607674D02*
X8203626Y-14626722D01*
X8203626Y-14626722D02*
X8203626Y-14731484D01*
X8203626Y-14626722D02*
X8213149Y-14607674D01*
X8213149Y-14607674D02*
X8232197Y-14598150D01*
X8232197Y-14598150D02*
X8260768Y-14598150D01*
X8260768Y-14598150D02*
X8279816Y-14607674D01*
X8279816Y-14607674D02*
X8289340Y-14626722D01*
X8289340Y-14626722D02*
X8289340Y-14731484D01*
X8384578Y-14731484D02*
X8384578Y-14598150D01*
X8384578Y-14617198D02*
X8394102Y-14607674D01*
X8394102Y-14607674D02*
X8413149Y-14598150D01*
X8413149Y-14598150D02*
X8441721Y-14598150D01*
X8441721Y-14598150D02*
X8460769Y-14607674D01*
X8460769Y-14607674D02*
X8470292Y-14626722D01*
X8470292Y-14626722D02*
X8470292Y-14731484D01*
X8470292Y-14626722D02*
X8479816Y-14607674D01*
X8479816Y-14607674D02*
X8498864Y-14598150D01*
X8498864Y-14598150D02*
X8527435Y-14598150D01*
X8527435Y-14598150D02*
X8546483Y-14607674D01*
X8546483Y-14607674D02*
X8556007Y-14626722D01*
X8556007Y-14626722D02*
X8556007Y-14731484D01*
X8946483Y-14521960D02*
X8775054Y-14779103D01*
X9203626Y-14531484D02*
X9222673Y-14531484D01*
X9222673Y-14531484D02*
X9241721Y-14541008D01*
X9241721Y-14541008D02*
X9251245Y-14550531D01*
X9251245Y-14550531D02*
X9260769Y-14569579D01*
X9260769Y-14569579D02*
X9270292Y-14607674D01*
X9270292Y-14607674D02*
X9270292Y-14655293D01*
X9270292Y-14655293D02*
X9260769Y-14693389D01*
X9260769Y-14693389D02*
X9251245Y-14712436D01*
X9251245Y-14712436D02*
X9241721Y-14721960D01*
X9241721Y-14721960D02*
X9222673Y-14731484D01*
X9222673Y-14731484D02*
X9203626Y-14731484D01*
X9203626Y-14731484D02*
X9184578Y-14721960D01*
X9184578Y-14721960D02*
X9175054Y-14712436D01*
X9175054Y-14712436D02*
X9165531Y-14693389D01*
X9165531Y-14693389D02*
X9156007Y-14655293D01*
X9156007Y-14655293D02*
X9156007Y-14607674D01*
X9156007Y-14607674D02*
X9165531Y-14569579D01*
X9165531Y-14569579D02*
X9175054Y-14550531D01*
X9175054Y-14550531D02*
X9184578Y-14541008D01*
X9184578Y-14541008D02*
X9203626Y-14531484D01*
X9356007Y-14712436D02*
X9365531Y-14721960D01*
X9365531Y-14721960D02*
X9356007Y-14731484D01*
X9356007Y-14731484D02*
X9346483Y-14721960D01*
X9346483Y-14721960D02*
X9356007Y-14712436D01*
X9356007Y-14712436D02*
X9356007Y-14731484D01*
X9489340Y-14531484D02*
X9508388Y-14531484D01*
X9508388Y-14531484D02*
X9527435Y-14541008D01*
X9527435Y-14541008D02*
X9536959Y-14550531D01*
X9536959Y-14550531D02*
X9546483Y-14569579D01*
X9546483Y-14569579D02*
X9556007Y-14607674D01*
X9556007Y-14607674D02*
X9556007Y-14655293D01*
X9556007Y-14655293D02*
X9546483Y-14693389D01*
X9546483Y-14693389D02*
X9536959Y-14712436D01*
X9536959Y-14712436D02*
X9527435Y-14721960D01*
X9527435Y-14721960D02*
X9508388Y-14731484D01*
X9508388Y-14731484D02*
X9489340Y-14731484D01*
X9489340Y-14731484D02*
X9470292Y-14721960D01*
X9470292Y-14721960D02*
X9460769Y-14712436D01*
X9460769Y-14712436D02*
X9451245Y-14693389D01*
X9451245Y-14693389D02*
X9441721Y-14655293D01*
X9441721Y-14655293D02*
X9441721Y-14607674D01*
X9441721Y-14607674D02*
X9451245Y-14569579D01*
X9451245Y-14569579D02*
X9460769Y-14550531D01*
X9460769Y-14550531D02*
X9470292Y-14541008D01*
X9470292Y-14541008D02*
X9489340Y-14531484D01*
X9622673Y-14531484D02*
X9746483Y-14531484D01*
X9746483Y-14531484D02*
X9679816Y-14607674D01*
X9679816Y-14607674D02*
X9708388Y-14607674D01*
X9708388Y-14607674D02*
X9727435Y-14617198D01*
X9727435Y-14617198D02*
X9736959Y-14626722D01*
X9736959Y-14626722D02*
X9746483Y-14645770D01*
X9746483Y-14645770D02*
X9746483Y-14693389D01*
X9746483Y-14693389D02*
X9736959Y-14712436D01*
X9736959Y-14712436D02*
X9727435Y-14721960D01*
X9727435Y-14721960D02*
X9708388Y-14731484D01*
X9708388Y-14731484D02*
X9651245Y-14731484D01*
X9651245Y-14731484D02*
X9632197Y-14721960D01*
X9632197Y-14721960D02*
X9622673Y-14712436D01*
X9936959Y-14731484D02*
X9822673Y-14731484D01*
X9879816Y-14731484D02*
X9879816Y-14531484D01*
X9879816Y-14531484D02*
X9860769Y-14560055D01*
X9860769Y-14560055D02*
X9841721Y-14579103D01*
X9841721Y-14579103D02*
X9822673Y-14588627D01*
X10117912Y-14531484D02*
X10022673Y-14531484D01*
X10022673Y-14531484D02*
X10013150Y-14626722D01*
X10013150Y-14626722D02*
X10022673Y-14617198D01*
X10022673Y-14617198D02*
X10041721Y-14607674D01*
X10041721Y-14607674D02*
X10089340Y-14607674D01*
X10089340Y-14607674D02*
X10108388Y-14617198D01*
X10108388Y-14617198D02*
X10117912Y-14626722D01*
X10117912Y-14626722D02*
X10127435Y-14645770D01*
X10127435Y-14645770D02*
X10127435Y-14693389D01*
X10127435Y-14693389D02*
X10117912Y-14712436D01*
X10117912Y-14712436D02*
X10108388Y-14721960D01*
X10108388Y-14721960D02*
X10089340Y-14731484D01*
X10089340Y-14731484D02*
X10041721Y-14731484D01*
X10041721Y-14731484D02*
X10022673Y-14721960D01*
X10022673Y-14721960D02*
X10013150Y-14712436D01*
X10203626Y-14531484D02*
X10203626Y-14569579D01*
X10279816Y-14531484D02*
X10279816Y-14569579D01*
X10575055Y-14807674D02*
X10565531Y-14798150D01*
X10565531Y-14798150D02*
X10546483Y-14769579D01*
X10546483Y-14769579D02*
X10536959Y-14750531D01*
X10536959Y-14750531D02*
X10527435Y-14721960D01*
X10527435Y-14721960D02*
X10517912Y-14674341D01*
X10517912Y-14674341D02*
X10517912Y-14636246D01*
X10517912Y-14636246D02*
X10527435Y-14588627D01*
X10527435Y-14588627D02*
X10536959Y-14560055D01*
X10536959Y-14560055D02*
X10546483Y-14541008D01*
X10546483Y-14541008D02*
X10565531Y-14512436D01*
X10565531Y-14512436D02*
X10575055Y-14502912D01*
X10641721Y-14550531D02*
X10651245Y-14541008D01*
X10651245Y-14541008D02*
X10670293Y-14531484D01*
X10670293Y-14531484D02*
X10717912Y-14531484D01*
X10717912Y-14531484D02*
X10736959Y-14541008D01*
X10736959Y-14541008D02*
X10746483Y-14550531D01*
X10746483Y-14550531D02*
X10756007Y-14569579D01*
X10756007Y-14569579D02*
X10756007Y-14588627D01*
X10756007Y-14588627D02*
X10746483Y-14617198D01*
X10746483Y-14617198D02*
X10632197Y-14731484D01*
X10632197Y-14731484D02*
X10756007Y-14731484D01*
X10927435Y-14531484D02*
X10889340Y-14531484D01*
X10889340Y-14531484D02*
X10870293Y-14541008D01*
X10870293Y-14541008D02*
X10860769Y-14550531D01*
X10860769Y-14550531D02*
X10841721Y-14579103D01*
X10841721Y-14579103D02*
X10832197Y-14617198D01*
X10832197Y-14617198D02*
X10832197Y-14693389D01*
X10832197Y-14693389D02*
X10841721Y-14712436D01*
X10841721Y-14712436D02*
X10851245Y-14721960D01*
X10851245Y-14721960D02*
X10870293Y-14731484D01*
X10870293Y-14731484D02*
X10908388Y-14731484D01*
X10908388Y-14731484D02*
X10927435Y-14721960D01*
X10927435Y-14721960D02*
X10936959Y-14712436D01*
X10936959Y-14712436D02*
X10946483Y-14693389D01*
X10946483Y-14693389D02*
X10946483Y-14645770D01*
X10946483Y-14645770D02*
X10936959Y-14626722D01*
X10936959Y-14626722D02*
X10927435Y-14617198D01*
X10927435Y-14617198D02*
X10908388Y-14607674D01*
X10908388Y-14607674D02*
X10870293Y-14607674D01*
X10870293Y-14607674D02*
X10851245Y-14617198D01*
X10851245Y-14617198D02*
X10841721Y-14626722D01*
X10841721Y-14626722D02*
X10832197Y-14645770D01*
X11184578Y-14731484D02*
X11184578Y-14531484D01*
X11270293Y-14731484D02*
X11270293Y-14626722D01*
X11270293Y-14626722D02*
X11260769Y-14607674D01*
X11260769Y-14607674D02*
X11241721Y-14598150D01*
X11241721Y-14598150D02*
X11213150Y-14598150D01*
X11213150Y-14598150D02*
X11194102Y-14607674D01*
X11194102Y-14607674D02*
X11184578Y-14617198D01*
X11394102Y-14731484D02*
X11375054Y-14721960D01*
X11375054Y-14721960D02*
X11365531Y-14712436D01*
X11365531Y-14712436D02*
X11356007Y-14693389D01*
X11356007Y-14693389D02*
X11356007Y-14636246D01*
X11356007Y-14636246D02*
X11365531Y-14617198D01*
X11365531Y-14617198D02*
X11375054Y-14607674D01*
X11375054Y-14607674D02*
X11394102Y-14598150D01*
X11394102Y-14598150D02*
X11422674Y-14598150D01*
X11422674Y-14598150D02*
X11441721Y-14607674D01*
X11441721Y-14607674D02*
X11451245Y-14617198D01*
X11451245Y-14617198D02*
X11460769Y-14636246D01*
X11460769Y-14636246D02*
X11460769Y-14693389D01*
X11460769Y-14693389D02*
X11451245Y-14712436D01*
X11451245Y-14712436D02*
X11441721Y-14721960D01*
X11441721Y-14721960D02*
X11422674Y-14731484D01*
X11422674Y-14731484D02*
X11394102Y-14731484D01*
X11575054Y-14731484D02*
X11556007Y-14721960D01*
X11556007Y-14721960D02*
X11546483Y-14702912D01*
X11546483Y-14702912D02*
X11546483Y-14531484D01*
X11727435Y-14721960D02*
X11708388Y-14731484D01*
X11708388Y-14731484D02*
X11670293Y-14731484D01*
X11670293Y-14731484D02*
X11651245Y-14721960D01*
X11651245Y-14721960D02*
X11641721Y-14702912D01*
X11641721Y-14702912D02*
X11641721Y-14626722D01*
X11641721Y-14626722D02*
X11651245Y-14607674D01*
X11651245Y-14607674D02*
X11670293Y-14598150D01*
X11670293Y-14598150D02*
X11708388Y-14598150D01*
X11708388Y-14598150D02*
X11727435Y-14607674D01*
X11727435Y-14607674D02*
X11736959Y-14626722D01*
X11736959Y-14626722D02*
X11736959Y-14645770D01*
X11736959Y-14645770D02*
X11641721Y-14664817D01*
X11813150Y-14721960D02*
X11832197Y-14731484D01*
X11832197Y-14731484D02*
X11870293Y-14731484D01*
X11870293Y-14731484D02*
X11889340Y-14721960D01*
X11889340Y-14721960D02*
X11898864Y-14702912D01*
X11898864Y-14702912D02*
X11898864Y-14693389D01*
X11898864Y-14693389D02*
X11889340Y-14674341D01*
X11889340Y-14674341D02*
X11870293Y-14664817D01*
X11870293Y-14664817D02*
X11841721Y-14664817D01*
X11841721Y-14664817D02*
X11822674Y-14655293D01*
X11822674Y-14655293D02*
X11813150Y-14636246D01*
X11813150Y-14636246D02*
X11813150Y-14626722D01*
X11813150Y-14626722D02*
X11822674Y-14607674D01*
X11822674Y-14607674D02*
X11841721Y-14598150D01*
X11841721Y-14598150D02*
X11870293Y-14598150D01*
X11870293Y-14598150D02*
X11889340Y-14607674D01*
X11965531Y-14807674D02*
X11975055Y-14798150D01*
X11975055Y-14798150D02*
X11994102Y-14769579D01*
X11994102Y-14769579D02*
X12003626Y-14750531D01*
X12003626Y-14750531D02*
X12013150Y-14721960D01*
X12013150Y-14721960D02*
X12022674Y-14674341D01*
X12022674Y-14674341D02*
X12022674Y-14636246D01*
X12022674Y-14636246D02*
X12013150Y-14588627D01*
X12013150Y-14588627D02*
X12003626Y-14560055D01*
X12003626Y-14560055D02*
X11994102Y-14541008D01*
X11994102Y-14541008D02*
X11975055Y-14512436D01*
X11975055Y-14512436D02*
X11965531Y-14502912D01*
D13*
X6999992Y-14904000D02*
G75*
G03*
X6999992Y-14904000I-45000J0D01*
G01*
D11*
X7298864Y-14795484D02*
X7317911Y-14795484D01*
X7317911Y-14795484D02*
X7336959Y-14805008D01*
X7336959Y-14805008D02*
X7346483Y-14814531D01*
X7346483Y-14814531D02*
X7356006Y-14833579D01*
X7356006Y-14833579D02*
X7365530Y-14871674D01*
X7365530Y-14871674D02*
X7365530Y-14919293D01*
X7365530Y-14919293D02*
X7356006Y-14957389D01*
X7356006Y-14957389D02*
X7346483Y-14976436D01*
X7346483Y-14976436D02*
X7336959Y-14985960D01*
X7336959Y-14985960D02*
X7317911Y-14995484D01*
X7317911Y-14995484D02*
X7298864Y-14995484D01*
X7298864Y-14995484D02*
X7279816Y-14985960D01*
X7279816Y-14985960D02*
X7270292Y-14976436D01*
X7270292Y-14976436D02*
X7260768Y-14957389D01*
X7260768Y-14957389D02*
X7251245Y-14919293D01*
X7251245Y-14919293D02*
X7251245Y-14871674D01*
X7251245Y-14871674D02*
X7260768Y-14833579D01*
X7260768Y-14833579D02*
X7270292Y-14814531D01*
X7270292Y-14814531D02*
X7279816Y-14805008D01*
X7279816Y-14805008D02*
X7298864Y-14795484D01*
X7451245Y-14976436D02*
X7460768Y-14985960D01*
X7460768Y-14985960D02*
X7451245Y-14995484D01*
X7451245Y-14995484D02*
X7441721Y-14985960D01*
X7441721Y-14985960D02*
X7451245Y-14976436D01*
X7451245Y-14976436D02*
X7451245Y-14995484D01*
X7556006Y-14995484D02*
X7594102Y-14995484D01*
X7594102Y-14995484D02*
X7613149Y-14985960D01*
X7613149Y-14985960D02*
X7622673Y-14976436D01*
X7622673Y-14976436D02*
X7641721Y-14947865D01*
X7641721Y-14947865D02*
X7651245Y-14909770D01*
X7651245Y-14909770D02*
X7651245Y-14833579D01*
X7651245Y-14833579D02*
X7641721Y-14814531D01*
X7641721Y-14814531D02*
X7632197Y-14805008D01*
X7632197Y-14805008D02*
X7613149Y-14795484D01*
X7613149Y-14795484D02*
X7575054Y-14795484D01*
X7575054Y-14795484D02*
X7556006Y-14805008D01*
X7556006Y-14805008D02*
X7546483Y-14814531D01*
X7546483Y-14814531D02*
X7536959Y-14833579D01*
X7536959Y-14833579D02*
X7536959Y-14881198D01*
X7536959Y-14881198D02*
X7546483Y-14900246D01*
X7546483Y-14900246D02*
X7556006Y-14909770D01*
X7556006Y-14909770D02*
X7575054Y-14919293D01*
X7575054Y-14919293D02*
X7613149Y-14919293D01*
X7613149Y-14919293D02*
X7632197Y-14909770D01*
X7632197Y-14909770D02*
X7641721Y-14900246D01*
X7641721Y-14900246D02*
X7651245Y-14881198D01*
X7775054Y-14795484D02*
X7794102Y-14795484D01*
X7794102Y-14795484D02*
X7813149Y-14805008D01*
X7813149Y-14805008D02*
X7822673Y-14814531D01*
X7822673Y-14814531D02*
X7832197Y-14833579D01*
X7832197Y-14833579D02*
X7841721Y-14871674D01*
X7841721Y-14871674D02*
X7841721Y-14919293D01*
X7841721Y-14919293D02*
X7832197Y-14957389D01*
X7832197Y-14957389D02*
X7822673Y-14976436D01*
X7822673Y-14976436D02*
X7813149Y-14985960D01*
X7813149Y-14985960D02*
X7794102Y-14995484D01*
X7794102Y-14995484D02*
X7775054Y-14995484D01*
X7775054Y-14995484D02*
X7756006Y-14985960D01*
X7756006Y-14985960D02*
X7746483Y-14976436D01*
X7746483Y-14976436D02*
X7736959Y-14957389D01*
X7736959Y-14957389D02*
X7727435Y-14919293D01*
X7727435Y-14919293D02*
X7727435Y-14871674D01*
X7727435Y-14871674D02*
X7736959Y-14833579D01*
X7736959Y-14833579D02*
X7746483Y-14814531D01*
X7746483Y-14814531D02*
X7756006Y-14805008D01*
X7756006Y-14805008D02*
X7775054Y-14795484D01*
X7965530Y-14795484D02*
X7984578Y-14795484D01*
X7984578Y-14795484D02*
X8003626Y-14805008D01*
X8003626Y-14805008D02*
X8013149Y-14814531D01*
X8013149Y-14814531D02*
X8022673Y-14833579D01*
X8022673Y-14833579D02*
X8032197Y-14871674D01*
X8032197Y-14871674D02*
X8032197Y-14919293D01*
X8032197Y-14919293D02*
X8022673Y-14957389D01*
X8022673Y-14957389D02*
X8013149Y-14976436D01*
X8013149Y-14976436D02*
X8003626Y-14985960D01*
X8003626Y-14985960D02*
X7984578Y-14995484D01*
X7984578Y-14995484D02*
X7965530Y-14995484D01*
X7965530Y-14995484D02*
X7946483Y-14985960D01*
X7946483Y-14985960D02*
X7936959Y-14976436D01*
X7936959Y-14976436D02*
X7927435Y-14957389D01*
X7927435Y-14957389D02*
X7917911Y-14919293D01*
X7917911Y-14919293D02*
X7917911Y-14871674D01*
X7917911Y-14871674D02*
X7927435Y-14833579D01*
X7927435Y-14833579D02*
X7936959Y-14814531D01*
X7936959Y-14814531D02*
X7946483Y-14805008D01*
X7946483Y-14805008D02*
X7965530Y-14795484D01*
X8117911Y-14995484D02*
X8117911Y-14862150D01*
X8117911Y-14881198D02*
X8127435Y-14871674D01*
X8127435Y-14871674D02*
X8146483Y-14862150D01*
X8146483Y-14862150D02*
X8175054Y-14862150D01*
X8175054Y-14862150D02*
X8194102Y-14871674D01*
X8194102Y-14871674D02*
X8203626Y-14890722D01*
X8203626Y-14890722D02*
X8203626Y-14995484D01*
X8203626Y-14890722D02*
X8213149Y-14871674D01*
X8213149Y-14871674D02*
X8232197Y-14862150D01*
X8232197Y-14862150D02*
X8260768Y-14862150D01*
X8260768Y-14862150D02*
X8279816Y-14871674D01*
X8279816Y-14871674D02*
X8289340Y-14890722D01*
X8289340Y-14890722D02*
X8289340Y-14995484D01*
X8384578Y-14995484D02*
X8384578Y-14862150D01*
X8384578Y-14881198D02*
X8394102Y-14871674D01*
X8394102Y-14871674D02*
X8413149Y-14862150D01*
X8413149Y-14862150D02*
X8441721Y-14862150D01*
X8441721Y-14862150D02*
X8460769Y-14871674D01*
X8460769Y-14871674D02*
X8470292Y-14890722D01*
X8470292Y-14890722D02*
X8470292Y-14995484D01*
X8470292Y-14890722D02*
X8479816Y-14871674D01*
X8479816Y-14871674D02*
X8498864Y-14862150D01*
X8498864Y-14862150D02*
X8527435Y-14862150D01*
X8527435Y-14862150D02*
X8546483Y-14871674D01*
X8546483Y-14871674D02*
X8556007Y-14890722D01*
X8556007Y-14890722D02*
X8556007Y-14995484D01*
X8946483Y-14785960D02*
X8775054Y-15043103D01*
X9203626Y-14795484D02*
X9222673Y-14795484D01*
X9222673Y-14795484D02*
X9241721Y-14805008D01*
X9241721Y-14805008D02*
X9251245Y-14814531D01*
X9251245Y-14814531D02*
X9260769Y-14833579D01*
X9260769Y-14833579D02*
X9270292Y-14871674D01*
X9270292Y-14871674D02*
X9270292Y-14919293D01*
X9270292Y-14919293D02*
X9260769Y-14957389D01*
X9260769Y-14957389D02*
X9251245Y-14976436D01*
X9251245Y-14976436D02*
X9241721Y-14985960D01*
X9241721Y-14985960D02*
X9222673Y-14995484D01*
X9222673Y-14995484D02*
X9203626Y-14995484D01*
X9203626Y-14995484D02*
X9184578Y-14985960D01*
X9184578Y-14985960D02*
X9175054Y-14976436D01*
X9175054Y-14976436D02*
X9165531Y-14957389D01*
X9165531Y-14957389D02*
X9156007Y-14919293D01*
X9156007Y-14919293D02*
X9156007Y-14871674D01*
X9156007Y-14871674D02*
X9165531Y-14833579D01*
X9165531Y-14833579D02*
X9175054Y-14814531D01*
X9175054Y-14814531D02*
X9184578Y-14805008D01*
X9184578Y-14805008D02*
X9203626Y-14795484D01*
X9356007Y-14976436D02*
X9365531Y-14985960D01*
X9365531Y-14985960D02*
X9356007Y-14995484D01*
X9356007Y-14995484D02*
X9346483Y-14985960D01*
X9346483Y-14985960D02*
X9356007Y-14976436D01*
X9356007Y-14976436D02*
X9356007Y-14995484D01*
X9489340Y-14795484D02*
X9508388Y-14795484D01*
X9508388Y-14795484D02*
X9527435Y-14805008D01*
X9527435Y-14805008D02*
X9536959Y-14814531D01*
X9536959Y-14814531D02*
X9546483Y-14833579D01*
X9546483Y-14833579D02*
X9556007Y-14871674D01*
X9556007Y-14871674D02*
X9556007Y-14919293D01*
X9556007Y-14919293D02*
X9546483Y-14957389D01*
X9546483Y-14957389D02*
X9536959Y-14976436D01*
X9536959Y-14976436D02*
X9527435Y-14985960D01*
X9527435Y-14985960D02*
X9508388Y-14995484D01*
X9508388Y-14995484D02*
X9489340Y-14995484D01*
X9489340Y-14995484D02*
X9470292Y-14985960D01*
X9470292Y-14985960D02*
X9460769Y-14976436D01*
X9460769Y-14976436D02*
X9451245Y-14957389D01*
X9451245Y-14957389D02*
X9441721Y-14919293D01*
X9441721Y-14919293D02*
X9441721Y-14871674D01*
X9441721Y-14871674D02*
X9451245Y-14833579D01*
X9451245Y-14833579D02*
X9460769Y-14814531D01*
X9460769Y-14814531D02*
X9470292Y-14805008D01*
X9470292Y-14805008D02*
X9489340Y-14795484D01*
X9622673Y-14795484D02*
X9746483Y-14795484D01*
X9746483Y-14795484D02*
X9679816Y-14871674D01*
X9679816Y-14871674D02*
X9708388Y-14871674D01*
X9708388Y-14871674D02*
X9727435Y-14881198D01*
X9727435Y-14881198D02*
X9736959Y-14890722D01*
X9736959Y-14890722D02*
X9746483Y-14909770D01*
X9746483Y-14909770D02*
X9746483Y-14957389D01*
X9746483Y-14957389D02*
X9736959Y-14976436D01*
X9736959Y-14976436D02*
X9727435Y-14985960D01*
X9727435Y-14985960D02*
X9708388Y-14995484D01*
X9708388Y-14995484D02*
X9651245Y-14995484D01*
X9651245Y-14995484D02*
X9632197Y-14985960D01*
X9632197Y-14985960D02*
X9622673Y-14976436D01*
X9927435Y-14795484D02*
X9832197Y-14795484D01*
X9832197Y-14795484D02*
X9822673Y-14890722D01*
X9822673Y-14890722D02*
X9832197Y-14881198D01*
X9832197Y-14881198D02*
X9851245Y-14871674D01*
X9851245Y-14871674D02*
X9898864Y-14871674D01*
X9898864Y-14871674D02*
X9917912Y-14881198D01*
X9917912Y-14881198D02*
X9927435Y-14890722D01*
X9927435Y-14890722D02*
X9936959Y-14909770D01*
X9936959Y-14909770D02*
X9936959Y-14957389D01*
X9936959Y-14957389D02*
X9927435Y-14976436D01*
X9927435Y-14976436D02*
X9917912Y-14985960D01*
X9917912Y-14985960D02*
X9898864Y-14995484D01*
X9898864Y-14995484D02*
X9851245Y-14995484D01*
X9851245Y-14995484D02*
X9832197Y-14985960D01*
X9832197Y-14985960D02*
X9822673Y-14976436D01*
X10108388Y-14862150D02*
X10108388Y-14995484D01*
X10060769Y-14785960D02*
X10013150Y-14928817D01*
X10013150Y-14928817D02*
X10136959Y-14928817D01*
X10203626Y-14795484D02*
X10203626Y-14833579D01*
X10279816Y-14795484D02*
X10279816Y-14833579D01*
X10575055Y-15071674D02*
X10565531Y-15062150D01*
X10565531Y-15062150D02*
X10546483Y-15033579D01*
X10546483Y-15033579D02*
X10536959Y-15014531D01*
X10536959Y-15014531D02*
X10527435Y-14985960D01*
X10527435Y-14985960D02*
X10517912Y-14938341D01*
X10517912Y-14938341D02*
X10517912Y-14900246D01*
X10517912Y-14900246D02*
X10527435Y-14852627D01*
X10527435Y-14852627D02*
X10536959Y-14824055D01*
X10536959Y-14824055D02*
X10546483Y-14805008D01*
X10546483Y-14805008D02*
X10565531Y-14776436D01*
X10565531Y-14776436D02*
X10575055Y-14766912D01*
X10756007Y-14995484D02*
X10641721Y-14995484D01*
X10698864Y-14995484D02*
X10698864Y-14795484D01*
X10698864Y-14795484D02*
X10679816Y-14824055D01*
X10679816Y-14824055D02*
X10660769Y-14843103D01*
X10660769Y-14843103D02*
X10641721Y-14852627D01*
X10927435Y-14862150D02*
X10927435Y-14995484D01*
X10879816Y-14785960D02*
X10832197Y-14928817D01*
X10832197Y-14928817D02*
X10956007Y-14928817D01*
X11184578Y-14995484D02*
X11184578Y-14795484D01*
X11270293Y-14995484D02*
X11270293Y-14890722D01*
X11270293Y-14890722D02*
X11260769Y-14871674D01*
X11260769Y-14871674D02*
X11241721Y-14862150D01*
X11241721Y-14862150D02*
X11213150Y-14862150D01*
X11213150Y-14862150D02*
X11194102Y-14871674D01*
X11194102Y-14871674D02*
X11184578Y-14881198D01*
X11394102Y-14995484D02*
X11375054Y-14985960D01*
X11375054Y-14985960D02*
X11365531Y-14976436D01*
X11365531Y-14976436D02*
X11356007Y-14957389D01*
X11356007Y-14957389D02*
X11356007Y-14900246D01*
X11356007Y-14900246D02*
X11365531Y-14881198D01*
X11365531Y-14881198D02*
X11375054Y-14871674D01*
X11375054Y-14871674D02*
X11394102Y-14862150D01*
X11394102Y-14862150D02*
X11422674Y-14862150D01*
X11422674Y-14862150D02*
X11441721Y-14871674D01*
X11441721Y-14871674D02*
X11451245Y-14881198D01*
X11451245Y-14881198D02*
X11460769Y-14900246D01*
X11460769Y-14900246D02*
X11460769Y-14957389D01*
X11460769Y-14957389D02*
X11451245Y-14976436D01*
X11451245Y-14976436D02*
X11441721Y-14985960D01*
X11441721Y-14985960D02*
X11422674Y-14995484D01*
X11422674Y-14995484D02*
X11394102Y-14995484D01*
X11575054Y-14995484D02*
X11556007Y-14985960D01*
X11556007Y-14985960D02*
X11546483Y-14966912D01*
X11546483Y-14966912D02*
X11546483Y-14795484D01*
X11727435Y-14985960D02*
X11708388Y-14995484D01*
X11708388Y-14995484D02*
X11670293Y-14995484D01*
X11670293Y-14995484D02*
X11651245Y-14985960D01*
X11651245Y-14985960D02*
X11641721Y-14966912D01*
X11641721Y-14966912D02*
X11641721Y-14890722D01*
X11641721Y-14890722D02*
X11651245Y-14871674D01*
X11651245Y-14871674D02*
X11670293Y-14862150D01*
X11670293Y-14862150D02*
X11708388Y-14862150D01*
X11708388Y-14862150D02*
X11727435Y-14871674D01*
X11727435Y-14871674D02*
X11736959Y-14890722D01*
X11736959Y-14890722D02*
X11736959Y-14909770D01*
X11736959Y-14909770D02*
X11641721Y-14928817D01*
X11813150Y-14985960D02*
X11832197Y-14995484D01*
X11832197Y-14995484D02*
X11870293Y-14995484D01*
X11870293Y-14995484D02*
X11889340Y-14985960D01*
X11889340Y-14985960D02*
X11898864Y-14966912D01*
X11898864Y-14966912D02*
X11898864Y-14957389D01*
X11898864Y-14957389D02*
X11889340Y-14938341D01*
X11889340Y-14938341D02*
X11870293Y-14928817D01*
X11870293Y-14928817D02*
X11841721Y-14928817D01*
X11841721Y-14928817D02*
X11822674Y-14919293D01*
X11822674Y-14919293D02*
X11813150Y-14900246D01*
X11813150Y-14900246D02*
X11813150Y-14890722D01*
X11813150Y-14890722D02*
X11822674Y-14871674D01*
X11822674Y-14871674D02*
X11841721Y-14862150D01*
X11841721Y-14862150D02*
X11870293Y-14862150D01*
X11870293Y-14862150D02*
X11889340Y-14871674D01*
X11965531Y-15071674D02*
X11975055Y-15062150D01*
X11975055Y-15062150D02*
X11994102Y-15033579D01*
X11994102Y-15033579D02*
X12003626Y-15014531D01*
X12003626Y-15014531D02*
X12013150Y-14985960D01*
X12013150Y-14985960D02*
X12022674Y-14938341D01*
X12022674Y-14938341D02*
X12022674Y-14900246D01*
X12022674Y-14900246D02*
X12013150Y-14852627D01*
X12013150Y-14852627D02*
X12003626Y-14824055D01*
X12003626Y-14824055D02*
X11994102Y-14805008D01*
X11994102Y-14805008D02*
X11975055Y-14776436D01*
X11975055Y-14776436D02*
X11965531Y-14766912D01*
D14*
X6949992Y-15118000D02*
X6949992Y-15218000D01*
X6899992Y-15168000D02*
X6999992Y-15168000D01*
D11*
X7365530Y-15259484D02*
X7251245Y-15259484D01*
X7308387Y-15259484D02*
X7308387Y-15059484D01*
X7308387Y-15059484D02*
X7289340Y-15088055D01*
X7289340Y-15088055D02*
X7270292Y-15107103D01*
X7270292Y-15107103D02*
X7251245Y-15116627D01*
X7451245Y-15240436D02*
X7460768Y-15249960D01*
X7460768Y-15249960D02*
X7451245Y-15259484D01*
X7451245Y-15259484D02*
X7441721Y-15249960D01*
X7441721Y-15249960D02*
X7451245Y-15240436D01*
X7451245Y-15240436D02*
X7451245Y-15259484D01*
X7584578Y-15059484D02*
X7603626Y-15059484D01*
X7603626Y-15059484D02*
X7622673Y-15069008D01*
X7622673Y-15069008D02*
X7632197Y-15078531D01*
X7632197Y-15078531D02*
X7641721Y-15097579D01*
X7641721Y-15097579D02*
X7651245Y-15135674D01*
X7651245Y-15135674D02*
X7651245Y-15183293D01*
X7651245Y-15183293D02*
X7641721Y-15221389D01*
X7641721Y-15221389D02*
X7632197Y-15240436D01*
X7632197Y-15240436D02*
X7622673Y-15249960D01*
X7622673Y-15249960D02*
X7603626Y-15259484D01*
X7603626Y-15259484D02*
X7584578Y-15259484D01*
X7584578Y-15259484D02*
X7565530Y-15249960D01*
X7565530Y-15249960D02*
X7556006Y-15240436D01*
X7556006Y-15240436D02*
X7546483Y-15221389D01*
X7546483Y-15221389D02*
X7536959Y-15183293D01*
X7536959Y-15183293D02*
X7536959Y-15135674D01*
X7536959Y-15135674D02*
X7546483Y-15097579D01*
X7546483Y-15097579D02*
X7556006Y-15078531D01*
X7556006Y-15078531D02*
X7565530Y-15069008D01*
X7565530Y-15069008D02*
X7584578Y-15059484D01*
X7775054Y-15059484D02*
X7794102Y-15059484D01*
X7794102Y-15059484D02*
X7813149Y-15069008D01*
X7813149Y-15069008D02*
X7822673Y-15078531D01*
X7822673Y-15078531D02*
X7832197Y-15097579D01*
X7832197Y-15097579D02*
X7841721Y-15135674D01*
X7841721Y-15135674D02*
X7841721Y-15183293D01*
X7841721Y-15183293D02*
X7832197Y-15221389D01*
X7832197Y-15221389D02*
X7822673Y-15240436D01*
X7822673Y-15240436D02*
X7813149Y-15249960D01*
X7813149Y-15249960D02*
X7794102Y-15259484D01*
X7794102Y-15259484D02*
X7775054Y-15259484D01*
X7775054Y-15259484D02*
X7756006Y-15249960D01*
X7756006Y-15249960D02*
X7746483Y-15240436D01*
X7746483Y-15240436D02*
X7736959Y-15221389D01*
X7736959Y-15221389D02*
X7727435Y-15183293D01*
X7727435Y-15183293D02*
X7727435Y-15135674D01*
X7727435Y-15135674D02*
X7736959Y-15097579D01*
X7736959Y-15097579D02*
X7746483Y-15078531D01*
X7746483Y-15078531D02*
X7756006Y-15069008D01*
X7756006Y-15069008D02*
X7775054Y-15059484D01*
X7965530Y-15059484D02*
X7984578Y-15059484D01*
X7984578Y-15059484D02*
X8003626Y-15069008D01*
X8003626Y-15069008D02*
X8013149Y-15078531D01*
X8013149Y-15078531D02*
X8022673Y-15097579D01*
X8022673Y-15097579D02*
X8032197Y-15135674D01*
X8032197Y-15135674D02*
X8032197Y-15183293D01*
X8032197Y-15183293D02*
X8022673Y-15221389D01*
X8022673Y-15221389D02*
X8013149Y-15240436D01*
X8013149Y-15240436D02*
X8003626Y-15249960D01*
X8003626Y-15249960D02*
X7984578Y-15259484D01*
X7984578Y-15259484D02*
X7965530Y-15259484D01*
X7965530Y-15259484D02*
X7946483Y-15249960D01*
X7946483Y-15249960D02*
X7936959Y-15240436D01*
X7936959Y-15240436D02*
X7927435Y-15221389D01*
X7927435Y-15221389D02*
X7917911Y-15183293D01*
X7917911Y-15183293D02*
X7917911Y-15135674D01*
X7917911Y-15135674D02*
X7927435Y-15097579D01*
X7927435Y-15097579D02*
X7936959Y-15078531D01*
X7936959Y-15078531D02*
X7946483Y-15069008D01*
X7946483Y-15069008D02*
X7965530Y-15059484D01*
X8117911Y-15259484D02*
X8117911Y-15126150D01*
X8117911Y-15145198D02*
X8127435Y-15135674D01*
X8127435Y-15135674D02*
X8146483Y-15126150D01*
X8146483Y-15126150D02*
X8175054Y-15126150D01*
X8175054Y-15126150D02*
X8194102Y-15135674D01*
X8194102Y-15135674D02*
X8203626Y-15154722D01*
X8203626Y-15154722D02*
X8203626Y-15259484D01*
X8203626Y-15154722D02*
X8213149Y-15135674D01*
X8213149Y-15135674D02*
X8232197Y-15126150D01*
X8232197Y-15126150D02*
X8260768Y-15126150D01*
X8260768Y-15126150D02*
X8279816Y-15135674D01*
X8279816Y-15135674D02*
X8289340Y-15154722D01*
X8289340Y-15154722D02*
X8289340Y-15259484D01*
X8384578Y-15259484D02*
X8384578Y-15126150D01*
X8384578Y-15145198D02*
X8394102Y-15135674D01*
X8394102Y-15135674D02*
X8413149Y-15126150D01*
X8413149Y-15126150D02*
X8441721Y-15126150D01*
X8441721Y-15126150D02*
X8460769Y-15135674D01*
X8460769Y-15135674D02*
X8470292Y-15154722D01*
X8470292Y-15154722D02*
X8470292Y-15259484D01*
X8470292Y-15154722D02*
X8479816Y-15135674D01*
X8479816Y-15135674D02*
X8498864Y-15126150D01*
X8498864Y-15126150D02*
X8527435Y-15126150D01*
X8527435Y-15126150D02*
X8546483Y-15135674D01*
X8546483Y-15135674D02*
X8556007Y-15154722D01*
X8556007Y-15154722D02*
X8556007Y-15259484D01*
X8946483Y-15049960D02*
X8775054Y-15307103D01*
X9203626Y-15059484D02*
X9222673Y-15059484D01*
X9222673Y-15059484D02*
X9241721Y-15069008D01*
X9241721Y-15069008D02*
X9251245Y-15078531D01*
X9251245Y-15078531D02*
X9260769Y-15097579D01*
X9260769Y-15097579D02*
X9270292Y-15135674D01*
X9270292Y-15135674D02*
X9270292Y-15183293D01*
X9270292Y-15183293D02*
X9260769Y-15221389D01*
X9260769Y-15221389D02*
X9251245Y-15240436D01*
X9251245Y-15240436D02*
X9241721Y-15249960D01*
X9241721Y-15249960D02*
X9222673Y-15259484D01*
X9222673Y-15259484D02*
X9203626Y-15259484D01*
X9203626Y-15259484D02*
X9184578Y-15249960D01*
X9184578Y-15249960D02*
X9175054Y-15240436D01*
X9175054Y-15240436D02*
X9165531Y-15221389D01*
X9165531Y-15221389D02*
X9156007Y-15183293D01*
X9156007Y-15183293D02*
X9156007Y-15135674D01*
X9156007Y-15135674D02*
X9165531Y-15097579D01*
X9165531Y-15097579D02*
X9175054Y-15078531D01*
X9175054Y-15078531D02*
X9184578Y-15069008D01*
X9184578Y-15069008D02*
X9203626Y-15059484D01*
X9356007Y-15240436D02*
X9365531Y-15249960D01*
X9365531Y-15249960D02*
X9356007Y-15259484D01*
X9356007Y-15259484D02*
X9346483Y-15249960D01*
X9346483Y-15249960D02*
X9356007Y-15240436D01*
X9356007Y-15240436D02*
X9356007Y-15259484D01*
X9489340Y-15059484D02*
X9508388Y-15059484D01*
X9508388Y-15059484D02*
X9527435Y-15069008D01*
X9527435Y-15069008D02*
X9536959Y-15078531D01*
X9536959Y-15078531D02*
X9546483Y-15097579D01*
X9546483Y-15097579D02*
X9556007Y-15135674D01*
X9556007Y-15135674D02*
X9556007Y-15183293D01*
X9556007Y-15183293D02*
X9546483Y-15221389D01*
X9546483Y-15221389D02*
X9536959Y-15240436D01*
X9536959Y-15240436D02*
X9527435Y-15249960D01*
X9527435Y-15249960D02*
X9508388Y-15259484D01*
X9508388Y-15259484D02*
X9489340Y-15259484D01*
X9489340Y-15259484D02*
X9470292Y-15249960D01*
X9470292Y-15249960D02*
X9460769Y-15240436D01*
X9460769Y-15240436D02*
X9451245Y-15221389D01*
X9451245Y-15221389D02*
X9441721Y-15183293D01*
X9441721Y-15183293D02*
X9441721Y-15135674D01*
X9441721Y-15135674D02*
X9451245Y-15097579D01*
X9451245Y-15097579D02*
X9460769Y-15078531D01*
X9460769Y-15078531D02*
X9470292Y-15069008D01*
X9470292Y-15069008D02*
X9489340Y-15059484D01*
X9622673Y-15059484D02*
X9746483Y-15059484D01*
X9746483Y-15059484D02*
X9679816Y-15135674D01*
X9679816Y-15135674D02*
X9708388Y-15135674D01*
X9708388Y-15135674D02*
X9727435Y-15145198D01*
X9727435Y-15145198D02*
X9736959Y-15154722D01*
X9736959Y-15154722D02*
X9746483Y-15173770D01*
X9746483Y-15173770D02*
X9746483Y-15221389D01*
X9746483Y-15221389D02*
X9736959Y-15240436D01*
X9736959Y-15240436D02*
X9727435Y-15249960D01*
X9727435Y-15249960D02*
X9708388Y-15259484D01*
X9708388Y-15259484D02*
X9651245Y-15259484D01*
X9651245Y-15259484D02*
X9632197Y-15249960D01*
X9632197Y-15249960D02*
X9622673Y-15240436D01*
X9841721Y-15259484D02*
X9879816Y-15259484D01*
X9879816Y-15259484D02*
X9898864Y-15249960D01*
X9898864Y-15249960D02*
X9908388Y-15240436D01*
X9908388Y-15240436D02*
X9927435Y-15211865D01*
X9927435Y-15211865D02*
X9936959Y-15173770D01*
X9936959Y-15173770D02*
X9936959Y-15097579D01*
X9936959Y-15097579D02*
X9927435Y-15078531D01*
X9927435Y-15078531D02*
X9917912Y-15069008D01*
X9917912Y-15069008D02*
X9898864Y-15059484D01*
X9898864Y-15059484D02*
X9860769Y-15059484D01*
X9860769Y-15059484D02*
X9841721Y-15069008D01*
X9841721Y-15069008D02*
X9832197Y-15078531D01*
X9832197Y-15078531D02*
X9822673Y-15097579D01*
X9822673Y-15097579D02*
X9822673Y-15145198D01*
X9822673Y-15145198D02*
X9832197Y-15164246D01*
X9832197Y-15164246D02*
X9841721Y-15173770D01*
X9841721Y-15173770D02*
X9860769Y-15183293D01*
X9860769Y-15183293D02*
X9898864Y-15183293D01*
X9898864Y-15183293D02*
X9917912Y-15173770D01*
X9917912Y-15173770D02*
X9927435Y-15164246D01*
X9927435Y-15164246D02*
X9936959Y-15145198D01*
X10108388Y-15126150D02*
X10108388Y-15259484D01*
X10060769Y-15049960D02*
X10013150Y-15192817D01*
X10013150Y-15192817D02*
X10136959Y-15192817D01*
X10203626Y-15059484D02*
X10203626Y-15097579D01*
X10279816Y-15059484D02*
X10279816Y-15097579D01*
X10575055Y-15335674D02*
X10565531Y-15326150D01*
X10565531Y-15326150D02*
X10546483Y-15297579D01*
X10546483Y-15297579D02*
X10536959Y-15278531D01*
X10536959Y-15278531D02*
X10527435Y-15249960D01*
X10527435Y-15249960D02*
X10517912Y-15202341D01*
X10517912Y-15202341D02*
X10517912Y-15164246D01*
X10517912Y-15164246D02*
X10527435Y-15116627D01*
X10527435Y-15116627D02*
X10536959Y-15088055D01*
X10536959Y-15088055D02*
X10546483Y-15069008D01*
X10546483Y-15069008D02*
X10565531Y-15040436D01*
X10565531Y-15040436D02*
X10575055Y-15030912D01*
X10736959Y-15059484D02*
X10698864Y-15059484D01*
X10698864Y-15059484D02*
X10679816Y-15069008D01*
X10679816Y-15069008D02*
X10670293Y-15078531D01*
X10670293Y-15078531D02*
X10651245Y-15107103D01*
X10651245Y-15107103D02*
X10641721Y-15145198D01*
X10641721Y-15145198D02*
X10641721Y-15221389D01*
X10641721Y-15221389D02*
X10651245Y-15240436D01*
X10651245Y-15240436D02*
X10660769Y-15249960D01*
X10660769Y-15249960D02*
X10679816Y-15259484D01*
X10679816Y-15259484D02*
X10717912Y-15259484D01*
X10717912Y-15259484D02*
X10736959Y-15249960D01*
X10736959Y-15249960D02*
X10746483Y-15240436D01*
X10746483Y-15240436D02*
X10756007Y-15221389D01*
X10756007Y-15221389D02*
X10756007Y-15173770D01*
X10756007Y-15173770D02*
X10746483Y-15154722D01*
X10746483Y-15154722D02*
X10736959Y-15145198D01*
X10736959Y-15145198D02*
X10717912Y-15135674D01*
X10717912Y-15135674D02*
X10679816Y-15135674D01*
X10679816Y-15135674D02*
X10660769Y-15145198D01*
X10660769Y-15145198D02*
X10651245Y-15154722D01*
X10651245Y-15154722D02*
X10641721Y-15173770D01*
X10994102Y-15259484D02*
X10994102Y-15059484D01*
X11079816Y-15259484D02*
X11079816Y-15154722D01*
X11079816Y-15154722D02*
X11070293Y-15135674D01*
X11070293Y-15135674D02*
X11051245Y-15126150D01*
X11051245Y-15126150D02*
X11022674Y-15126150D01*
X11022674Y-15126150D02*
X11003626Y-15135674D01*
X11003626Y-15135674D02*
X10994102Y-15145198D01*
X11203626Y-15259484D02*
X11184578Y-15249960D01*
X11184578Y-15249960D02*
X11175055Y-15240436D01*
X11175055Y-15240436D02*
X11165531Y-15221389D01*
X11165531Y-15221389D02*
X11165531Y-15164246D01*
X11165531Y-15164246D02*
X11175055Y-15145198D01*
X11175055Y-15145198D02*
X11184578Y-15135674D01*
X11184578Y-15135674D02*
X11203626Y-15126150D01*
X11203626Y-15126150D02*
X11232197Y-15126150D01*
X11232197Y-15126150D02*
X11251245Y-15135674D01*
X11251245Y-15135674D02*
X11260769Y-15145198D01*
X11260769Y-15145198D02*
X11270293Y-15164246D01*
X11270293Y-15164246D02*
X11270293Y-15221389D01*
X11270293Y-15221389D02*
X11260769Y-15240436D01*
X11260769Y-15240436D02*
X11251245Y-15249960D01*
X11251245Y-15249960D02*
X11232197Y-15259484D01*
X11232197Y-15259484D02*
X11203626Y-15259484D01*
X11384578Y-15259484D02*
X11365531Y-15249960D01*
X11365531Y-15249960D02*
X11356007Y-15230912D01*
X11356007Y-15230912D02*
X11356007Y-15059484D01*
X11536959Y-15249960D02*
X11517912Y-15259484D01*
X11517912Y-15259484D02*
X11479816Y-15259484D01*
X11479816Y-15259484D02*
X11460769Y-15249960D01*
X11460769Y-15249960D02*
X11451245Y-15230912D01*
X11451245Y-15230912D02*
X11451245Y-15154722D01*
X11451245Y-15154722D02*
X11460769Y-15135674D01*
X11460769Y-15135674D02*
X11479816Y-15126150D01*
X11479816Y-15126150D02*
X11517912Y-15126150D01*
X11517912Y-15126150D02*
X11536959Y-15135674D01*
X11536959Y-15135674D02*
X11546483Y-15154722D01*
X11546483Y-15154722D02*
X11546483Y-15173770D01*
X11546483Y-15173770D02*
X11451245Y-15192817D01*
X11622674Y-15249960D02*
X11641721Y-15259484D01*
X11641721Y-15259484D02*
X11679816Y-15259484D01*
X11679816Y-15259484D02*
X11698864Y-15249960D01*
X11698864Y-15249960D02*
X11708388Y-15230912D01*
X11708388Y-15230912D02*
X11708388Y-15221389D01*
X11708388Y-15221389D02*
X11698864Y-15202341D01*
X11698864Y-15202341D02*
X11679816Y-15192817D01*
X11679816Y-15192817D02*
X11651245Y-15192817D01*
X11651245Y-15192817D02*
X11632197Y-15183293D01*
X11632197Y-15183293D02*
X11622674Y-15164246D01*
X11622674Y-15164246D02*
X11622674Y-15154722D01*
X11622674Y-15154722D02*
X11632197Y-15135674D01*
X11632197Y-15135674D02*
X11651245Y-15126150D01*
X11651245Y-15126150D02*
X11679816Y-15126150D01*
X11679816Y-15126150D02*
X11698864Y-15135674D01*
X11775055Y-15335674D02*
X11784578Y-15326150D01*
X11784578Y-15326150D02*
X11803626Y-15297579D01*
X11803626Y-15297579D02*
X11813150Y-15278531D01*
X11813150Y-15278531D02*
X11822674Y-15249960D01*
X11822674Y-15249960D02*
X11832197Y-15202341D01*
X11832197Y-15202341D02*
X11832197Y-15164246D01*
X11832197Y-15164246D02*
X11822674Y-15116627D01*
X11822674Y-15116627D02*
X11813150Y-15088055D01*
X11813150Y-15088055D02*
X11803626Y-15069008D01*
X11803626Y-15069008D02*
X11784578Y-15040436D01*
X11784578Y-15040436D02*
X11775055Y-15030912D01*
D15*
X6984761Y-15468770D02*
X6984761Y-15395230D01*
X6911222Y-15395230D01*
X6911222Y-15468770D01*
X6984761Y-15468770D01*
D11*
X7365530Y-15523484D02*
X7251245Y-15523484D01*
X7308387Y-15523484D02*
X7308387Y-15323484D01*
X7308387Y-15323484D02*
X7289340Y-15352055D01*
X7289340Y-15352055D02*
X7270292Y-15371103D01*
X7270292Y-15371103D02*
X7251245Y-15380627D01*
X7451245Y-15504436D02*
X7460768Y-15513960D01*
X7460768Y-15513960D02*
X7451245Y-15523484D01*
X7451245Y-15523484D02*
X7441721Y-15513960D01*
X7441721Y-15513960D02*
X7451245Y-15504436D01*
X7451245Y-15504436D02*
X7451245Y-15523484D01*
X7584578Y-15323484D02*
X7603626Y-15323484D01*
X7603626Y-15323484D02*
X7622673Y-15333008D01*
X7622673Y-15333008D02*
X7632197Y-15342531D01*
X7632197Y-15342531D02*
X7641721Y-15361579D01*
X7641721Y-15361579D02*
X7651245Y-15399674D01*
X7651245Y-15399674D02*
X7651245Y-15447293D01*
X7651245Y-15447293D02*
X7641721Y-15485389D01*
X7641721Y-15485389D02*
X7632197Y-15504436D01*
X7632197Y-15504436D02*
X7622673Y-15513960D01*
X7622673Y-15513960D02*
X7603626Y-15523484D01*
X7603626Y-15523484D02*
X7584578Y-15523484D01*
X7584578Y-15523484D02*
X7565530Y-15513960D01*
X7565530Y-15513960D02*
X7556006Y-15504436D01*
X7556006Y-15504436D02*
X7546483Y-15485389D01*
X7546483Y-15485389D02*
X7536959Y-15447293D01*
X7536959Y-15447293D02*
X7536959Y-15399674D01*
X7536959Y-15399674D02*
X7546483Y-15361579D01*
X7546483Y-15361579D02*
X7556006Y-15342531D01*
X7556006Y-15342531D02*
X7565530Y-15333008D01*
X7565530Y-15333008D02*
X7584578Y-15323484D01*
X7822673Y-15390150D02*
X7822673Y-15523484D01*
X7775054Y-15313960D02*
X7727435Y-15456817D01*
X7727435Y-15456817D02*
X7851245Y-15456817D01*
X7965530Y-15323484D02*
X7984578Y-15323484D01*
X7984578Y-15323484D02*
X8003626Y-15333008D01*
X8003626Y-15333008D02*
X8013149Y-15342531D01*
X8013149Y-15342531D02*
X8022673Y-15361579D01*
X8022673Y-15361579D02*
X8032197Y-15399674D01*
X8032197Y-15399674D02*
X8032197Y-15447293D01*
X8032197Y-15447293D02*
X8022673Y-15485389D01*
X8022673Y-15485389D02*
X8013149Y-15504436D01*
X8013149Y-15504436D02*
X8003626Y-15513960D01*
X8003626Y-15513960D02*
X7984578Y-15523484D01*
X7984578Y-15523484D02*
X7965530Y-15523484D01*
X7965530Y-15523484D02*
X7946483Y-15513960D01*
X7946483Y-15513960D02*
X7936959Y-15504436D01*
X7936959Y-15504436D02*
X7927435Y-15485389D01*
X7927435Y-15485389D02*
X7917911Y-15447293D01*
X7917911Y-15447293D02*
X7917911Y-15399674D01*
X7917911Y-15399674D02*
X7927435Y-15361579D01*
X7927435Y-15361579D02*
X7936959Y-15342531D01*
X7936959Y-15342531D02*
X7946483Y-15333008D01*
X7946483Y-15333008D02*
X7965530Y-15323484D01*
X8117911Y-15523484D02*
X8117911Y-15390150D01*
X8117911Y-15409198D02*
X8127435Y-15399674D01*
X8127435Y-15399674D02*
X8146483Y-15390150D01*
X8146483Y-15390150D02*
X8175054Y-15390150D01*
X8175054Y-15390150D02*
X8194102Y-15399674D01*
X8194102Y-15399674D02*
X8203626Y-15418722D01*
X8203626Y-15418722D02*
X8203626Y-15523484D01*
X8203626Y-15418722D02*
X8213149Y-15399674D01*
X8213149Y-15399674D02*
X8232197Y-15390150D01*
X8232197Y-15390150D02*
X8260768Y-15390150D01*
X8260768Y-15390150D02*
X8279816Y-15399674D01*
X8279816Y-15399674D02*
X8289340Y-15418722D01*
X8289340Y-15418722D02*
X8289340Y-15523484D01*
X8384578Y-15523484D02*
X8384578Y-15390150D01*
X8384578Y-15409198D02*
X8394102Y-15399674D01*
X8394102Y-15399674D02*
X8413149Y-15390150D01*
X8413149Y-15390150D02*
X8441721Y-15390150D01*
X8441721Y-15390150D02*
X8460769Y-15399674D01*
X8460769Y-15399674D02*
X8470292Y-15418722D01*
X8470292Y-15418722D02*
X8470292Y-15523484D01*
X8470292Y-15418722D02*
X8479816Y-15399674D01*
X8479816Y-15399674D02*
X8498864Y-15390150D01*
X8498864Y-15390150D02*
X8527435Y-15390150D01*
X8527435Y-15390150D02*
X8546483Y-15399674D01*
X8546483Y-15399674D02*
X8556007Y-15418722D01*
X8556007Y-15418722D02*
X8556007Y-15523484D01*
X8946483Y-15313960D02*
X8775054Y-15571103D01*
X9203626Y-15323484D02*
X9222673Y-15323484D01*
X9222673Y-15323484D02*
X9241721Y-15333008D01*
X9241721Y-15333008D02*
X9251245Y-15342531D01*
X9251245Y-15342531D02*
X9260769Y-15361579D01*
X9260769Y-15361579D02*
X9270292Y-15399674D01*
X9270292Y-15399674D02*
X9270292Y-15447293D01*
X9270292Y-15447293D02*
X9260769Y-15485389D01*
X9260769Y-15485389D02*
X9251245Y-15504436D01*
X9251245Y-15504436D02*
X9241721Y-15513960D01*
X9241721Y-15513960D02*
X9222673Y-15523484D01*
X9222673Y-15523484D02*
X9203626Y-15523484D01*
X9203626Y-15523484D02*
X9184578Y-15513960D01*
X9184578Y-15513960D02*
X9175054Y-15504436D01*
X9175054Y-15504436D02*
X9165531Y-15485389D01*
X9165531Y-15485389D02*
X9156007Y-15447293D01*
X9156007Y-15447293D02*
X9156007Y-15399674D01*
X9156007Y-15399674D02*
X9165531Y-15361579D01*
X9165531Y-15361579D02*
X9175054Y-15342531D01*
X9175054Y-15342531D02*
X9184578Y-15333008D01*
X9184578Y-15333008D02*
X9203626Y-15323484D01*
X9356007Y-15504436D02*
X9365531Y-15513960D01*
X9365531Y-15513960D02*
X9356007Y-15523484D01*
X9356007Y-15523484D02*
X9346483Y-15513960D01*
X9346483Y-15513960D02*
X9356007Y-15504436D01*
X9356007Y-15504436D02*
X9356007Y-15523484D01*
X9489340Y-15323484D02*
X9508388Y-15323484D01*
X9508388Y-15323484D02*
X9527435Y-15333008D01*
X9527435Y-15333008D02*
X9536959Y-15342531D01*
X9536959Y-15342531D02*
X9546483Y-15361579D01*
X9546483Y-15361579D02*
X9556007Y-15399674D01*
X9556007Y-15399674D02*
X9556007Y-15447293D01*
X9556007Y-15447293D02*
X9546483Y-15485389D01*
X9546483Y-15485389D02*
X9536959Y-15504436D01*
X9536959Y-15504436D02*
X9527435Y-15513960D01*
X9527435Y-15513960D02*
X9508388Y-15523484D01*
X9508388Y-15523484D02*
X9489340Y-15523484D01*
X9489340Y-15523484D02*
X9470292Y-15513960D01*
X9470292Y-15513960D02*
X9460769Y-15504436D01*
X9460769Y-15504436D02*
X9451245Y-15485389D01*
X9451245Y-15485389D02*
X9441721Y-15447293D01*
X9441721Y-15447293D02*
X9441721Y-15399674D01*
X9441721Y-15399674D02*
X9451245Y-15361579D01*
X9451245Y-15361579D02*
X9460769Y-15342531D01*
X9460769Y-15342531D02*
X9470292Y-15333008D01*
X9470292Y-15333008D02*
X9489340Y-15323484D01*
X9727435Y-15390150D02*
X9727435Y-15523484D01*
X9679816Y-15313960D02*
X9632197Y-15456817D01*
X9632197Y-15456817D02*
X9756007Y-15456817D01*
X9870292Y-15323484D02*
X9889340Y-15323484D01*
X9889340Y-15323484D02*
X9908388Y-15333008D01*
X9908388Y-15333008D02*
X9917912Y-15342531D01*
X9917912Y-15342531D02*
X9927435Y-15361579D01*
X9927435Y-15361579D02*
X9936959Y-15399674D01*
X9936959Y-15399674D02*
X9936959Y-15447293D01*
X9936959Y-15447293D02*
X9927435Y-15485389D01*
X9927435Y-15485389D02*
X9917912Y-15504436D01*
X9917912Y-15504436D02*
X9908388Y-15513960D01*
X9908388Y-15513960D02*
X9889340Y-15523484D01*
X9889340Y-15523484D02*
X9870292Y-15523484D01*
X9870292Y-15523484D02*
X9851245Y-15513960D01*
X9851245Y-15513960D02*
X9841721Y-15504436D01*
X9841721Y-15504436D02*
X9832197Y-15485389D01*
X9832197Y-15485389D02*
X9822673Y-15447293D01*
X9822673Y-15447293D02*
X9822673Y-15399674D01*
X9822673Y-15399674D02*
X9832197Y-15361579D01*
X9832197Y-15361579D02*
X9841721Y-15342531D01*
X9841721Y-15342531D02*
X9851245Y-15333008D01*
X9851245Y-15333008D02*
X9870292Y-15323484D01*
X10032197Y-15523484D02*
X10070292Y-15523484D01*
X10070292Y-15523484D02*
X10089340Y-15513960D01*
X10089340Y-15513960D02*
X10098864Y-15504436D01*
X10098864Y-15504436D02*
X10117912Y-15475865D01*
X10117912Y-15475865D02*
X10127435Y-15437770D01*
X10127435Y-15437770D02*
X10127435Y-15361579D01*
X10127435Y-15361579D02*
X10117912Y-15342531D01*
X10117912Y-15342531D02*
X10108388Y-15333008D01*
X10108388Y-15333008D02*
X10089340Y-15323484D01*
X10089340Y-15323484D02*
X10051245Y-15323484D01*
X10051245Y-15323484D02*
X10032197Y-15333008D01*
X10032197Y-15333008D02*
X10022673Y-15342531D01*
X10022673Y-15342531D02*
X10013150Y-15361579D01*
X10013150Y-15361579D02*
X10013150Y-15409198D01*
X10013150Y-15409198D02*
X10022673Y-15428246D01*
X10022673Y-15428246D02*
X10032197Y-15437770D01*
X10032197Y-15437770D02*
X10051245Y-15447293D01*
X10051245Y-15447293D02*
X10089340Y-15447293D01*
X10089340Y-15447293D02*
X10108388Y-15437770D01*
X10108388Y-15437770D02*
X10117912Y-15428246D01*
X10117912Y-15428246D02*
X10127435Y-15409198D01*
X10203626Y-15323484D02*
X10203626Y-15361579D01*
X10279816Y-15323484D02*
X10279816Y-15361579D01*
X10575055Y-15599674D02*
X10565531Y-15590150D01*
X10565531Y-15590150D02*
X10546483Y-15561579D01*
X10546483Y-15561579D02*
X10536959Y-15542531D01*
X10536959Y-15542531D02*
X10527435Y-15513960D01*
X10527435Y-15513960D02*
X10517912Y-15466341D01*
X10517912Y-15466341D02*
X10517912Y-15428246D01*
X10517912Y-15428246D02*
X10527435Y-15380627D01*
X10527435Y-15380627D02*
X10536959Y-15352055D01*
X10536959Y-15352055D02*
X10546483Y-15333008D01*
X10546483Y-15333008D02*
X10565531Y-15304436D01*
X10565531Y-15304436D02*
X10575055Y-15294912D01*
X10632197Y-15323484D02*
X10756007Y-15323484D01*
X10756007Y-15323484D02*
X10689340Y-15399674D01*
X10689340Y-15399674D02*
X10717912Y-15399674D01*
X10717912Y-15399674D02*
X10736959Y-15409198D01*
X10736959Y-15409198D02*
X10746483Y-15418722D01*
X10746483Y-15418722D02*
X10756007Y-15437770D01*
X10756007Y-15437770D02*
X10756007Y-15485389D01*
X10756007Y-15485389D02*
X10746483Y-15504436D01*
X10746483Y-15504436D02*
X10736959Y-15513960D01*
X10736959Y-15513960D02*
X10717912Y-15523484D01*
X10717912Y-15523484D02*
X10660769Y-15523484D01*
X10660769Y-15523484D02*
X10641721Y-15513960D01*
X10641721Y-15513960D02*
X10632197Y-15504436D01*
X10870293Y-15409198D02*
X10851245Y-15399674D01*
X10851245Y-15399674D02*
X10841721Y-15390150D01*
X10841721Y-15390150D02*
X10832197Y-15371103D01*
X10832197Y-15371103D02*
X10832197Y-15361579D01*
X10832197Y-15361579D02*
X10841721Y-15342531D01*
X10841721Y-15342531D02*
X10851245Y-15333008D01*
X10851245Y-15333008D02*
X10870293Y-15323484D01*
X10870293Y-15323484D02*
X10908388Y-15323484D01*
X10908388Y-15323484D02*
X10927435Y-15333008D01*
X10927435Y-15333008D02*
X10936959Y-15342531D01*
X10936959Y-15342531D02*
X10946483Y-15361579D01*
X10946483Y-15361579D02*
X10946483Y-15371103D01*
X10946483Y-15371103D02*
X10936959Y-15390150D01*
X10936959Y-15390150D02*
X10927435Y-15399674D01*
X10927435Y-15399674D02*
X10908388Y-15409198D01*
X10908388Y-15409198D02*
X10870293Y-15409198D01*
X10870293Y-15409198D02*
X10851245Y-15418722D01*
X10851245Y-15418722D02*
X10841721Y-15428246D01*
X10841721Y-15428246D02*
X10832197Y-15447293D01*
X10832197Y-15447293D02*
X10832197Y-15485389D01*
X10832197Y-15485389D02*
X10841721Y-15504436D01*
X10841721Y-15504436D02*
X10851245Y-15513960D01*
X10851245Y-15513960D02*
X10870293Y-15523484D01*
X10870293Y-15523484D02*
X10908388Y-15523484D01*
X10908388Y-15523484D02*
X10927435Y-15513960D01*
X10927435Y-15513960D02*
X10936959Y-15504436D01*
X10936959Y-15504436D02*
X10946483Y-15485389D01*
X10946483Y-15485389D02*
X10946483Y-15447293D01*
X10946483Y-15447293D02*
X10936959Y-15428246D01*
X10936959Y-15428246D02*
X10927435Y-15418722D01*
X10927435Y-15418722D02*
X10908388Y-15409198D01*
X11184578Y-15523484D02*
X11184578Y-15323484D01*
X11270293Y-15523484D02*
X11270293Y-15418722D01*
X11270293Y-15418722D02*
X11260769Y-15399674D01*
X11260769Y-15399674D02*
X11241721Y-15390150D01*
X11241721Y-15390150D02*
X11213150Y-15390150D01*
X11213150Y-15390150D02*
X11194102Y-15399674D01*
X11194102Y-15399674D02*
X11184578Y-15409198D01*
X11394102Y-15523484D02*
X11375054Y-15513960D01*
X11375054Y-15513960D02*
X11365531Y-15504436D01*
X11365531Y-15504436D02*
X11356007Y-15485389D01*
X11356007Y-15485389D02*
X11356007Y-15428246D01*
X11356007Y-15428246D02*
X11365531Y-15409198D01*
X11365531Y-15409198D02*
X11375054Y-15399674D01*
X11375054Y-15399674D02*
X11394102Y-15390150D01*
X11394102Y-15390150D02*
X11422674Y-15390150D01*
X11422674Y-15390150D02*
X11441721Y-15399674D01*
X11441721Y-15399674D02*
X11451245Y-15409198D01*
X11451245Y-15409198D02*
X11460769Y-15428246D01*
X11460769Y-15428246D02*
X11460769Y-15485389D01*
X11460769Y-15485389D02*
X11451245Y-15504436D01*
X11451245Y-15504436D02*
X11441721Y-15513960D01*
X11441721Y-15513960D02*
X11422674Y-15523484D01*
X11422674Y-15523484D02*
X11394102Y-15523484D01*
X11575054Y-15523484D02*
X11556007Y-15513960D01*
X11556007Y-15513960D02*
X11546483Y-15494912D01*
X11546483Y-15494912D02*
X11546483Y-15323484D01*
X11727435Y-15513960D02*
X11708388Y-15523484D01*
X11708388Y-15523484D02*
X11670293Y-15523484D01*
X11670293Y-15523484D02*
X11651245Y-15513960D01*
X11651245Y-15513960D02*
X11641721Y-15494912D01*
X11641721Y-15494912D02*
X11641721Y-15418722D01*
X11641721Y-15418722D02*
X11651245Y-15399674D01*
X11651245Y-15399674D02*
X11670293Y-15390150D01*
X11670293Y-15390150D02*
X11708388Y-15390150D01*
X11708388Y-15390150D02*
X11727435Y-15399674D01*
X11727435Y-15399674D02*
X11736959Y-15418722D01*
X11736959Y-15418722D02*
X11736959Y-15437770D01*
X11736959Y-15437770D02*
X11641721Y-15456817D01*
X11813150Y-15513960D02*
X11832197Y-15523484D01*
X11832197Y-15523484D02*
X11870293Y-15523484D01*
X11870293Y-15523484D02*
X11889340Y-15513960D01*
X11889340Y-15513960D02*
X11898864Y-15494912D01*
X11898864Y-15494912D02*
X11898864Y-15485389D01*
X11898864Y-15485389D02*
X11889340Y-15466341D01*
X11889340Y-15466341D02*
X11870293Y-15456817D01*
X11870293Y-15456817D02*
X11841721Y-15456817D01*
X11841721Y-15456817D02*
X11822674Y-15447293D01*
X11822674Y-15447293D02*
X11813150Y-15428246D01*
X11813150Y-15428246D02*
X11813150Y-15418722D01*
X11813150Y-15418722D02*
X11822674Y-15399674D01*
X11822674Y-15399674D02*
X11841721Y-15390150D01*
X11841721Y-15390150D02*
X11870293Y-15390150D01*
X11870293Y-15390150D02*
X11889340Y-15399674D01*
X11965531Y-15599674D02*
X11975055Y-15590150D01*
X11975055Y-15590150D02*
X11994102Y-15561579D01*
X11994102Y-15561579D02*
X12003626Y-15542531D01*
X12003626Y-15542531D02*
X12013150Y-15513960D01*
X12013150Y-15513960D02*
X12022674Y-15466341D01*
X12022674Y-15466341D02*
X12022674Y-15428246D01*
X12022674Y-15428246D02*
X12013150Y-15380627D01*
X12013150Y-15380627D02*
X12003626Y-15352055D01*
X12003626Y-15352055D02*
X11994102Y-15333008D01*
X11994102Y-15333008D02*
X11975055Y-15304436D01*
X11975055Y-15304436D02*
X11965531Y-15294912D01*
D16*
X6929992Y-15766000D02*
X6999992Y-15696000D01*
X6929992Y-15626000D01*
X6859992Y-15696000D01*
X6929992Y-15766000D01*
D11*
X7365530Y-15787484D02*
X7251245Y-15787484D01*
X7308387Y-15787484D02*
X7308387Y-15587484D01*
X7308387Y-15587484D02*
X7289340Y-15616055D01*
X7289340Y-15616055D02*
X7270292Y-15635103D01*
X7270292Y-15635103D02*
X7251245Y-15644627D01*
X7451245Y-15768436D02*
X7460768Y-15777960D01*
X7460768Y-15777960D02*
X7451245Y-15787484D01*
X7451245Y-15787484D02*
X7441721Y-15777960D01*
X7441721Y-15777960D02*
X7451245Y-15768436D01*
X7451245Y-15768436D02*
X7451245Y-15787484D01*
X7632197Y-15654150D02*
X7632197Y-15787484D01*
X7584578Y-15577960D02*
X7536959Y-15720817D01*
X7536959Y-15720817D02*
X7660768Y-15720817D01*
X7775054Y-15587484D02*
X7794102Y-15587484D01*
X7794102Y-15587484D02*
X7813149Y-15597008D01*
X7813149Y-15597008D02*
X7822673Y-15606531D01*
X7822673Y-15606531D02*
X7832197Y-15625579D01*
X7832197Y-15625579D02*
X7841721Y-15663674D01*
X7841721Y-15663674D02*
X7841721Y-15711293D01*
X7841721Y-15711293D02*
X7832197Y-15749389D01*
X7832197Y-15749389D02*
X7822673Y-15768436D01*
X7822673Y-15768436D02*
X7813149Y-15777960D01*
X7813149Y-15777960D02*
X7794102Y-15787484D01*
X7794102Y-15787484D02*
X7775054Y-15787484D01*
X7775054Y-15787484D02*
X7756006Y-15777960D01*
X7756006Y-15777960D02*
X7746483Y-15768436D01*
X7746483Y-15768436D02*
X7736959Y-15749389D01*
X7736959Y-15749389D02*
X7727435Y-15711293D01*
X7727435Y-15711293D02*
X7727435Y-15663674D01*
X7727435Y-15663674D02*
X7736959Y-15625579D01*
X7736959Y-15625579D02*
X7746483Y-15606531D01*
X7746483Y-15606531D02*
X7756006Y-15597008D01*
X7756006Y-15597008D02*
X7775054Y-15587484D01*
X7965530Y-15587484D02*
X7984578Y-15587484D01*
X7984578Y-15587484D02*
X8003626Y-15597008D01*
X8003626Y-15597008D02*
X8013149Y-15606531D01*
X8013149Y-15606531D02*
X8022673Y-15625579D01*
X8022673Y-15625579D02*
X8032197Y-15663674D01*
X8032197Y-15663674D02*
X8032197Y-15711293D01*
X8032197Y-15711293D02*
X8022673Y-15749389D01*
X8022673Y-15749389D02*
X8013149Y-15768436D01*
X8013149Y-15768436D02*
X8003626Y-15777960D01*
X8003626Y-15777960D02*
X7984578Y-15787484D01*
X7984578Y-15787484D02*
X7965530Y-15787484D01*
X7965530Y-15787484D02*
X7946483Y-15777960D01*
X7946483Y-15777960D02*
X7936959Y-15768436D01*
X7936959Y-15768436D02*
X7927435Y-15749389D01*
X7927435Y-15749389D02*
X7917911Y-15711293D01*
X7917911Y-15711293D02*
X7917911Y-15663674D01*
X7917911Y-15663674D02*
X7927435Y-15625579D01*
X7927435Y-15625579D02*
X7936959Y-15606531D01*
X7936959Y-15606531D02*
X7946483Y-15597008D01*
X7946483Y-15597008D02*
X7965530Y-15587484D01*
X8117911Y-15787484D02*
X8117911Y-15654150D01*
X8117911Y-15673198D02*
X8127435Y-15663674D01*
X8127435Y-15663674D02*
X8146483Y-15654150D01*
X8146483Y-15654150D02*
X8175054Y-15654150D01*
X8175054Y-15654150D02*
X8194102Y-15663674D01*
X8194102Y-15663674D02*
X8203626Y-15682722D01*
X8203626Y-15682722D02*
X8203626Y-15787484D01*
X8203626Y-15682722D02*
X8213149Y-15663674D01*
X8213149Y-15663674D02*
X8232197Y-15654150D01*
X8232197Y-15654150D02*
X8260768Y-15654150D01*
X8260768Y-15654150D02*
X8279816Y-15663674D01*
X8279816Y-15663674D02*
X8289340Y-15682722D01*
X8289340Y-15682722D02*
X8289340Y-15787484D01*
X8384578Y-15787484D02*
X8384578Y-15654150D01*
X8384578Y-15673198D02*
X8394102Y-15663674D01*
X8394102Y-15663674D02*
X8413149Y-15654150D01*
X8413149Y-15654150D02*
X8441721Y-15654150D01*
X8441721Y-15654150D02*
X8460769Y-15663674D01*
X8460769Y-15663674D02*
X8470292Y-15682722D01*
X8470292Y-15682722D02*
X8470292Y-15787484D01*
X8470292Y-15682722D02*
X8479816Y-15663674D01*
X8479816Y-15663674D02*
X8498864Y-15654150D01*
X8498864Y-15654150D02*
X8527435Y-15654150D01*
X8527435Y-15654150D02*
X8546483Y-15663674D01*
X8546483Y-15663674D02*
X8556007Y-15682722D01*
X8556007Y-15682722D02*
X8556007Y-15787484D01*
X8946483Y-15577960D02*
X8775054Y-15835103D01*
X9203626Y-15587484D02*
X9222673Y-15587484D01*
X9222673Y-15587484D02*
X9241721Y-15597008D01*
X9241721Y-15597008D02*
X9251245Y-15606531D01*
X9251245Y-15606531D02*
X9260769Y-15625579D01*
X9260769Y-15625579D02*
X9270292Y-15663674D01*
X9270292Y-15663674D02*
X9270292Y-15711293D01*
X9270292Y-15711293D02*
X9260769Y-15749389D01*
X9260769Y-15749389D02*
X9251245Y-15768436D01*
X9251245Y-15768436D02*
X9241721Y-15777960D01*
X9241721Y-15777960D02*
X9222673Y-15787484D01*
X9222673Y-15787484D02*
X9203626Y-15787484D01*
X9203626Y-15787484D02*
X9184578Y-15777960D01*
X9184578Y-15777960D02*
X9175054Y-15768436D01*
X9175054Y-15768436D02*
X9165531Y-15749389D01*
X9165531Y-15749389D02*
X9156007Y-15711293D01*
X9156007Y-15711293D02*
X9156007Y-15663674D01*
X9156007Y-15663674D02*
X9165531Y-15625579D01*
X9165531Y-15625579D02*
X9175054Y-15606531D01*
X9175054Y-15606531D02*
X9184578Y-15597008D01*
X9184578Y-15597008D02*
X9203626Y-15587484D01*
X9356007Y-15768436D02*
X9365531Y-15777960D01*
X9365531Y-15777960D02*
X9356007Y-15787484D01*
X9356007Y-15787484D02*
X9346483Y-15777960D01*
X9346483Y-15777960D02*
X9356007Y-15768436D01*
X9356007Y-15768436D02*
X9356007Y-15787484D01*
X9489340Y-15587484D02*
X9508388Y-15587484D01*
X9508388Y-15587484D02*
X9527435Y-15597008D01*
X9527435Y-15597008D02*
X9536959Y-15606531D01*
X9536959Y-15606531D02*
X9546483Y-15625579D01*
X9546483Y-15625579D02*
X9556007Y-15663674D01*
X9556007Y-15663674D02*
X9556007Y-15711293D01*
X9556007Y-15711293D02*
X9546483Y-15749389D01*
X9546483Y-15749389D02*
X9536959Y-15768436D01*
X9536959Y-15768436D02*
X9527435Y-15777960D01*
X9527435Y-15777960D02*
X9508388Y-15787484D01*
X9508388Y-15787484D02*
X9489340Y-15787484D01*
X9489340Y-15787484D02*
X9470292Y-15777960D01*
X9470292Y-15777960D02*
X9460769Y-15768436D01*
X9460769Y-15768436D02*
X9451245Y-15749389D01*
X9451245Y-15749389D02*
X9441721Y-15711293D01*
X9441721Y-15711293D02*
X9441721Y-15663674D01*
X9441721Y-15663674D02*
X9451245Y-15625579D01*
X9451245Y-15625579D02*
X9460769Y-15606531D01*
X9460769Y-15606531D02*
X9470292Y-15597008D01*
X9470292Y-15597008D02*
X9489340Y-15587484D01*
X9736959Y-15587484D02*
X9641721Y-15587484D01*
X9641721Y-15587484D02*
X9632197Y-15682722D01*
X9632197Y-15682722D02*
X9641721Y-15673198D01*
X9641721Y-15673198D02*
X9660769Y-15663674D01*
X9660769Y-15663674D02*
X9708388Y-15663674D01*
X9708388Y-15663674D02*
X9727435Y-15673198D01*
X9727435Y-15673198D02*
X9736959Y-15682722D01*
X9736959Y-15682722D02*
X9746483Y-15701770D01*
X9746483Y-15701770D02*
X9746483Y-15749389D01*
X9746483Y-15749389D02*
X9736959Y-15768436D01*
X9736959Y-15768436D02*
X9727435Y-15777960D01*
X9727435Y-15777960D02*
X9708388Y-15787484D01*
X9708388Y-15787484D02*
X9660769Y-15787484D01*
X9660769Y-15787484D02*
X9641721Y-15777960D01*
X9641721Y-15777960D02*
X9632197Y-15768436D01*
X9927435Y-15587484D02*
X9832197Y-15587484D01*
X9832197Y-15587484D02*
X9822673Y-15682722D01*
X9822673Y-15682722D02*
X9832197Y-15673198D01*
X9832197Y-15673198D02*
X9851245Y-15663674D01*
X9851245Y-15663674D02*
X9898864Y-15663674D01*
X9898864Y-15663674D02*
X9917912Y-15673198D01*
X9917912Y-15673198D02*
X9927435Y-15682722D01*
X9927435Y-15682722D02*
X9936959Y-15701770D01*
X9936959Y-15701770D02*
X9936959Y-15749389D01*
X9936959Y-15749389D02*
X9927435Y-15768436D01*
X9927435Y-15768436D02*
X9917912Y-15777960D01*
X9917912Y-15777960D02*
X9898864Y-15787484D01*
X9898864Y-15787484D02*
X9851245Y-15787484D01*
X9851245Y-15787484D02*
X9832197Y-15777960D01*
X9832197Y-15777960D02*
X9822673Y-15768436D01*
X10127435Y-15787484D02*
X10013150Y-15787484D01*
X10070292Y-15787484D02*
X10070292Y-15587484D01*
X10070292Y-15587484D02*
X10051245Y-15616055D01*
X10051245Y-15616055D02*
X10032197Y-15635103D01*
X10032197Y-15635103D02*
X10013150Y-15644627D01*
X10203626Y-15587484D02*
X10203626Y-15625579D01*
X10279816Y-15587484D02*
X10279816Y-15625579D01*
X10575055Y-15863674D02*
X10565531Y-15854150D01*
X10565531Y-15854150D02*
X10546483Y-15825579D01*
X10546483Y-15825579D02*
X10536959Y-15806531D01*
X10536959Y-15806531D02*
X10527435Y-15777960D01*
X10527435Y-15777960D02*
X10517912Y-15730341D01*
X10517912Y-15730341D02*
X10517912Y-15692246D01*
X10517912Y-15692246D02*
X10527435Y-15644627D01*
X10527435Y-15644627D02*
X10536959Y-15616055D01*
X10536959Y-15616055D02*
X10546483Y-15597008D01*
X10546483Y-15597008D02*
X10565531Y-15568436D01*
X10565531Y-15568436D02*
X10575055Y-15558912D01*
X10679816Y-15673198D02*
X10660769Y-15663674D01*
X10660769Y-15663674D02*
X10651245Y-15654150D01*
X10651245Y-15654150D02*
X10641721Y-15635103D01*
X10641721Y-15635103D02*
X10641721Y-15625579D01*
X10641721Y-15625579D02*
X10651245Y-15606531D01*
X10651245Y-15606531D02*
X10660769Y-15597008D01*
X10660769Y-15597008D02*
X10679816Y-15587484D01*
X10679816Y-15587484D02*
X10717912Y-15587484D01*
X10717912Y-15587484D02*
X10736959Y-15597008D01*
X10736959Y-15597008D02*
X10746483Y-15606531D01*
X10746483Y-15606531D02*
X10756007Y-15625579D01*
X10756007Y-15625579D02*
X10756007Y-15635103D01*
X10756007Y-15635103D02*
X10746483Y-15654150D01*
X10746483Y-15654150D02*
X10736959Y-15663674D01*
X10736959Y-15663674D02*
X10717912Y-15673198D01*
X10717912Y-15673198D02*
X10679816Y-15673198D01*
X10679816Y-15673198D02*
X10660769Y-15682722D01*
X10660769Y-15682722D02*
X10651245Y-15692246D01*
X10651245Y-15692246D02*
X10641721Y-15711293D01*
X10641721Y-15711293D02*
X10641721Y-15749389D01*
X10641721Y-15749389D02*
X10651245Y-15768436D01*
X10651245Y-15768436D02*
X10660769Y-15777960D01*
X10660769Y-15777960D02*
X10679816Y-15787484D01*
X10679816Y-15787484D02*
X10717912Y-15787484D01*
X10717912Y-15787484D02*
X10736959Y-15777960D01*
X10736959Y-15777960D02*
X10746483Y-15768436D01*
X10746483Y-15768436D02*
X10756007Y-15749389D01*
X10756007Y-15749389D02*
X10756007Y-15711293D01*
X10756007Y-15711293D02*
X10746483Y-15692246D01*
X10746483Y-15692246D02*
X10736959Y-15682722D01*
X10736959Y-15682722D02*
X10717912Y-15673198D01*
X10994102Y-15787484D02*
X10994102Y-15587484D01*
X11079816Y-15787484D02*
X11079816Y-15682722D01*
X11079816Y-15682722D02*
X11070293Y-15663674D01*
X11070293Y-15663674D02*
X11051245Y-15654150D01*
X11051245Y-15654150D02*
X11022674Y-15654150D01*
X11022674Y-15654150D02*
X11003626Y-15663674D01*
X11003626Y-15663674D02*
X10994102Y-15673198D01*
X11203626Y-15787484D02*
X11184578Y-15777960D01*
X11184578Y-15777960D02*
X11175055Y-15768436D01*
X11175055Y-15768436D02*
X11165531Y-15749389D01*
X11165531Y-15749389D02*
X11165531Y-15692246D01*
X11165531Y-15692246D02*
X11175055Y-15673198D01*
X11175055Y-15673198D02*
X11184578Y-15663674D01*
X11184578Y-15663674D02*
X11203626Y-15654150D01*
X11203626Y-15654150D02*
X11232197Y-15654150D01*
X11232197Y-15654150D02*
X11251245Y-15663674D01*
X11251245Y-15663674D02*
X11260769Y-15673198D01*
X11260769Y-15673198D02*
X11270293Y-15692246D01*
X11270293Y-15692246D02*
X11270293Y-15749389D01*
X11270293Y-15749389D02*
X11260769Y-15768436D01*
X11260769Y-15768436D02*
X11251245Y-15777960D01*
X11251245Y-15777960D02*
X11232197Y-15787484D01*
X11232197Y-15787484D02*
X11203626Y-15787484D01*
X11384578Y-15787484D02*
X11365531Y-15777960D01*
X11365531Y-15777960D02*
X11356007Y-15758912D01*
X11356007Y-15758912D02*
X11356007Y-15587484D01*
X11536959Y-15777960D02*
X11517912Y-15787484D01*
X11517912Y-15787484D02*
X11479816Y-15787484D01*
X11479816Y-15787484D02*
X11460769Y-15777960D01*
X11460769Y-15777960D02*
X11451245Y-15758912D01*
X11451245Y-15758912D02*
X11451245Y-15682722D01*
X11451245Y-15682722D02*
X11460769Y-15663674D01*
X11460769Y-15663674D02*
X11479816Y-15654150D01*
X11479816Y-15654150D02*
X11517912Y-15654150D01*
X11517912Y-15654150D02*
X11536959Y-15663674D01*
X11536959Y-15663674D02*
X11546483Y-15682722D01*
X11546483Y-15682722D02*
X11546483Y-15701770D01*
X11546483Y-15701770D02*
X11451245Y-15720817D01*
X11622674Y-15777960D02*
X11641721Y-15787484D01*
X11641721Y-15787484D02*
X11679816Y-15787484D01*
X11679816Y-15787484D02*
X11698864Y-15777960D01*
X11698864Y-15777960D02*
X11708388Y-15758912D01*
X11708388Y-15758912D02*
X11708388Y-15749389D01*
X11708388Y-15749389D02*
X11698864Y-15730341D01*
X11698864Y-15730341D02*
X11679816Y-15720817D01*
X11679816Y-15720817D02*
X11651245Y-15720817D01*
X11651245Y-15720817D02*
X11632197Y-15711293D01*
X11632197Y-15711293D02*
X11622674Y-15692246D01*
X11622674Y-15692246D02*
X11622674Y-15682722D01*
X11622674Y-15682722D02*
X11632197Y-15663674D01*
X11632197Y-15663674D02*
X11651245Y-15654150D01*
X11651245Y-15654150D02*
X11679816Y-15654150D01*
X11679816Y-15654150D02*
X11698864Y-15663674D01*
X11775055Y-15863674D02*
X11784578Y-15854150D01*
X11784578Y-15854150D02*
X11803626Y-15825579D01*
X11803626Y-15825579D02*
X11813150Y-15806531D01*
X11813150Y-15806531D02*
X11822674Y-15777960D01*
X11822674Y-15777960D02*
X11832197Y-15730341D01*
X11832197Y-15730341D02*
X11832197Y-15692246D01*
X11832197Y-15692246D02*
X11822674Y-15644627D01*
X11822674Y-15644627D02*
X11813150Y-15616055D01*
X11813150Y-15616055D02*
X11803626Y-15597008D01*
X11803626Y-15597008D02*
X11784578Y-15568436D01*
X11784578Y-15568436D02*
X11775055Y-15558912D01*
X6799992Y-15860000D02*
X6999992Y-16060000D01*
X6999992Y-15860000D02*
X6799992Y-16060000D01*
X6999992Y-15960000D02*
G75*
G03*
X6999992Y-15960000I-100000J0D01*
G01*
X7241721Y-15851484D02*
X7365530Y-15851484D01*
X7365530Y-15851484D02*
X7298864Y-15927674D01*
X7298864Y-15927674D02*
X7327435Y-15927674D01*
X7327435Y-15927674D02*
X7346483Y-15937198D01*
X7346483Y-15937198D02*
X7356006Y-15946722D01*
X7356006Y-15946722D02*
X7365530Y-15965770D01*
X7365530Y-15965770D02*
X7365530Y-16013389D01*
X7365530Y-16013389D02*
X7356006Y-16032436D01*
X7356006Y-16032436D02*
X7346483Y-16041960D01*
X7346483Y-16041960D02*
X7327435Y-16051484D01*
X7327435Y-16051484D02*
X7270292Y-16051484D01*
X7270292Y-16051484D02*
X7251245Y-16041960D01*
X7251245Y-16041960D02*
X7241721Y-16032436D01*
X7451245Y-16032436D02*
X7460768Y-16041960D01*
X7460768Y-16041960D02*
X7451245Y-16051484D01*
X7451245Y-16051484D02*
X7441721Y-16041960D01*
X7441721Y-16041960D02*
X7451245Y-16032436D01*
X7451245Y-16032436D02*
X7451245Y-16051484D01*
X7536959Y-15870531D02*
X7546483Y-15861008D01*
X7546483Y-15861008D02*
X7565530Y-15851484D01*
X7565530Y-15851484D02*
X7613149Y-15851484D01*
X7613149Y-15851484D02*
X7632197Y-15861008D01*
X7632197Y-15861008D02*
X7641721Y-15870531D01*
X7641721Y-15870531D02*
X7651245Y-15889579D01*
X7651245Y-15889579D02*
X7651245Y-15908627D01*
X7651245Y-15908627D02*
X7641721Y-15937198D01*
X7641721Y-15937198D02*
X7527435Y-16051484D01*
X7527435Y-16051484D02*
X7651245Y-16051484D01*
X7775054Y-15851484D02*
X7794102Y-15851484D01*
X7794102Y-15851484D02*
X7813149Y-15861008D01*
X7813149Y-15861008D02*
X7822673Y-15870531D01*
X7822673Y-15870531D02*
X7832197Y-15889579D01*
X7832197Y-15889579D02*
X7841721Y-15927674D01*
X7841721Y-15927674D02*
X7841721Y-15975293D01*
X7841721Y-15975293D02*
X7832197Y-16013389D01*
X7832197Y-16013389D02*
X7822673Y-16032436D01*
X7822673Y-16032436D02*
X7813149Y-16041960D01*
X7813149Y-16041960D02*
X7794102Y-16051484D01*
X7794102Y-16051484D02*
X7775054Y-16051484D01*
X7775054Y-16051484D02*
X7756006Y-16041960D01*
X7756006Y-16041960D02*
X7746483Y-16032436D01*
X7746483Y-16032436D02*
X7736959Y-16013389D01*
X7736959Y-16013389D02*
X7727435Y-15975293D01*
X7727435Y-15975293D02*
X7727435Y-15927674D01*
X7727435Y-15927674D02*
X7736959Y-15889579D01*
X7736959Y-15889579D02*
X7746483Y-15870531D01*
X7746483Y-15870531D02*
X7756006Y-15861008D01*
X7756006Y-15861008D02*
X7775054Y-15851484D01*
X7965530Y-15851484D02*
X7984578Y-15851484D01*
X7984578Y-15851484D02*
X8003626Y-15861008D01*
X8003626Y-15861008D02*
X8013149Y-15870531D01*
X8013149Y-15870531D02*
X8022673Y-15889579D01*
X8022673Y-15889579D02*
X8032197Y-15927674D01*
X8032197Y-15927674D02*
X8032197Y-15975293D01*
X8032197Y-15975293D02*
X8022673Y-16013389D01*
X8022673Y-16013389D02*
X8013149Y-16032436D01*
X8013149Y-16032436D02*
X8003626Y-16041960D01*
X8003626Y-16041960D02*
X7984578Y-16051484D01*
X7984578Y-16051484D02*
X7965530Y-16051484D01*
X7965530Y-16051484D02*
X7946483Y-16041960D01*
X7946483Y-16041960D02*
X7936959Y-16032436D01*
X7936959Y-16032436D02*
X7927435Y-16013389D01*
X7927435Y-16013389D02*
X7917911Y-15975293D01*
X7917911Y-15975293D02*
X7917911Y-15927674D01*
X7917911Y-15927674D02*
X7927435Y-15889579D01*
X7927435Y-15889579D02*
X7936959Y-15870531D01*
X7936959Y-15870531D02*
X7946483Y-15861008D01*
X7946483Y-15861008D02*
X7965530Y-15851484D01*
X8117911Y-16051484D02*
X8117911Y-15918150D01*
X8117911Y-15937198D02*
X8127435Y-15927674D01*
X8127435Y-15927674D02*
X8146483Y-15918150D01*
X8146483Y-15918150D02*
X8175054Y-15918150D01*
X8175054Y-15918150D02*
X8194102Y-15927674D01*
X8194102Y-15927674D02*
X8203626Y-15946722D01*
X8203626Y-15946722D02*
X8203626Y-16051484D01*
X8203626Y-15946722D02*
X8213149Y-15927674D01*
X8213149Y-15927674D02*
X8232197Y-15918150D01*
X8232197Y-15918150D02*
X8260768Y-15918150D01*
X8260768Y-15918150D02*
X8279816Y-15927674D01*
X8279816Y-15927674D02*
X8289340Y-15946722D01*
X8289340Y-15946722D02*
X8289340Y-16051484D01*
X8384578Y-16051484D02*
X8384578Y-15918150D01*
X8384578Y-15937198D02*
X8394102Y-15927674D01*
X8394102Y-15927674D02*
X8413149Y-15918150D01*
X8413149Y-15918150D02*
X8441721Y-15918150D01*
X8441721Y-15918150D02*
X8460769Y-15927674D01*
X8460769Y-15927674D02*
X8470292Y-15946722D01*
X8470292Y-15946722D02*
X8470292Y-16051484D01*
X8470292Y-15946722D02*
X8479816Y-15927674D01*
X8479816Y-15927674D02*
X8498864Y-15918150D01*
X8498864Y-15918150D02*
X8527435Y-15918150D01*
X8527435Y-15918150D02*
X8546483Y-15927674D01*
X8546483Y-15927674D02*
X8556007Y-15946722D01*
X8556007Y-15946722D02*
X8556007Y-16051484D01*
X8946483Y-15841960D02*
X8775054Y-16099103D01*
X9203626Y-15851484D02*
X9222673Y-15851484D01*
X9222673Y-15851484D02*
X9241721Y-15861008D01*
X9241721Y-15861008D02*
X9251245Y-15870531D01*
X9251245Y-15870531D02*
X9260769Y-15889579D01*
X9260769Y-15889579D02*
X9270292Y-15927674D01*
X9270292Y-15927674D02*
X9270292Y-15975293D01*
X9270292Y-15975293D02*
X9260769Y-16013389D01*
X9260769Y-16013389D02*
X9251245Y-16032436D01*
X9251245Y-16032436D02*
X9241721Y-16041960D01*
X9241721Y-16041960D02*
X9222673Y-16051484D01*
X9222673Y-16051484D02*
X9203626Y-16051484D01*
X9203626Y-16051484D02*
X9184578Y-16041960D01*
X9184578Y-16041960D02*
X9175054Y-16032436D01*
X9175054Y-16032436D02*
X9165531Y-16013389D01*
X9165531Y-16013389D02*
X9156007Y-15975293D01*
X9156007Y-15975293D02*
X9156007Y-15927674D01*
X9156007Y-15927674D02*
X9165531Y-15889579D01*
X9165531Y-15889579D02*
X9175054Y-15870531D01*
X9175054Y-15870531D02*
X9184578Y-15861008D01*
X9184578Y-15861008D02*
X9203626Y-15851484D01*
X9356007Y-16032436D02*
X9365531Y-16041960D01*
X9365531Y-16041960D02*
X9356007Y-16051484D01*
X9356007Y-16051484D02*
X9346483Y-16041960D01*
X9346483Y-16041960D02*
X9356007Y-16032436D01*
X9356007Y-16032436D02*
X9356007Y-16051484D01*
X9556007Y-16051484D02*
X9441721Y-16051484D01*
X9498864Y-16051484D02*
X9498864Y-15851484D01*
X9498864Y-15851484D02*
X9479816Y-15880055D01*
X9479816Y-15880055D02*
X9460769Y-15899103D01*
X9460769Y-15899103D02*
X9441721Y-15908627D01*
X9632197Y-15870531D02*
X9641721Y-15861008D01*
X9641721Y-15861008D02*
X9660769Y-15851484D01*
X9660769Y-15851484D02*
X9708388Y-15851484D01*
X9708388Y-15851484D02*
X9727435Y-15861008D01*
X9727435Y-15861008D02*
X9736959Y-15870531D01*
X9736959Y-15870531D02*
X9746483Y-15889579D01*
X9746483Y-15889579D02*
X9746483Y-15908627D01*
X9746483Y-15908627D02*
X9736959Y-15937198D01*
X9736959Y-15937198D02*
X9622673Y-16051484D01*
X9622673Y-16051484D02*
X9746483Y-16051484D01*
X9917912Y-15851484D02*
X9879816Y-15851484D01*
X9879816Y-15851484D02*
X9860769Y-15861008D01*
X9860769Y-15861008D02*
X9851245Y-15870531D01*
X9851245Y-15870531D02*
X9832197Y-15899103D01*
X9832197Y-15899103D02*
X9822673Y-15937198D01*
X9822673Y-15937198D02*
X9822673Y-16013389D01*
X9822673Y-16013389D02*
X9832197Y-16032436D01*
X9832197Y-16032436D02*
X9841721Y-16041960D01*
X9841721Y-16041960D02*
X9860769Y-16051484D01*
X9860769Y-16051484D02*
X9898864Y-16051484D01*
X9898864Y-16051484D02*
X9917912Y-16041960D01*
X9917912Y-16041960D02*
X9927435Y-16032436D01*
X9927435Y-16032436D02*
X9936959Y-16013389D01*
X9936959Y-16013389D02*
X9936959Y-15965770D01*
X9936959Y-15965770D02*
X9927435Y-15946722D01*
X9927435Y-15946722D02*
X9917912Y-15937198D01*
X9917912Y-15937198D02*
X9898864Y-15927674D01*
X9898864Y-15927674D02*
X9860769Y-15927674D01*
X9860769Y-15927674D02*
X9841721Y-15937198D01*
X9841721Y-15937198D02*
X9832197Y-15946722D01*
X9832197Y-15946722D02*
X9822673Y-15965770D01*
X10060769Y-15851484D02*
X10079816Y-15851484D01*
X10079816Y-15851484D02*
X10098864Y-15861008D01*
X10098864Y-15861008D02*
X10108388Y-15870531D01*
X10108388Y-15870531D02*
X10117912Y-15889579D01*
X10117912Y-15889579D02*
X10127435Y-15927674D01*
X10127435Y-15927674D02*
X10127435Y-15975293D01*
X10127435Y-15975293D02*
X10117912Y-16013389D01*
X10117912Y-16013389D02*
X10108388Y-16032436D01*
X10108388Y-16032436D02*
X10098864Y-16041960D01*
X10098864Y-16041960D02*
X10079816Y-16051484D01*
X10079816Y-16051484D02*
X10060769Y-16051484D01*
X10060769Y-16051484D02*
X10041721Y-16041960D01*
X10041721Y-16041960D02*
X10032197Y-16032436D01*
X10032197Y-16032436D02*
X10022673Y-16013389D01*
X10022673Y-16013389D02*
X10013150Y-15975293D01*
X10013150Y-15975293D02*
X10013150Y-15927674D01*
X10013150Y-15927674D02*
X10022673Y-15889579D01*
X10022673Y-15889579D02*
X10032197Y-15870531D01*
X10032197Y-15870531D02*
X10041721Y-15861008D01*
X10041721Y-15861008D02*
X10060769Y-15851484D01*
X10203626Y-15851484D02*
X10203626Y-15889579D01*
X10279816Y-15851484D02*
X10279816Y-15889579D01*
X10575055Y-16127674D02*
X10565531Y-16118150D01*
X10565531Y-16118150D02*
X10546483Y-16089579D01*
X10546483Y-16089579D02*
X10536959Y-16070531D01*
X10536959Y-16070531D02*
X10527435Y-16041960D01*
X10527435Y-16041960D02*
X10517912Y-15994341D01*
X10517912Y-15994341D02*
X10517912Y-15956246D01*
X10517912Y-15956246D02*
X10527435Y-15908627D01*
X10527435Y-15908627D02*
X10536959Y-15880055D01*
X10536959Y-15880055D02*
X10546483Y-15861008D01*
X10546483Y-15861008D02*
X10565531Y-15832436D01*
X10565531Y-15832436D02*
X10575055Y-15822912D01*
X10736959Y-15851484D02*
X10698864Y-15851484D01*
X10698864Y-15851484D02*
X10679816Y-15861008D01*
X10679816Y-15861008D02*
X10670293Y-15870531D01*
X10670293Y-15870531D02*
X10651245Y-15899103D01*
X10651245Y-15899103D02*
X10641721Y-15937198D01*
X10641721Y-15937198D02*
X10641721Y-16013389D01*
X10641721Y-16013389D02*
X10651245Y-16032436D01*
X10651245Y-16032436D02*
X10660769Y-16041960D01*
X10660769Y-16041960D02*
X10679816Y-16051484D01*
X10679816Y-16051484D02*
X10717912Y-16051484D01*
X10717912Y-16051484D02*
X10736959Y-16041960D01*
X10736959Y-16041960D02*
X10746483Y-16032436D01*
X10746483Y-16032436D02*
X10756007Y-16013389D01*
X10756007Y-16013389D02*
X10756007Y-15965770D01*
X10756007Y-15965770D02*
X10746483Y-15946722D01*
X10746483Y-15946722D02*
X10736959Y-15937198D01*
X10736959Y-15937198D02*
X10717912Y-15927674D01*
X10717912Y-15927674D02*
X10679816Y-15927674D01*
X10679816Y-15927674D02*
X10660769Y-15937198D01*
X10660769Y-15937198D02*
X10651245Y-15946722D01*
X10651245Y-15946722D02*
X10641721Y-15965770D01*
X10994102Y-16051484D02*
X10994102Y-15851484D01*
X11079816Y-16051484D02*
X11079816Y-15946722D01*
X11079816Y-15946722D02*
X11070293Y-15927674D01*
X11070293Y-15927674D02*
X11051245Y-15918150D01*
X11051245Y-15918150D02*
X11022674Y-15918150D01*
X11022674Y-15918150D02*
X11003626Y-15927674D01*
X11003626Y-15927674D02*
X10994102Y-15937198D01*
X11203626Y-16051484D02*
X11184578Y-16041960D01*
X11184578Y-16041960D02*
X11175055Y-16032436D01*
X11175055Y-16032436D02*
X11165531Y-16013389D01*
X11165531Y-16013389D02*
X11165531Y-15956246D01*
X11165531Y-15956246D02*
X11175055Y-15937198D01*
X11175055Y-15937198D02*
X11184578Y-15927674D01*
X11184578Y-15927674D02*
X11203626Y-15918150D01*
X11203626Y-15918150D02*
X11232197Y-15918150D01*
X11232197Y-15918150D02*
X11251245Y-15927674D01*
X11251245Y-15927674D02*
X11260769Y-15937198D01*
X11260769Y-15937198D02*
X11270293Y-15956246D01*
X11270293Y-15956246D02*
X11270293Y-16013389D01*
X11270293Y-16013389D02*
X11260769Y-16032436D01*
X11260769Y-16032436D02*
X11251245Y-16041960D01*
X11251245Y-16041960D02*
X11232197Y-16051484D01*
X11232197Y-16051484D02*
X11203626Y-16051484D01*
X11384578Y-16051484D02*
X11365531Y-16041960D01*
X11365531Y-16041960D02*
X11356007Y-16022912D01*
X11356007Y-16022912D02*
X11356007Y-15851484D01*
X11536959Y-16041960D02*
X11517912Y-16051484D01*
X11517912Y-16051484D02*
X11479816Y-16051484D01*
X11479816Y-16051484D02*
X11460769Y-16041960D01*
X11460769Y-16041960D02*
X11451245Y-16022912D01*
X11451245Y-16022912D02*
X11451245Y-15946722D01*
X11451245Y-15946722D02*
X11460769Y-15927674D01*
X11460769Y-15927674D02*
X11479816Y-15918150D01*
X11479816Y-15918150D02*
X11517912Y-15918150D01*
X11517912Y-15918150D02*
X11536959Y-15927674D01*
X11536959Y-15927674D02*
X11546483Y-15946722D01*
X11546483Y-15946722D02*
X11546483Y-15965770D01*
X11546483Y-15965770D02*
X11451245Y-15984817D01*
X11622674Y-16041960D02*
X11641721Y-16051484D01*
X11641721Y-16051484D02*
X11679816Y-16051484D01*
X11679816Y-16051484D02*
X11698864Y-16041960D01*
X11698864Y-16041960D02*
X11708388Y-16022912D01*
X11708388Y-16022912D02*
X11708388Y-16013389D01*
X11708388Y-16013389D02*
X11698864Y-15994341D01*
X11698864Y-15994341D02*
X11679816Y-15984817D01*
X11679816Y-15984817D02*
X11651245Y-15984817D01*
X11651245Y-15984817D02*
X11632197Y-15975293D01*
X11632197Y-15975293D02*
X11622674Y-15956246D01*
X11622674Y-15956246D02*
X11622674Y-15946722D01*
X11622674Y-15946722D02*
X11632197Y-15927674D01*
X11632197Y-15927674D02*
X11651245Y-15918150D01*
X11651245Y-15918150D02*
X11679816Y-15918150D01*
X11679816Y-15918150D02*
X11698864Y-15927674D01*
X11775055Y-16127674D02*
X11784578Y-16118150D01*
X11784578Y-16118150D02*
X11803626Y-16089579D01*
X11803626Y-16089579D02*
X11813150Y-16070531D01*
X11813150Y-16070531D02*
X11822674Y-16041960D01*
X11822674Y-16041960D02*
X11832197Y-15994341D01*
X11832197Y-15994341D02*
X11832197Y-15956246D01*
X11832197Y-15956246D02*
X11822674Y-15908627D01*
X11822674Y-15908627D02*
X11813150Y-15880055D01*
X11813150Y-15880055D02*
X11803626Y-15861008D01*
X11803626Y-15861008D02*
X11784578Y-15832436D01*
X11784578Y-15832436D02*
X11775055Y-15822912D01*
M02*
