%TF.GenerationSoftware,KiCad,Pcbnew,7.0.5*%
%TF.CreationDate,2024-08-20T20:42:19+02:00*%
%TF.ProjectId,game,67616d65-2e6b-4696-9361-645f70636258,rev?*%
%TF.SameCoordinates,Original*%
%TF.FileFunction,Soldermask,Bot*%
%TF.FilePolarity,Negative*%
%FSLAX46Y46*%
G04 Gerber Fmt 4.6, Leading zero omitted, Abs format (unit mm)*
G04 Created by KiCad (PCBNEW 7.0.5) date 2024-08-20 20:42:19*
%MOMM*%
%LPD*%
G01*
G04 APERTURE LIST*
G04 Aperture macros list*
%AMRoundRect*
0 Rectangle with rounded corners*
0 $1 Rounding radius*
0 $2 $3 $4 $5 $6 $7 $8 $9 X,Y pos of 4 corners*
0 Add a 4 corners polygon primitive as box body*
4,1,4,$2,$3,$4,$5,$6,$7,$8,$9,$2,$3,0*
0 Add four circle primitives for the rounded corners*
1,1,$1+$1,$2,$3*
1,1,$1+$1,$4,$5*
1,1,$1+$1,$6,$7*
1,1,$1+$1,$8,$9*
0 Add four rect primitives between the rounded corners*
20,1,$1+$1,$2,$3,$4,$5,0*
20,1,$1+$1,$4,$5,$6,$7,0*
20,1,$1+$1,$6,$7,$8,$9,0*
20,1,$1+$1,$8,$9,$2,$3,0*%
G04 Aperture macros list end*
%ADD10C,3.600000*%
%ADD11C,5.700000*%
%ADD12R,1.800000X1.800000*%
%ADD13C,1.800000*%
%ADD14R,2.000000X2.000000*%
%ADD15C,2.000000*%
%ADD16O,1.600000X2.000000*%
%ADD17C,2.100000*%
%ADD18C,1.600000*%
%ADD19O,1.600000X1.600000*%
%ADD20R,1.600000X1.600000*%
%ADD21RoundRect,0.102000X0.780000X0.780000X-0.780000X0.780000X-0.780000X-0.780000X0.780000X-0.780000X0*%
%ADD22C,1.764000*%
G04 APERTURE END LIST*
D10*
%TO.C,H6*%
X185000000Y-123000000D03*
D11*
X185000000Y-123000000D03*
%TD*%
D10*
%TO.C,H5*%
X185000000Y-70000000D03*
D11*
X185000000Y-70000000D03*
%TD*%
D10*
%TO.C,H3*%
X150000000Y-57000000D03*
D11*
X150000000Y-57000000D03*
%TD*%
D12*
%TO.C,yellowLED1*%
X103123854Y-101988523D03*
D13*
X105663854Y-101988523D03*
%TD*%
D10*
%TO.C,H1*%
X110000000Y-57000000D03*
D11*
X110000000Y-57000000D03*
%TD*%
D10*
%TO.C,H4*%
X75000000Y-123000000D03*
D11*
X75000000Y-123000000D03*
%TD*%
D14*
%TO.C,BZ1*%
X133355104Y-127388523D03*
D15*
X125755104Y-127388523D03*
%TD*%
D12*
%TO.C,redLED4*%
X128285102Y-94368523D03*
D13*
X130825102Y-94368523D03*
%TD*%
D12*
%TO.C,redLED3*%
X128285102Y-101988523D03*
D13*
X130825102Y-101988523D03*
%TD*%
D10*
%TO.C,H2*%
X75000000Y-70000000D03*
D11*
X75000000Y-70000000D03*
%TD*%
D12*
%TO.C,redLED2*%
X128285102Y-109608523D03*
D13*
X130825102Y-109608523D03*
%TD*%
D16*
%TO.C,Brd1*%
X125635104Y-56268523D03*
X128175104Y-56268523D03*
X130715104Y-56268523D03*
X133255104Y-56268523D03*
%TD*%
D17*
%TO.C,S1*%
X79405104Y-104488523D03*
X91905104Y-104488523D03*
X79405104Y-99488523D03*
X91905104Y-99488523D03*
%TD*%
D12*
%TO.C,redLED1*%
X128271114Y-117228523D03*
D13*
X130811114Y-117228523D03*
%TD*%
D12*
%TO.C,yellowLED2*%
X153436354Y-101988523D03*
D13*
X155976354Y-101988523D03*
%TD*%
D17*
%TO.C,S2*%
X168305104Y-104488523D03*
X180805104Y-104488523D03*
X168305104Y-99488523D03*
X180805104Y-99488523D03*
%TD*%
D12*
%TO.C,greenLED1*%
X128285102Y-86748523D03*
D13*
X130825102Y-86748523D03*
%TD*%
D18*
%TO.C,R10*%
X161061354Y-109608523D03*
D19*
X148361354Y-109608523D03*
%TD*%
D18*
%TO.C,R4*%
X123210102Y-89607412D03*
D19*
X135910102Y-89607412D03*
%TD*%
D18*
%TO.C,R7*%
X167655104Y-89288523D03*
D19*
X180355104Y-89288523D03*
%TD*%
D20*
%TO.C,C2*%
X152211354Y-81668523D03*
D18*
X157211354Y-81668523D03*
%TD*%
D21*
%TO.C,U1*%
X141967604Y-86748523D03*
D22*
X141967604Y-89288523D03*
X141967604Y-91828523D03*
X141967604Y-94368523D03*
X141967604Y-96908523D03*
X141967604Y-99448523D03*
X141967604Y-101988523D03*
X141967604Y-104528523D03*
X141967604Y-107068523D03*
X141967604Y-109608523D03*
X141967604Y-112148523D03*
X141967604Y-114688523D03*
X141967604Y-117228523D03*
X141967604Y-119768523D03*
X141967604Y-122308523D03*
X141967604Y-124848523D03*
X141967604Y-127388523D03*
X141967604Y-129928523D03*
X141967604Y-132468523D03*
X116567604Y-86748523D03*
X116567604Y-89288523D03*
X116567604Y-91828523D03*
X116567604Y-94368523D03*
X116567604Y-96908523D03*
X116567604Y-99448523D03*
X116567604Y-101988523D03*
X116567604Y-104528523D03*
X116567604Y-107068523D03*
X116567604Y-109608523D03*
X116567604Y-112148523D03*
X116567604Y-114688523D03*
X116567604Y-117228523D03*
X116567604Y-119768523D03*
X116567604Y-122308523D03*
X116567604Y-124848523D03*
X116567604Y-127388523D03*
X116567604Y-129928523D03*
X116567604Y-132468523D03*
%TD*%
D18*
%TO.C,R6*%
X91455104Y-89288523D03*
D19*
X78755104Y-89288523D03*
%TD*%
D18*
%TO.C,R1*%
X123196114Y-113424079D03*
D19*
X135896114Y-113424079D03*
%TD*%
D20*
%TO.C,C3*%
X106898854Y-81668523D03*
D18*
X101898854Y-81668523D03*
%TD*%
%TO.C,R9*%
X110748854Y-109608523D03*
D19*
X98048854Y-109608523D03*
%TD*%
D18*
%TO.C,R3*%
X123210102Y-97546301D03*
D19*
X135910102Y-97546301D03*
%TD*%
D18*
%TO.C,R8*%
X167655104Y-114688523D03*
D19*
X180355104Y-114688523D03*
%TD*%
D18*
%TO.C,R11*%
X123210102Y-81668523D03*
D19*
X135910102Y-81668523D03*
%TD*%
D18*
%TO.C,R5*%
X91455104Y-114688523D03*
D19*
X78755104Y-114688523D03*
%TD*%
D18*
%TO.C,R2*%
X123210102Y-105485190D03*
D19*
X135910102Y-105485190D03*
%TD*%
M02*
