%TF.GenerationSoftware,KiCad,Pcbnew,7.0.5*%
%TF.CreationDate,2024-08-20T20:41:47+02:00*%
%TF.ProjectId,game,67616d65-2e6b-4696-9361-645f70636258,rev?*%
%TF.SameCoordinates,Original*%
%TF.FileFunction,Profile,NP*%
%FSLAX46Y46*%
G04 Gerber Fmt 4.6, Leading zero omitted, Abs format (unit mm)*
G04 Created by KiCad (PCBNEW 7.0.5) date 2024-08-20 20:41:47*
%MOMM*%
%LPD*%
G01*
G04 APERTURE LIST*
%TA.AperFunction,Profile*%
%ADD10C,0.100000*%
%TD*%
G04 APERTURE END LIST*
D10*
X105299596Y-129519479D02*
X104937794Y-129303638D01*
X186454179Y-127783884D02*
X186685871Y-127707226D01*
X108948050Y-133532820D02*
X108748807Y-133154167D01*
X186685871Y-127707226D02*
X186913421Y-127619409D01*
X150152926Y-136216313D02*
X150202045Y-136000020D01*
X71298920Y-66638118D02*
X71141767Y-66819540D01*
X148667285Y-50054848D02*
X148423125Y-50024520D01*
X185738352Y-127945213D02*
X185980010Y-127903048D01*
X73280827Y-127696601D02*
X73513147Y-127775210D01*
X109298996Y-134319512D02*
X109131598Y-133921393D01*
X147202228Y-139625835D02*
X147396417Y-139541166D01*
X148176872Y-50006198D02*
X147928936Y-50000053D01*
X114475199Y-139995134D02*
X114696945Y-140000001D01*
X189410972Y-125354461D02*
X189520596Y-125136424D01*
X97195444Y-62735411D02*
X97569608Y-62413067D01*
X70392930Y-124946231D02*
X70493059Y-125167711D01*
X73053769Y-127607074D02*
X73280827Y-127696601D01*
X91353741Y-64987731D02*
X91846245Y-64951093D01*
X70157422Y-124249589D02*
X70224798Y-124486856D01*
X111332719Y-50054832D02*
X111091061Y-50097001D01*
X160000004Y-128000008D02*
X159556509Y-128009743D01*
X70493063Y-67832294D02*
X70392933Y-68053775D01*
X70853931Y-67204455D02*
X70723876Y-67407320D01*
X72008430Y-65993331D02*
X71819546Y-66141764D01*
X189942391Y-69238549D02*
X189898420Y-68992325D01*
X109797966Y-136000020D02*
X109847085Y-136216312D01*
X70723869Y-125592683D02*
X70853923Y-125795548D01*
X70157419Y-68750421D02*
X70101587Y-68992325D01*
X73280841Y-65303412D02*
X73053784Y-65392937D01*
X110385201Y-50292832D02*
X110157651Y-50380652D01*
X74488772Y-127974190D02*
X74742693Y-127993500D01*
X148779534Y-138593732D02*
X149069627Y-138288672D01*
X187991591Y-65993331D02*
X187795560Y-65853931D01*
X72407314Y-127276131D02*
X72616699Y-127396525D01*
X162804563Y-62735390D02*
X163192750Y-63037799D01*
X185511239Y-65025830D02*
X185257318Y-65006521D01*
X94229600Y-64414477D02*
X94684700Y-64238845D01*
X151694946Y-132428090D02*
X151465681Y-132785789D01*
X109716616Y-50589085D02*
X109503950Y-50709360D01*
X105651627Y-129750076D02*
X105299596Y-129519479D01*
X109699728Y-135567433D02*
X109583516Y-135142904D01*
X149842355Y-50380652D02*
X149614805Y-50292835D01*
X90857811Y-64998817D02*
X75000015Y-64998817D01*
X73513162Y-65224804D02*
X73280841Y-65303412D01*
X101317129Y-128086523D02*
X100882693Y-128038716D01*
X70303406Y-68280832D02*
X70224796Y-68513153D01*
X150300283Y-135567416D02*
X150202045Y-136000003D01*
X188858251Y-66819540D02*
X188701100Y-66638118D01*
X70224798Y-124486856D02*
X70303405Y-124719175D01*
X74742693Y-127993500D02*
X74999992Y-128000008D01*
X96807258Y-63037815D02*
X97195444Y-62735411D01*
X69999916Y-69999451D02*
X69999916Y-123000782D01*
X167665444Y-64890456D02*
X168153765Y-64951113D01*
X186218756Y-127849215D02*
X186454179Y-127783884D01*
X106644544Y-130526688D02*
X106324557Y-130254053D01*
X71298909Y-126361885D02*
X71464465Y-126535532D01*
X187974701Y-127018892D02*
X188168794Y-126867691D01*
X72616713Y-65603484D02*
X72407328Y-65723877D01*
X151097726Y-51132362D02*
X150903633Y-50981162D01*
X108305060Y-132428107D02*
X108061468Y-132081444D01*
X189783879Y-124454183D02*
X189849210Y-124218759D01*
X70993333Y-67008424D02*
X70853931Y-67204455D01*
X149952561Y-136840273D02*
X150027957Y-136636626D01*
X111823132Y-50006173D02*
X111576880Y-50024499D01*
X169142194Y-64998817D02*
X184999995Y-64998817D01*
X112797787Y-139625825D02*
X112995949Y-139702371D01*
X109096373Y-50981178D02*
X108902280Y-51132382D01*
X189018884Y-125974707D02*
X189159946Y-125774013D01*
X70006507Y-69742700D02*
X70000000Y-70000000D01*
X150283390Y-50589079D02*
X150065353Y-50479456D01*
X73750431Y-65157427D02*
X73513162Y-65224804D01*
X112047152Y-139240275D02*
X112228053Y-139348195D01*
X189396533Y-67616704D02*
X189276139Y-67407320D01*
X150868410Y-133921376D02*
X150701013Y-134319496D01*
X110930388Y-138288660D02*
X111072308Y-138444321D01*
X189975538Y-123494194D02*
X189993860Y-123247941D01*
X108715199Y-51293556D02*
X108535537Y-51464531D01*
X108748807Y-133154167D02*
X108534325Y-132785805D01*
X146802158Y-139770617D02*
X147004066Y-139702380D01*
X185980010Y-127903048D02*
X186218756Y-127849215D01*
X189006685Y-67008424D02*
X188858251Y-66819540D01*
X109972055Y-136636622D02*
X110047451Y-136840268D01*
X95566770Y-63821989D02*
X95992102Y-63581443D01*
X151251200Y-133154151D02*
X151051957Y-133532804D01*
X102587337Y-128339324D02*
X102169906Y-128237199D01*
X102169906Y-128237199D02*
X101746352Y-128152808D01*
X92817880Y-64806113D02*
X93295370Y-64698450D01*
X104566679Y-129102926D02*
X104186704Y-128917715D01*
X151938538Y-132081428D02*
X151694946Y-132428090D01*
X109934652Y-50479459D02*
X109716616Y-50589085D01*
X189993860Y-123247941D02*
X190000005Y-123000006D01*
X156598003Y-128595269D02*
X156201679Y-128748361D01*
X72832303Y-65493066D02*
X72616713Y-65603484D01*
X189696605Y-68280832D02*
X189607080Y-68053775D01*
X162071073Y-62071091D02*
X162430398Y-62413041D01*
X109583516Y-135142904D02*
X109449787Y-134726807D01*
X149677468Y-137422946D02*
X149777089Y-137233619D01*
X150701013Y-134319496D02*
X150550222Y-134726791D01*
X152196002Y-131746172D02*
X151938538Y-132081428D01*
X149868863Y-137039333D02*
X149952561Y-136840273D01*
X150065353Y-50479456D02*
X149842355Y-50380652D01*
X149614805Y-50292835D02*
X149383113Y-50216177D01*
X91846245Y-64951093D02*
X92334565Y-64890440D01*
X185257318Y-65006521D02*
X185000019Y-65000015D01*
X109503950Y-50709360D02*
X109297066Y-50840114D01*
X108534325Y-132785805D02*
X108305060Y-132428107D01*
X147396417Y-139541166D02*
X147586404Y-139448562D01*
X151051957Y-133532804D02*
X150868410Y-133921376D01*
X155433327Y-129102910D02*
X155062211Y-129303622D01*
X73992319Y-127898420D02*
X74238542Y-127942392D01*
X145961628Y-139956756D02*
X146176239Y-139923614D01*
X164869312Y-64041233D02*
X165315309Y-64238845D01*
X187167721Y-65493066D02*
X186946240Y-65392937D01*
X186007692Y-65101597D02*
X185761468Y-65057626D01*
X71141767Y-66819540D02*
X70993333Y-67008424D01*
X111576880Y-50024499D02*
X111332719Y-50054832D01*
X167182129Y-64806125D02*
X167665444Y-64890456D01*
X188535539Y-126535546D02*
X188706511Y-126355884D01*
X186946240Y-65392937D02*
X186719183Y-65303412D01*
X148128879Y-139124988D02*
X148465344Y-138873001D01*
X96405871Y-63319939D02*
X96807258Y-63037815D01*
X189607080Y-68053775D02*
X189506951Y-67832294D01*
X149205067Y-138126934D02*
X149333799Y-137959307D01*
X111374678Y-138736672D02*
X111534672Y-138872989D01*
X168153765Y-64951113D02*
X168646270Y-64987756D01*
X146596733Y-139830359D02*
X146802158Y-139770617D01*
X145303066Y-140000001D02*
X145524813Y-139995135D01*
X189146085Y-67204455D02*
X189006685Y-67008424D01*
X158253657Y-128152792D02*
X157830101Y-128237183D01*
X93295370Y-64698450D02*
X93766217Y-64567792D01*
X108535545Y-51465378D02*
X97929062Y-62069862D01*
X147928940Y-49999603D02*
X112071068Y-49999603D01*
X146388017Y-139881420D02*
X146596733Y-139830359D01*
X110131150Y-137039327D02*
X110222924Y-137233612D01*
X149570227Y-137607126D02*
X149677468Y-137422946D01*
X110322545Y-137422937D02*
X110429786Y-137607117D01*
X150027957Y-136636626D02*
X150094821Y-136428577D01*
X110157651Y-50380652D02*
X109934652Y-50479459D01*
X103402003Y-128595285D02*
X102998188Y-128458809D01*
X163192750Y-63037799D02*
X163594137Y-63319926D01*
X73992334Y-65101597D02*
X73750431Y-65157427D01*
X153047068Y-130812574D02*
X152466882Y-131422697D01*
X75000007Y-65000015D02*
X74742708Y-65006521D01*
X110794948Y-138126923D02*
X110930388Y-138288660D01*
X113197856Y-139770609D02*
X113403281Y-139830351D01*
X152466882Y-131422697D02*
X152196002Y-131746172D01*
X150903633Y-50981162D02*
X150702940Y-50840102D01*
X157001819Y-128458793D02*
X156598003Y-128595269D01*
X110616892Y-50216171D02*
X110385201Y-50292832D01*
X70853923Y-125795548D02*
X70993324Y-125991579D01*
X147771962Y-139348206D02*
X148128879Y-139124988D01*
X107533123Y-131422713D02*
X107249283Y-131111390D01*
X75000015Y-128000089D02*
X99999954Y-128000089D01*
X94684700Y-64238845D02*
X95130696Y-64041236D01*
X147004066Y-139702380D02*
X147202228Y-139625835D01*
X70101587Y-68992325D02*
X70057615Y-69238549D01*
X148423125Y-50024520D02*
X148176872Y-50006198D01*
X70224796Y-68513153D02*
X70157419Y-68750421D01*
X70025827Y-123511239D02*
X70057622Y-123761466D01*
X73513147Y-127775210D02*
X73750416Y-127842588D01*
X72204449Y-127146076D02*
X72407314Y-127276131D01*
X70057622Y-123761466D02*
X70101592Y-124007687D01*
X111091061Y-50097001D02*
X110852316Y-50150838D01*
X72008417Y-127006674D02*
X72204449Y-127146076D01*
X70025817Y-69488778D02*
X70006507Y-69742700D01*
X149333799Y-137959307D02*
X149455595Y-137785976D01*
X100882693Y-128038716D02*
X100443501Y-128009759D01*
X111534672Y-138872989D02*
X111700234Y-139002486D01*
X72407328Y-65723877D02*
X72204463Y-65853931D01*
X150416493Y-135142888D02*
X150300283Y-135567416D01*
X104186704Y-128917715D02*
X103798327Y-128748377D01*
X166704638Y-64698459D02*
X167182129Y-64806125D01*
X165770408Y-64414480D02*
X166233791Y-64567798D01*
X164007907Y-63581434D02*
X164433238Y-63821983D01*
X156201679Y-128748361D02*
X155813302Y-128917699D01*
X112603598Y-139541156D02*
X112797787Y-139625825D01*
X165315309Y-64238845D02*
X165770408Y-64414480D01*
X110666215Y-137959296D02*
X110794948Y-138126923D01*
X108061468Y-132081444D02*
X107804004Y-131746189D01*
X151464470Y-51464500D02*
X151284808Y-51293531D01*
X97569608Y-62413067D02*
X97928932Y-62071121D01*
X72616699Y-127396525D02*
X72832288Y-127506944D01*
X113611997Y-139881414D02*
X113823774Y-139923609D01*
X70493059Y-125167711D02*
X70603476Y-125383300D01*
X155813302Y-128917699D02*
X155433327Y-129102910D01*
X109905191Y-136428574D02*
X109972055Y-136636622D01*
X111072308Y-138444321D02*
X111220481Y-138593721D01*
X188706511Y-126355884D02*
X188867682Y-126168801D01*
X107249283Y-131111390D02*
X106952938Y-130812591D01*
X189974187Y-69488778D02*
X189942391Y-69238549D01*
X153675448Y-130254036D02*
X153047068Y-130812574D01*
X157830101Y-128237183D02*
X157412670Y-128339307D01*
X109297066Y-50840114D02*
X109096373Y-50981178D01*
X168646270Y-64987756D02*
X169142141Y-65000046D01*
X186486863Y-65224804D02*
X186249595Y-65157427D01*
X189945209Y-123738355D02*
X189975538Y-123494194D01*
X90857872Y-65000015D02*
X91353741Y-64987731D01*
X158682880Y-128086507D02*
X158253657Y-128152792D01*
X187774008Y-127159954D02*
X187974701Y-127018892D01*
X189898420Y-68992325D02*
X189842590Y-68750421D01*
X151284808Y-51293531D02*
X151097726Y-51132362D01*
X189842590Y-68750421D02*
X189775213Y-68513153D01*
X189903043Y-123980013D02*
X189945209Y-123738355D01*
X188361897Y-66298916D02*
X188180475Y-66141764D01*
X146176239Y-139923614D02*
X146388017Y-139881420D01*
X95130696Y-64041236D02*
X95566770Y-63821989D01*
X102998188Y-128458809D02*
X102587337Y-128339324D01*
X109797966Y-136000020D02*
X109699728Y-135567433D01*
X71819533Y-126858240D02*
X72008417Y-127006674D01*
X103798327Y-128748377D02*
X103402003Y-128595285D01*
X109449787Y-134726807D02*
X109298996Y-134319512D01*
X71819546Y-66141764D02*
X71638123Y-66298916D01*
X71638123Y-66298916D02*
X71464476Y-66464472D01*
X186719183Y-65303412D02*
X186486863Y-65224804D01*
X111871137Y-139124976D02*
X112047152Y-139240275D01*
X151465681Y-132785789D02*
X151251200Y-133154151D01*
X70057615Y-69238549D02*
X70025817Y-69488778D01*
X154348378Y-129750060D02*
X153675448Y-130254036D01*
X155062211Y-129303622D02*
X154348378Y-129750060D01*
X189159946Y-125774013D02*
X189290698Y-125567127D01*
X112995949Y-139702371D02*
X113197856Y-139770609D01*
X159556509Y-128009743D02*
X159117316Y-128038700D01*
X188180475Y-66141764D02*
X187991591Y-65993331D01*
X159117316Y-128038700D02*
X158682880Y-128086507D01*
X105993433Y-129995058D02*
X105651627Y-129750076D01*
X70392933Y-68053775D02*
X70303406Y-68280832D01*
X71141757Y-126180463D02*
X71298909Y-126361885D01*
X110544419Y-137785966D02*
X110666215Y-137959296D01*
X186249595Y-65157427D02*
X186007692Y-65101597D01*
X70723876Y-67407320D02*
X70603482Y-67616704D01*
X157412670Y-128339307D02*
X157001819Y-128458793D01*
X73750416Y-127842588D02*
X73992319Y-127898420D01*
X149455595Y-137785976D02*
X149570227Y-137607126D01*
X108902280Y-51132382D02*
X108715199Y-51293556D01*
X189619402Y-124913425D02*
X189707219Y-124685875D01*
X166233791Y-64567798D02*
X166704638Y-64698459D01*
X185000003Y-128000008D02*
X185247939Y-127993863D01*
X145744410Y-139980658D02*
X145961628Y-139956756D01*
X114255603Y-139980655D02*
X114475199Y-139995134D01*
X184999995Y-128000089D02*
X160000047Y-128000089D01*
X70000015Y-123000023D02*
X70006520Y-123257320D01*
X185247939Y-127993863D02*
X185494192Y-127975541D01*
X109847085Y-136216312D02*
X109905191Y-136428574D01*
X163594137Y-63319926D02*
X164007907Y-63581434D01*
X185494192Y-127975541D02*
X185738352Y-127945213D01*
X113823774Y-139923609D02*
X114038385Y-139956751D01*
X187592695Y-65723877D02*
X187383310Y-65603484D01*
X188701100Y-66638118D02*
X188535543Y-66464472D01*
X112228053Y-139348195D02*
X112413611Y-139448551D01*
X162070942Y-62069893D02*
X151464454Y-51465408D01*
X71464476Y-66464472D02*
X71298920Y-66638118D01*
X111220481Y-138593721D02*
X111374678Y-138736672D01*
X110852316Y-50150838D02*
X110616892Y-50216171D01*
X95992102Y-63581443D02*
X96405871Y-63319939D01*
X70603476Y-125383300D02*
X70723869Y-125592683D01*
X150550222Y-134726791D02*
X150416493Y-135142888D01*
X188535543Y-66464472D02*
X188361897Y-66298916D01*
X187383310Y-65603484D02*
X187167721Y-65493066D01*
X107804004Y-131746189D02*
X107533123Y-131422713D01*
X111700234Y-139002486D02*
X111871137Y-139124976D01*
X189290698Y-125567127D02*
X189410972Y-125354461D01*
X92334565Y-64890440D02*
X92817880Y-64806113D01*
X106324557Y-130254053D02*
X105993433Y-129995058D01*
X70603482Y-67616704D02*
X70493063Y-67832294D01*
X188867682Y-126168801D02*
X189018884Y-125974707D01*
X188355877Y-126706519D02*
X188535539Y-126535546D01*
X187354457Y-127410980D02*
X187567123Y-127290707D01*
X109131598Y-133921393D02*
X108948050Y-133532820D01*
X149147689Y-50150847D02*
X148908944Y-50097014D01*
X110047451Y-136840268D02*
X110131150Y-137039327D01*
X189849210Y-124218759D02*
X189903043Y-123980013D01*
X104937794Y-129303638D02*
X104566679Y-129102926D01*
X70993324Y-125991579D02*
X71141757Y-126180463D01*
X187136420Y-127520604D02*
X187354457Y-127410980D01*
X150094821Y-136428577D02*
X150152926Y-136216313D01*
X164433238Y-63821983D02*
X164869312Y-64041233D01*
X114038385Y-139956751D02*
X114255603Y-139980655D01*
X74488787Y-65025830D02*
X74238557Y-65057626D01*
X113403281Y-139830351D02*
X113611997Y-139881414D01*
X73053784Y-65392937D02*
X72832303Y-65493066D01*
X147586404Y-139448562D02*
X147771962Y-139348206D01*
X74742708Y-65006521D02*
X74488787Y-65025830D01*
X72204463Y-65853931D02*
X72008430Y-65993331D01*
X110222924Y-137233612D02*
X110322545Y-137422937D01*
X149069627Y-138288672D02*
X149205067Y-138126934D01*
X70101592Y-124007687D02*
X70157422Y-124249589D01*
X189707219Y-124685875D02*
X189783879Y-124454183D01*
X148908944Y-50097014D02*
X148667285Y-50054848D01*
X149383113Y-50216177D02*
X149147689Y-50150847D01*
X149777089Y-137233619D02*
X149868863Y-137039333D01*
X74238542Y-127942392D02*
X74488772Y-127974190D01*
X106952938Y-130812591D02*
X106644544Y-130526688D01*
X71464465Y-126535532D02*
X71638111Y-126701088D01*
X190000000Y-70000000D02*
X189993495Y-69742700D01*
X70006520Y-123257320D02*
X70025827Y-123511239D01*
X189506951Y-67832294D02*
X189396533Y-67616704D01*
X162430398Y-62413041D02*
X162804563Y-62735390D01*
X189775213Y-68513153D02*
X189696605Y-68280832D01*
X145524813Y-139995135D02*
X145744410Y-139980658D01*
X112413611Y-139448551D02*
X112603598Y-139541156D01*
X189520596Y-125136424D02*
X189619402Y-124913425D01*
X112071068Y-50000023D02*
X111823132Y-50006173D01*
X70303405Y-124719175D02*
X70392930Y-124946231D01*
X93766217Y-64567792D02*
X94229600Y-64414477D01*
X189993495Y-69742700D02*
X189974187Y-69488778D01*
X185761468Y-65057626D02*
X185511239Y-65025830D01*
X150496055Y-50709351D02*
X150283390Y-50589079D01*
X150702940Y-50840102D02*
X150496055Y-50709351D01*
X188168794Y-126867691D02*
X188355877Y-126706519D01*
X190000093Y-69999451D02*
X190000093Y-123000782D01*
X187795560Y-65853931D02*
X187592695Y-65723877D01*
X100443501Y-128009759D02*
X100000007Y-128000024D01*
X110429786Y-137607117D02*
X110544419Y-137785966D01*
X74238557Y-65057626D02*
X73992334Y-65101597D01*
X101746352Y-128152808D02*
X101317129Y-128086523D01*
X189276139Y-67407320D02*
X189146085Y-67204455D01*
X145303055Y-140000001D02*
X114696960Y-140000001D01*
X187567123Y-127290707D02*
X187774008Y-127159954D01*
X186913421Y-127619409D02*
X187136420Y-127520604D01*
X72832288Y-127506944D02*
X73053769Y-127607074D01*
X71638111Y-126701088D02*
X71819533Y-126858240D01*
X148465344Y-138873001D02*
X148779534Y-138593732D01*
M02*
