%TF.GenerationSoftware,KiCad,Pcbnew,7.0.5*%
%TF.CreationDate,2024-08-20T20:41:47+02:00*%
%TF.ProjectId,game,67616d65-2e6b-4696-9361-645f70636258,rev?*%
%TF.SameCoordinates,Original*%
%TF.FileFunction,Legend,Top*%
%TF.FilePolarity,Positive*%
%FSLAX46Y46*%
G04 Gerber Fmt 4.6, Leading zero omitted, Abs format (unit mm)*
G04 Created by KiCad (PCBNEW 7.0.5) date 2024-08-20 20:41:47*
%MOMM*%
%LPD*%
G01*
G04 APERTURE LIST*
G04 Aperture macros list*
%AMRoundRect*
0 Rectangle with rounded corners*
0 $1 Rounding radius*
0 $2 $3 $4 $5 $6 $7 $8 $9 X,Y pos of 4 corners*
0 Add a 4 corners polygon primitive as box body*
4,1,4,$2,$3,$4,$5,$6,$7,$8,$9,$2,$3,0*
0 Add four circle primitives for the rounded corners*
1,1,$1+$1,$2,$3*
1,1,$1+$1,$4,$5*
1,1,$1+$1,$6,$7*
1,1,$1+$1,$8,$9*
0 Add four rect primitives between the rounded corners*
20,1,$1+$1,$2,$3,$4,$5,0*
20,1,$1+$1,$4,$5,$6,$7,0*
20,1,$1+$1,$6,$7,$8,$9,0*
20,1,$1+$1,$8,$9,$2,$3,0*%
G04 Aperture macros list end*
%ADD10C,0.150000*%
%ADD11C,0.254000*%
%ADD12C,0.120000*%
%ADD13C,0.200000*%
%ADD14C,0.100000*%
%ADD15C,3.600000*%
%ADD16C,5.700000*%
%ADD17R,1.800000X1.800000*%
%ADD18C,1.800000*%
%ADD19R,2.000000X2.000000*%
%ADD20C,2.000000*%
%ADD21O,1.600000X2.000000*%
%ADD22C,2.100000*%
%ADD23C,1.600000*%
%ADD24O,1.600000X1.600000*%
%ADD25R,1.600000X1.600000*%
%ADD26RoundRect,0.102000X0.780000X0.780000X-0.780000X0.780000X-0.780000X-0.780000X0.780000X-0.780000X0*%
%ADD27C,1.764000*%
G04 APERTURE END LIST*
D10*
X92833332Y-69259819D02*
X92499999Y-68783628D01*
X92261904Y-69259819D02*
X92261904Y-68259819D01*
X92261904Y-68259819D02*
X92642856Y-68259819D01*
X92642856Y-68259819D02*
X92738094Y-68307438D01*
X92738094Y-68307438D02*
X92785713Y-68355057D01*
X92785713Y-68355057D02*
X92833332Y-68450295D01*
X92833332Y-68450295D02*
X92833332Y-68593152D01*
X92833332Y-68593152D02*
X92785713Y-68688390D01*
X92785713Y-68688390D02*
X92738094Y-68736009D01*
X92738094Y-68736009D02*
X92642856Y-68783628D01*
X92642856Y-68783628D02*
X92261904Y-68783628D01*
X93642856Y-69212200D02*
X93547618Y-69259819D01*
X93547618Y-69259819D02*
X93357142Y-69259819D01*
X93357142Y-69259819D02*
X93261904Y-69212200D01*
X93261904Y-69212200D02*
X93214285Y-69116961D01*
X93214285Y-69116961D02*
X93214285Y-68736009D01*
X93214285Y-68736009D02*
X93261904Y-68640771D01*
X93261904Y-68640771D02*
X93357142Y-68593152D01*
X93357142Y-68593152D02*
X93547618Y-68593152D01*
X93547618Y-68593152D02*
X93642856Y-68640771D01*
X93642856Y-68640771D02*
X93690475Y-68736009D01*
X93690475Y-68736009D02*
X93690475Y-68831247D01*
X93690475Y-68831247D02*
X93214285Y-68926485D01*
X93976190Y-68593152D02*
X94357142Y-68593152D01*
X94119047Y-69259819D02*
X94119047Y-68402676D01*
X94119047Y-68402676D02*
X94166666Y-68307438D01*
X94166666Y-68307438D02*
X94261904Y-68259819D01*
X94261904Y-68259819D02*
X94357142Y-68259819D01*
X94833333Y-69259819D02*
X94738095Y-69212200D01*
X94738095Y-69212200D02*
X94690476Y-69116961D01*
X94690476Y-69116961D02*
X94690476Y-68259819D01*
X95595238Y-69212200D02*
X95500000Y-69259819D01*
X95500000Y-69259819D02*
X95309524Y-69259819D01*
X95309524Y-69259819D02*
X95214286Y-69212200D01*
X95214286Y-69212200D02*
X95166667Y-69116961D01*
X95166667Y-69116961D02*
X95166667Y-68736009D01*
X95166667Y-68736009D02*
X95214286Y-68640771D01*
X95214286Y-68640771D02*
X95309524Y-68593152D01*
X95309524Y-68593152D02*
X95500000Y-68593152D01*
X95500000Y-68593152D02*
X95595238Y-68640771D01*
X95595238Y-68640771D02*
X95642857Y-68736009D01*
X95642857Y-68736009D02*
X95642857Y-68831247D01*
X95642857Y-68831247D02*
X95166667Y-68926485D01*
X95976191Y-69259819D02*
X96500000Y-68593152D01*
X95976191Y-68593152D02*
X96500000Y-69259819D01*
X98166667Y-68307438D02*
X98071429Y-68259819D01*
X98071429Y-68259819D02*
X97928572Y-68259819D01*
X97928572Y-68259819D02*
X97785715Y-68307438D01*
X97785715Y-68307438D02*
X97690477Y-68402676D01*
X97690477Y-68402676D02*
X97642858Y-68497914D01*
X97642858Y-68497914D02*
X97595239Y-68688390D01*
X97595239Y-68688390D02*
X97595239Y-68831247D01*
X97595239Y-68831247D02*
X97642858Y-69021723D01*
X97642858Y-69021723D02*
X97690477Y-69116961D01*
X97690477Y-69116961D02*
X97785715Y-69212200D01*
X97785715Y-69212200D02*
X97928572Y-69259819D01*
X97928572Y-69259819D02*
X98023810Y-69259819D01*
X98023810Y-69259819D02*
X98166667Y-69212200D01*
X98166667Y-69212200D02*
X98214286Y-69164580D01*
X98214286Y-69164580D02*
X98214286Y-68831247D01*
X98214286Y-68831247D02*
X98023810Y-68831247D01*
X99071429Y-69259819D02*
X99071429Y-68736009D01*
X99071429Y-68736009D02*
X99023810Y-68640771D01*
X99023810Y-68640771D02*
X98928572Y-68593152D01*
X98928572Y-68593152D02*
X98738096Y-68593152D01*
X98738096Y-68593152D02*
X98642858Y-68640771D01*
X99071429Y-69212200D02*
X98976191Y-69259819D01*
X98976191Y-69259819D02*
X98738096Y-69259819D01*
X98738096Y-69259819D02*
X98642858Y-69212200D01*
X98642858Y-69212200D02*
X98595239Y-69116961D01*
X98595239Y-69116961D02*
X98595239Y-69021723D01*
X98595239Y-69021723D02*
X98642858Y-68926485D01*
X98642858Y-68926485D02*
X98738096Y-68878866D01*
X98738096Y-68878866D02*
X98976191Y-68878866D01*
X98976191Y-68878866D02*
X99071429Y-68831247D01*
X99547620Y-69259819D02*
X99547620Y-68593152D01*
X99547620Y-68688390D02*
X99595239Y-68640771D01*
X99595239Y-68640771D02*
X99690477Y-68593152D01*
X99690477Y-68593152D02*
X99833334Y-68593152D01*
X99833334Y-68593152D02*
X99928572Y-68640771D01*
X99928572Y-68640771D02*
X99976191Y-68736009D01*
X99976191Y-68736009D02*
X99976191Y-69259819D01*
X99976191Y-68736009D02*
X100023810Y-68640771D01*
X100023810Y-68640771D02*
X100119048Y-68593152D01*
X100119048Y-68593152D02*
X100261905Y-68593152D01*
X100261905Y-68593152D02*
X100357144Y-68640771D01*
X100357144Y-68640771D02*
X100404763Y-68736009D01*
X100404763Y-68736009D02*
X100404763Y-69259819D01*
X101261905Y-69212200D02*
X101166667Y-69259819D01*
X101166667Y-69259819D02*
X100976191Y-69259819D01*
X100976191Y-69259819D02*
X100880953Y-69212200D01*
X100880953Y-69212200D02*
X100833334Y-69116961D01*
X100833334Y-69116961D02*
X100833334Y-68736009D01*
X100833334Y-68736009D02*
X100880953Y-68640771D01*
X100880953Y-68640771D02*
X100976191Y-68593152D01*
X100976191Y-68593152D02*
X101166667Y-68593152D01*
X101166667Y-68593152D02*
X101261905Y-68640771D01*
X101261905Y-68640771D02*
X101309524Y-68736009D01*
X101309524Y-68736009D02*
X101309524Y-68831247D01*
X101309524Y-68831247D02*
X100833334Y-68926485D01*
X102404763Y-68593152D02*
X102642858Y-69259819D01*
X102642858Y-69259819D02*
X102880953Y-68593152D01*
X103785715Y-69259819D02*
X103214287Y-69259819D01*
X103500001Y-69259819D02*
X103500001Y-68259819D01*
X103500001Y-68259819D02*
X103404763Y-68402676D01*
X103404763Y-68402676D02*
X103309525Y-68497914D01*
X103309525Y-68497914D02*
X103214287Y-68545533D01*
X88261903Y-70774580D02*
X88214284Y-70822200D01*
X88214284Y-70822200D02*
X88071427Y-70869819D01*
X88071427Y-70869819D02*
X87976189Y-70869819D01*
X87976189Y-70869819D02*
X87833332Y-70822200D01*
X87833332Y-70822200D02*
X87738094Y-70726961D01*
X87738094Y-70726961D02*
X87690475Y-70631723D01*
X87690475Y-70631723D02*
X87642856Y-70441247D01*
X87642856Y-70441247D02*
X87642856Y-70298390D01*
X87642856Y-70298390D02*
X87690475Y-70107914D01*
X87690475Y-70107914D02*
X87738094Y-70012676D01*
X87738094Y-70012676D02*
X87833332Y-69917438D01*
X87833332Y-69917438D02*
X87976189Y-69869819D01*
X87976189Y-69869819D02*
X88071427Y-69869819D01*
X88071427Y-69869819D02*
X88214284Y-69917438D01*
X88214284Y-69917438D02*
X88261903Y-69965057D01*
X89071427Y-70822200D02*
X88976189Y-70869819D01*
X88976189Y-70869819D02*
X88785713Y-70869819D01*
X88785713Y-70869819D02*
X88690475Y-70822200D01*
X88690475Y-70822200D02*
X88642856Y-70726961D01*
X88642856Y-70726961D02*
X88642856Y-70346009D01*
X88642856Y-70346009D02*
X88690475Y-70250771D01*
X88690475Y-70250771D02*
X88785713Y-70203152D01*
X88785713Y-70203152D02*
X88976189Y-70203152D01*
X88976189Y-70203152D02*
X89071427Y-70250771D01*
X89071427Y-70250771D02*
X89119046Y-70346009D01*
X89119046Y-70346009D02*
X89119046Y-70441247D01*
X89119046Y-70441247D02*
X88642856Y-70536485D01*
X89547618Y-70869819D02*
X89547618Y-70203152D01*
X89547618Y-70298390D02*
X89595237Y-70250771D01*
X89595237Y-70250771D02*
X89690475Y-70203152D01*
X89690475Y-70203152D02*
X89833332Y-70203152D01*
X89833332Y-70203152D02*
X89928570Y-70250771D01*
X89928570Y-70250771D02*
X89976189Y-70346009D01*
X89976189Y-70346009D02*
X89976189Y-70869819D01*
X89976189Y-70346009D02*
X90023808Y-70250771D01*
X90023808Y-70250771D02*
X90119046Y-70203152D01*
X90119046Y-70203152D02*
X90261903Y-70203152D01*
X90261903Y-70203152D02*
X90357142Y-70250771D01*
X90357142Y-70250771D02*
X90404761Y-70346009D01*
X90404761Y-70346009D02*
X90404761Y-70869819D01*
X91642856Y-70869819D02*
X91642856Y-69869819D01*
X92214284Y-70869819D02*
X91785713Y-70298390D01*
X92214284Y-69869819D02*
X91642856Y-70441247D01*
X93023808Y-70822200D02*
X92928570Y-70869819D01*
X92928570Y-70869819D02*
X92738094Y-70869819D01*
X92738094Y-70869819D02*
X92642856Y-70822200D01*
X92642856Y-70822200D02*
X92595237Y-70726961D01*
X92595237Y-70726961D02*
X92595237Y-70346009D01*
X92595237Y-70346009D02*
X92642856Y-70250771D01*
X92642856Y-70250771D02*
X92738094Y-70203152D01*
X92738094Y-70203152D02*
X92928570Y-70203152D01*
X92928570Y-70203152D02*
X93023808Y-70250771D01*
X93023808Y-70250771D02*
X93071427Y-70346009D01*
X93071427Y-70346009D02*
X93071427Y-70441247D01*
X93071427Y-70441247D02*
X92595237Y-70536485D01*
X93452380Y-70822200D02*
X93547618Y-70869819D01*
X93547618Y-70869819D02*
X93738094Y-70869819D01*
X93738094Y-70869819D02*
X93833332Y-70822200D01*
X93833332Y-70822200D02*
X93880951Y-70726961D01*
X93880951Y-70726961D02*
X93880951Y-70679342D01*
X93880951Y-70679342D02*
X93833332Y-70584104D01*
X93833332Y-70584104D02*
X93738094Y-70536485D01*
X93738094Y-70536485D02*
X93595237Y-70536485D01*
X93595237Y-70536485D02*
X93499999Y-70488866D01*
X93499999Y-70488866D02*
X93452380Y-70393628D01*
X93452380Y-70393628D02*
X93452380Y-70346009D01*
X93452380Y-70346009D02*
X93499999Y-70250771D01*
X93499999Y-70250771D02*
X93595237Y-70203152D01*
X93595237Y-70203152D02*
X93738094Y-70203152D01*
X93738094Y-70203152D02*
X93833332Y-70250771D01*
X94309523Y-70869819D02*
X94309523Y-69869819D01*
X94404761Y-70488866D02*
X94690475Y-70869819D01*
X94690475Y-70203152D02*
X94309523Y-70584104D01*
X95499999Y-70822200D02*
X95404761Y-70869819D01*
X95404761Y-70869819D02*
X95214285Y-70869819D01*
X95214285Y-70869819D02*
X95119047Y-70822200D01*
X95119047Y-70822200D02*
X95071428Y-70726961D01*
X95071428Y-70726961D02*
X95071428Y-70346009D01*
X95071428Y-70346009D02*
X95119047Y-70250771D01*
X95119047Y-70250771D02*
X95214285Y-70203152D01*
X95214285Y-70203152D02*
X95404761Y-70203152D01*
X95404761Y-70203152D02*
X95499999Y-70250771D01*
X95499999Y-70250771D02*
X95547618Y-70346009D01*
X95547618Y-70346009D02*
X95547618Y-70441247D01*
X95547618Y-70441247D02*
X95071428Y-70536485D01*
X97500000Y-70203152D02*
X96738095Y-70488866D01*
X96738095Y-70488866D02*
X97500000Y-70774580D01*
X97880952Y-69869819D02*
X98499999Y-69869819D01*
X98499999Y-69869819D02*
X98166666Y-70250771D01*
X98166666Y-70250771D02*
X98309523Y-70250771D01*
X98309523Y-70250771D02*
X98404761Y-70298390D01*
X98404761Y-70298390D02*
X98452380Y-70346009D01*
X98452380Y-70346009D02*
X98499999Y-70441247D01*
X98499999Y-70441247D02*
X98499999Y-70679342D01*
X98499999Y-70679342D02*
X98452380Y-70774580D01*
X98452380Y-70774580D02*
X98404761Y-70822200D01*
X98404761Y-70822200D02*
X98309523Y-70869819D01*
X98309523Y-70869819D02*
X98023809Y-70869819D01*
X98023809Y-70869819D02*
X97928571Y-70822200D01*
X97928571Y-70822200D02*
X97880952Y-70774580D01*
X99642857Y-70584104D02*
X100119047Y-70584104D01*
X99547619Y-70869819D02*
X99880952Y-69869819D01*
X99880952Y-69869819D02*
X100214285Y-70869819D01*
X100452381Y-70203152D02*
X100690476Y-70869819D01*
X100928571Y-70203152D02*
X100690476Y-70869819D01*
X100690476Y-70869819D02*
X100595238Y-71107914D01*
X100595238Y-71107914D02*
X100547619Y-71155533D01*
X100547619Y-71155533D02*
X100452381Y-71203152D01*
X101452381Y-70869819D02*
X101357143Y-70822200D01*
X101357143Y-70822200D02*
X101309524Y-70726961D01*
X101309524Y-70726961D02*
X101309524Y-69869819D01*
X102261905Y-70869819D02*
X102261905Y-70346009D01*
X102261905Y-70346009D02*
X102214286Y-70250771D01*
X102214286Y-70250771D02*
X102119048Y-70203152D01*
X102119048Y-70203152D02*
X101928572Y-70203152D01*
X101928572Y-70203152D02*
X101833334Y-70250771D01*
X102261905Y-70822200D02*
X102166667Y-70869819D01*
X102166667Y-70869819D02*
X101928572Y-70869819D01*
X101928572Y-70869819D02*
X101833334Y-70822200D01*
X101833334Y-70822200D02*
X101785715Y-70726961D01*
X101785715Y-70726961D02*
X101785715Y-70631723D01*
X101785715Y-70631723D02*
X101833334Y-70536485D01*
X101833334Y-70536485D02*
X101928572Y-70488866D01*
X101928572Y-70488866D02*
X102166667Y-70488866D01*
X102166667Y-70488866D02*
X102261905Y-70441247D01*
X103404763Y-69869819D02*
X103642858Y-70869819D01*
X103642858Y-70869819D02*
X103833334Y-70155533D01*
X103833334Y-70155533D02*
X104023810Y-70869819D01*
X104023810Y-70869819D02*
X104261906Y-69869819D01*
X105071429Y-70869819D02*
X105071429Y-70346009D01*
X105071429Y-70346009D02*
X105023810Y-70250771D01*
X105023810Y-70250771D02*
X104928572Y-70203152D01*
X104928572Y-70203152D02*
X104738096Y-70203152D01*
X104738096Y-70203152D02*
X104642858Y-70250771D01*
X105071429Y-70822200D02*
X104976191Y-70869819D01*
X104976191Y-70869819D02*
X104738096Y-70869819D01*
X104738096Y-70869819D02*
X104642858Y-70822200D01*
X104642858Y-70822200D02*
X104595239Y-70726961D01*
X104595239Y-70726961D02*
X104595239Y-70631723D01*
X104595239Y-70631723D02*
X104642858Y-70536485D01*
X104642858Y-70536485D02*
X104738096Y-70488866D01*
X104738096Y-70488866D02*
X104976191Y-70488866D01*
X104976191Y-70488866D02*
X105071429Y-70441247D01*
X105404763Y-70203152D02*
X105785715Y-70203152D01*
X105547620Y-69869819D02*
X105547620Y-70726961D01*
X105547620Y-70726961D02*
X105595239Y-70822200D01*
X105595239Y-70822200D02*
X105690477Y-70869819D01*
X105690477Y-70869819D02*
X105785715Y-70869819D01*
X106071430Y-70822200D02*
X106166668Y-70869819D01*
X106166668Y-70869819D02*
X106357144Y-70869819D01*
X106357144Y-70869819D02*
X106452382Y-70822200D01*
X106452382Y-70822200D02*
X106500001Y-70726961D01*
X106500001Y-70726961D02*
X106500001Y-70679342D01*
X106500001Y-70679342D02*
X106452382Y-70584104D01*
X106452382Y-70584104D02*
X106357144Y-70536485D01*
X106357144Y-70536485D02*
X106214287Y-70536485D01*
X106214287Y-70536485D02*
X106119049Y-70488866D01*
X106119049Y-70488866D02*
X106071430Y-70393628D01*
X106071430Y-70393628D02*
X106071430Y-70346009D01*
X106071430Y-70346009D02*
X106119049Y-70250771D01*
X106119049Y-70250771D02*
X106214287Y-70203152D01*
X106214287Y-70203152D02*
X106357144Y-70203152D01*
X106357144Y-70203152D02*
X106452382Y-70250771D01*
X107357144Y-70203152D02*
X107357144Y-70869819D01*
X106928573Y-70203152D02*
X106928573Y-70726961D01*
X106928573Y-70726961D02*
X106976192Y-70822200D01*
X106976192Y-70822200D02*
X107071430Y-70869819D01*
X107071430Y-70869819D02*
X107214287Y-70869819D01*
X107214287Y-70869819D02*
X107309525Y-70822200D01*
X107309525Y-70822200D02*
X107357144Y-70774580D01*
X107833335Y-70203152D02*
X107833335Y-71060295D01*
X107833335Y-71060295D02*
X107785716Y-71155533D01*
X107785716Y-71155533D02*
X107690478Y-71203152D01*
X107690478Y-71203152D02*
X107642859Y-71203152D01*
X107833335Y-69869819D02*
X107785716Y-69917438D01*
X107785716Y-69917438D02*
X107833335Y-69965057D01*
X107833335Y-69965057D02*
X107880954Y-69917438D01*
X107880954Y-69917438D02*
X107833335Y-69869819D01*
X107833335Y-69869819D02*
X107833335Y-69965057D01*
X108309525Y-70869819D02*
X108309525Y-70203152D01*
X108309525Y-69869819D02*
X108261906Y-69917438D01*
X108261906Y-69917438D02*
X108309525Y-69965057D01*
X108309525Y-69965057D02*
X108357144Y-69917438D01*
X108357144Y-69917438D02*
X108309525Y-69869819D01*
X108309525Y-69869819D02*
X108309525Y-69965057D01*
%TO.C,H6*%
X184238095Y-119604819D02*
X184238095Y-118604819D01*
X184238095Y-119081009D02*
X184809523Y-119081009D01*
X184809523Y-119604819D02*
X184809523Y-118604819D01*
X185714285Y-118604819D02*
X185523809Y-118604819D01*
X185523809Y-118604819D02*
X185428571Y-118652438D01*
X185428571Y-118652438D02*
X185380952Y-118700057D01*
X185380952Y-118700057D02*
X185285714Y-118842914D01*
X185285714Y-118842914D02*
X185238095Y-119033390D01*
X185238095Y-119033390D02*
X185238095Y-119414342D01*
X185238095Y-119414342D02*
X185285714Y-119509580D01*
X185285714Y-119509580D02*
X185333333Y-119557200D01*
X185333333Y-119557200D02*
X185428571Y-119604819D01*
X185428571Y-119604819D02*
X185619047Y-119604819D01*
X185619047Y-119604819D02*
X185714285Y-119557200D01*
X185714285Y-119557200D02*
X185761904Y-119509580D01*
X185761904Y-119509580D02*
X185809523Y-119414342D01*
X185809523Y-119414342D02*
X185809523Y-119176247D01*
X185809523Y-119176247D02*
X185761904Y-119081009D01*
X185761904Y-119081009D02*
X185714285Y-119033390D01*
X185714285Y-119033390D02*
X185619047Y-118985771D01*
X185619047Y-118985771D02*
X185428571Y-118985771D01*
X185428571Y-118985771D02*
X185333333Y-119033390D01*
X185333333Y-119033390D02*
X185285714Y-119081009D01*
X185285714Y-119081009D02*
X185238095Y-119176247D01*
%TO.C,H5*%
X184238095Y-66604819D02*
X184238095Y-65604819D01*
X184238095Y-66081009D02*
X184809523Y-66081009D01*
X184809523Y-66604819D02*
X184809523Y-65604819D01*
X185761904Y-65604819D02*
X185285714Y-65604819D01*
X185285714Y-65604819D02*
X185238095Y-66081009D01*
X185238095Y-66081009D02*
X185285714Y-66033390D01*
X185285714Y-66033390D02*
X185380952Y-65985771D01*
X185380952Y-65985771D02*
X185619047Y-65985771D01*
X185619047Y-65985771D02*
X185714285Y-66033390D01*
X185714285Y-66033390D02*
X185761904Y-66081009D01*
X185761904Y-66081009D02*
X185809523Y-66176247D01*
X185809523Y-66176247D02*
X185809523Y-66414342D01*
X185809523Y-66414342D02*
X185761904Y-66509580D01*
X185761904Y-66509580D02*
X185714285Y-66557200D01*
X185714285Y-66557200D02*
X185619047Y-66604819D01*
X185619047Y-66604819D02*
X185380952Y-66604819D01*
X185380952Y-66604819D02*
X185285714Y-66557200D01*
X185285714Y-66557200D02*
X185238095Y-66509580D01*
%TO.C,H3*%
X149238095Y-53604819D02*
X149238095Y-52604819D01*
X149238095Y-53081009D02*
X149809523Y-53081009D01*
X149809523Y-53604819D02*
X149809523Y-52604819D01*
X150190476Y-52604819D02*
X150809523Y-52604819D01*
X150809523Y-52604819D02*
X150476190Y-52985771D01*
X150476190Y-52985771D02*
X150619047Y-52985771D01*
X150619047Y-52985771D02*
X150714285Y-53033390D01*
X150714285Y-53033390D02*
X150761904Y-53081009D01*
X150761904Y-53081009D02*
X150809523Y-53176247D01*
X150809523Y-53176247D02*
X150809523Y-53414342D01*
X150809523Y-53414342D02*
X150761904Y-53509580D01*
X150761904Y-53509580D02*
X150714285Y-53557200D01*
X150714285Y-53557200D02*
X150619047Y-53604819D01*
X150619047Y-53604819D02*
X150333333Y-53604819D01*
X150333333Y-53604819D02*
X150238095Y-53557200D01*
X150238095Y-53557200D02*
X150190476Y-53509580D01*
%TO.C,yellowLED1*%
X100393853Y-97816675D02*
X100631948Y-98483342D01*
X100870043Y-97816675D02*
X100631948Y-98483342D01*
X100631948Y-98483342D02*
X100536710Y-98721437D01*
X100536710Y-98721437D02*
X100489091Y-98769056D01*
X100489091Y-98769056D02*
X100393853Y-98816675D01*
X101631948Y-98435723D02*
X101536710Y-98483342D01*
X101536710Y-98483342D02*
X101346234Y-98483342D01*
X101346234Y-98483342D02*
X101250996Y-98435723D01*
X101250996Y-98435723D02*
X101203377Y-98340484D01*
X101203377Y-98340484D02*
X101203377Y-97959532D01*
X101203377Y-97959532D02*
X101250996Y-97864294D01*
X101250996Y-97864294D02*
X101346234Y-97816675D01*
X101346234Y-97816675D02*
X101536710Y-97816675D01*
X101536710Y-97816675D02*
X101631948Y-97864294D01*
X101631948Y-97864294D02*
X101679567Y-97959532D01*
X101679567Y-97959532D02*
X101679567Y-98054770D01*
X101679567Y-98054770D02*
X101203377Y-98150008D01*
X102250996Y-98483342D02*
X102155758Y-98435723D01*
X102155758Y-98435723D02*
X102108139Y-98340484D01*
X102108139Y-98340484D02*
X102108139Y-97483342D01*
X102774806Y-98483342D02*
X102679568Y-98435723D01*
X102679568Y-98435723D02*
X102631949Y-98340484D01*
X102631949Y-98340484D02*
X102631949Y-97483342D01*
X103298616Y-98483342D02*
X103203378Y-98435723D01*
X103203378Y-98435723D02*
X103155759Y-98388103D01*
X103155759Y-98388103D02*
X103108140Y-98292865D01*
X103108140Y-98292865D02*
X103108140Y-98007151D01*
X103108140Y-98007151D02*
X103155759Y-97911913D01*
X103155759Y-97911913D02*
X103203378Y-97864294D01*
X103203378Y-97864294D02*
X103298616Y-97816675D01*
X103298616Y-97816675D02*
X103441473Y-97816675D01*
X103441473Y-97816675D02*
X103536711Y-97864294D01*
X103536711Y-97864294D02*
X103584330Y-97911913D01*
X103584330Y-97911913D02*
X103631949Y-98007151D01*
X103631949Y-98007151D02*
X103631949Y-98292865D01*
X103631949Y-98292865D02*
X103584330Y-98388103D01*
X103584330Y-98388103D02*
X103536711Y-98435723D01*
X103536711Y-98435723D02*
X103441473Y-98483342D01*
X103441473Y-98483342D02*
X103298616Y-98483342D01*
X103965283Y-97816675D02*
X104155759Y-98483342D01*
X104155759Y-98483342D02*
X104346235Y-98007151D01*
X104346235Y-98007151D02*
X104536711Y-98483342D01*
X104536711Y-98483342D02*
X104727187Y-97816675D01*
X105584330Y-98483342D02*
X105108140Y-98483342D01*
X105108140Y-98483342D02*
X105108140Y-97483342D01*
X105917664Y-97959532D02*
X106250997Y-97959532D01*
X106393854Y-98483342D02*
X105917664Y-98483342D01*
X105917664Y-98483342D02*
X105917664Y-97483342D01*
X105917664Y-97483342D02*
X106393854Y-97483342D01*
X106822426Y-98483342D02*
X106822426Y-97483342D01*
X106822426Y-97483342D02*
X107060521Y-97483342D01*
X107060521Y-97483342D02*
X107203378Y-97530961D01*
X107203378Y-97530961D02*
X107298616Y-97626199D01*
X107298616Y-97626199D02*
X107346235Y-97721437D01*
X107346235Y-97721437D02*
X107393854Y-97911913D01*
X107393854Y-97911913D02*
X107393854Y-98054770D01*
X107393854Y-98054770D02*
X107346235Y-98245246D01*
X107346235Y-98245246D02*
X107298616Y-98340484D01*
X107298616Y-98340484D02*
X107203378Y-98435723D01*
X107203378Y-98435723D02*
X107060521Y-98483342D01*
X107060521Y-98483342D02*
X106822426Y-98483342D01*
X108346235Y-98483342D02*
X107774807Y-98483342D01*
X108060521Y-98483342D02*
X108060521Y-97483342D01*
X108060521Y-97483342D02*
X107965283Y-97626199D01*
X107965283Y-97626199D02*
X107870045Y-97721437D01*
X107870045Y-97721437D02*
X107774807Y-97769056D01*
%TO.C,H1*%
X109238095Y-53604819D02*
X109238095Y-52604819D01*
X109238095Y-53081009D02*
X109809523Y-53081009D01*
X109809523Y-53604819D02*
X109809523Y-52604819D01*
X110809523Y-53604819D02*
X110238095Y-53604819D01*
X110523809Y-53604819D02*
X110523809Y-52604819D01*
X110523809Y-52604819D02*
X110428571Y-52747676D01*
X110428571Y-52747676D02*
X110333333Y-52842914D01*
X110333333Y-52842914D02*
X110238095Y-52890533D01*
%TO.C,H4*%
X141488095Y-150854819D02*
X141488095Y-149854819D01*
X141488095Y-150331009D02*
X142059523Y-150331009D01*
X142059523Y-150854819D02*
X142059523Y-149854819D01*
X142964285Y-150188152D02*
X142964285Y-150854819D01*
X142726190Y-149807200D02*
X142488095Y-150521485D01*
X142488095Y-150521485D02*
X143107142Y-150521485D01*
%TO.C,BZ1*%
X128674151Y-134519532D02*
X128817008Y-134567151D01*
X128817008Y-134567151D02*
X128864627Y-134614770D01*
X128864627Y-134614770D02*
X128912246Y-134710008D01*
X128912246Y-134710008D02*
X128912246Y-134852865D01*
X128912246Y-134852865D02*
X128864627Y-134948103D01*
X128864627Y-134948103D02*
X128817008Y-134995723D01*
X128817008Y-134995723D02*
X128721770Y-135043342D01*
X128721770Y-135043342D02*
X128340818Y-135043342D01*
X128340818Y-135043342D02*
X128340818Y-134043342D01*
X128340818Y-134043342D02*
X128674151Y-134043342D01*
X128674151Y-134043342D02*
X128769389Y-134090961D01*
X128769389Y-134090961D02*
X128817008Y-134138580D01*
X128817008Y-134138580D02*
X128864627Y-134233818D01*
X128864627Y-134233818D02*
X128864627Y-134329056D01*
X128864627Y-134329056D02*
X128817008Y-134424294D01*
X128817008Y-134424294D02*
X128769389Y-134471913D01*
X128769389Y-134471913D02*
X128674151Y-134519532D01*
X128674151Y-134519532D02*
X128340818Y-134519532D01*
X129245580Y-134043342D02*
X129912246Y-134043342D01*
X129912246Y-134043342D02*
X129245580Y-135043342D01*
X129245580Y-135043342D02*
X129912246Y-135043342D01*
X130817008Y-135043342D02*
X130245580Y-135043342D01*
X130531294Y-135043342D02*
X130531294Y-134043342D01*
X130531294Y-134043342D02*
X130436056Y-134186199D01*
X130436056Y-134186199D02*
X130340818Y-134281437D01*
X130340818Y-134281437D02*
X130245580Y-134329056D01*
X132984152Y-130002389D02*
X133746057Y-130002389D01*
X133365104Y-130383342D02*
X133365104Y-129621437D01*
%TO.C,redLED4*%
X126769387Y-90863342D02*
X126769387Y-90196675D01*
X126769387Y-90387151D02*
X126817006Y-90291913D01*
X126817006Y-90291913D02*
X126864625Y-90244294D01*
X126864625Y-90244294D02*
X126959863Y-90196675D01*
X126959863Y-90196675D02*
X127055101Y-90196675D01*
X127769387Y-90815723D02*
X127674149Y-90863342D01*
X127674149Y-90863342D02*
X127483673Y-90863342D01*
X127483673Y-90863342D02*
X127388435Y-90815723D01*
X127388435Y-90815723D02*
X127340816Y-90720484D01*
X127340816Y-90720484D02*
X127340816Y-90339532D01*
X127340816Y-90339532D02*
X127388435Y-90244294D01*
X127388435Y-90244294D02*
X127483673Y-90196675D01*
X127483673Y-90196675D02*
X127674149Y-90196675D01*
X127674149Y-90196675D02*
X127769387Y-90244294D01*
X127769387Y-90244294D02*
X127817006Y-90339532D01*
X127817006Y-90339532D02*
X127817006Y-90434770D01*
X127817006Y-90434770D02*
X127340816Y-90530008D01*
X128674149Y-90863342D02*
X128674149Y-89863342D01*
X128674149Y-90815723D02*
X128578911Y-90863342D01*
X128578911Y-90863342D02*
X128388435Y-90863342D01*
X128388435Y-90863342D02*
X128293197Y-90815723D01*
X128293197Y-90815723D02*
X128245578Y-90768103D01*
X128245578Y-90768103D02*
X128197959Y-90672865D01*
X128197959Y-90672865D02*
X128197959Y-90387151D01*
X128197959Y-90387151D02*
X128245578Y-90291913D01*
X128245578Y-90291913D02*
X128293197Y-90244294D01*
X128293197Y-90244294D02*
X128388435Y-90196675D01*
X128388435Y-90196675D02*
X128578911Y-90196675D01*
X128578911Y-90196675D02*
X128674149Y-90244294D01*
X129626530Y-90863342D02*
X129150340Y-90863342D01*
X129150340Y-90863342D02*
X129150340Y-89863342D01*
X129959864Y-90339532D02*
X130293197Y-90339532D01*
X130436054Y-90863342D02*
X129959864Y-90863342D01*
X129959864Y-90863342D02*
X129959864Y-89863342D01*
X129959864Y-89863342D02*
X130436054Y-89863342D01*
X130864626Y-90863342D02*
X130864626Y-89863342D01*
X130864626Y-89863342D02*
X131102721Y-89863342D01*
X131102721Y-89863342D02*
X131245578Y-89910961D01*
X131245578Y-89910961D02*
X131340816Y-90006199D01*
X131340816Y-90006199D02*
X131388435Y-90101437D01*
X131388435Y-90101437D02*
X131436054Y-90291913D01*
X131436054Y-90291913D02*
X131436054Y-90434770D01*
X131436054Y-90434770D02*
X131388435Y-90625246D01*
X131388435Y-90625246D02*
X131340816Y-90720484D01*
X131340816Y-90720484D02*
X131245578Y-90815723D01*
X131245578Y-90815723D02*
X131102721Y-90863342D01*
X131102721Y-90863342D02*
X130864626Y-90863342D01*
X132293197Y-90196675D02*
X132293197Y-90863342D01*
X132055102Y-89815723D02*
X131817007Y-90530008D01*
X131817007Y-90530008D02*
X132436054Y-90530008D01*
%TO.C,redLED3*%
X126769387Y-98483342D02*
X126769387Y-97816675D01*
X126769387Y-98007151D02*
X126817006Y-97911913D01*
X126817006Y-97911913D02*
X126864625Y-97864294D01*
X126864625Y-97864294D02*
X126959863Y-97816675D01*
X126959863Y-97816675D02*
X127055101Y-97816675D01*
X127769387Y-98435723D02*
X127674149Y-98483342D01*
X127674149Y-98483342D02*
X127483673Y-98483342D01*
X127483673Y-98483342D02*
X127388435Y-98435723D01*
X127388435Y-98435723D02*
X127340816Y-98340484D01*
X127340816Y-98340484D02*
X127340816Y-97959532D01*
X127340816Y-97959532D02*
X127388435Y-97864294D01*
X127388435Y-97864294D02*
X127483673Y-97816675D01*
X127483673Y-97816675D02*
X127674149Y-97816675D01*
X127674149Y-97816675D02*
X127769387Y-97864294D01*
X127769387Y-97864294D02*
X127817006Y-97959532D01*
X127817006Y-97959532D02*
X127817006Y-98054770D01*
X127817006Y-98054770D02*
X127340816Y-98150008D01*
X128674149Y-98483342D02*
X128674149Y-97483342D01*
X128674149Y-98435723D02*
X128578911Y-98483342D01*
X128578911Y-98483342D02*
X128388435Y-98483342D01*
X128388435Y-98483342D02*
X128293197Y-98435723D01*
X128293197Y-98435723D02*
X128245578Y-98388103D01*
X128245578Y-98388103D02*
X128197959Y-98292865D01*
X128197959Y-98292865D02*
X128197959Y-98007151D01*
X128197959Y-98007151D02*
X128245578Y-97911913D01*
X128245578Y-97911913D02*
X128293197Y-97864294D01*
X128293197Y-97864294D02*
X128388435Y-97816675D01*
X128388435Y-97816675D02*
X128578911Y-97816675D01*
X128578911Y-97816675D02*
X128674149Y-97864294D01*
X129626530Y-98483342D02*
X129150340Y-98483342D01*
X129150340Y-98483342D02*
X129150340Y-97483342D01*
X129959864Y-97959532D02*
X130293197Y-97959532D01*
X130436054Y-98483342D02*
X129959864Y-98483342D01*
X129959864Y-98483342D02*
X129959864Y-97483342D01*
X129959864Y-97483342D02*
X130436054Y-97483342D01*
X130864626Y-98483342D02*
X130864626Y-97483342D01*
X130864626Y-97483342D02*
X131102721Y-97483342D01*
X131102721Y-97483342D02*
X131245578Y-97530961D01*
X131245578Y-97530961D02*
X131340816Y-97626199D01*
X131340816Y-97626199D02*
X131388435Y-97721437D01*
X131388435Y-97721437D02*
X131436054Y-97911913D01*
X131436054Y-97911913D02*
X131436054Y-98054770D01*
X131436054Y-98054770D02*
X131388435Y-98245246D01*
X131388435Y-98245246D02*
X131340816Y-98340484D01*
X131340816Y-98340484D02*
X131245578Y-98435723D01*
X131245578Y-98435723D02*
X131102721Y-98483342D01*
X131102721Y-98483342D02*
X130864626Y-98483342D01*
X131769388Y-97483342D02*
X132388435Y-97483342D01*
X132388435Y-97483342D02*
X132055102Y-97864294D01*
X132055102Y-97864294D02*
X132197959Y-97864294D01*
X132197959Y-97864294D02*
X132293197Y-97911913D01*
X132293197Y-97911913D02*
X132340816Y-97959532D01*
X132340816Y-97959532D02*
X132388435Y-98054770D01*
X132388435Y-98054770D02*
X132388435Y-98292865D01*
X132388435Y-98292865D02*
X132340816Y-98388103D01*
X132340816Y-98388103D02*
X132293197Y-98435723D01*
X132293197Y-98435723D02*
X132197959Y-98483342D01*
X132197959Y-98483342D02*
X131912245Y-98483342D01*
X131912245Y-98483342D02*
X131817007Y-98435723D01*
X131817007Y-98435723D02*
X131769388Y-98388103D01*
%TO.C,H2*%
X74238095Y-66454819D02*
X74238095Y-65454819D01*
X74238095Y-65931009D02*
X74809523Y-65931009D01*
X74809523Y-66454819D02*
X74809523Y-65454819D01*
X75238095Y-65550057D02*
X75285714Y-65502438D01*
X75285714Y-65502438D02*
X75380952Y-65454819D01*
X75380952Y-65454819D02*
X75619047Y-65454819D01*
X75619047Y-65454819D02*
X75714285Y-65502438D01*
X75714285Y-65502438D02*
X75761904Y-65550057D01*
X75761904Y-65550057D02*
X75809523Y-65645295D01*
X75809523Y-65645295D02*
X75809523Y-65740533D01*
X75809523Y-65740533D02*
X75761904Y-65883390D01*
X75761904Y-65883390D02*
X75190476Y-66454819D01*
X75190476Y-66454819D02*
X75809523Y-66454819D01*
%TO.C,redLED2*%
X126769387Y-106103342D02*
X126769387Y-105436675D01*
X126769387Y-105627151D02*
X126817006Y-105531913D01*
X126817006Y-105531913D02*
X126864625Y-105484294D01*
X126864625Y-105484294D02*
X126959863Y-105436675D01*
X126959863Y-105436675D02*
X127055101Y-105436675D01*
X127769387Y-106055723D02*
X127674149Y-106103342D01*
X127674149Y-106103342D02*
X127483673Y-106103342D01*
X127483673Y-106103342D02*
X127388435Y-106055723D01*
X127388435Y-106055723D02*
X127340816Y-105960484D01*
X127340816Y-105960484D02*
X127340816Y-105579532D01*
X127340816Y-105579532D02*
X127388435Y-105484294D01*
X127388435Y-105484294D02*
X127483673Y-105436675D01*
X127483673Y-105436675D02*
X127674149Y-105436675D01*
X127674149Y-105436675D02*
X127769387Y-105484294D01*
X127769387Y-105484294D02*
X127817006Y-105579532D01*
X127817006Y-105579532D02*
X127817006Y-105674770D01*
X127817006Y-105674770D02*
X127340816Y-105770008D01*
X128674149Y-106103342D02*
X128674149Y-105103342D01*
X128674149Y-106055723D02*
X128578911Y-106103342D01*
X128578911Y-106103342D02*
X128388435Y-106103342D01*
X128388435Y-106103342D02*
X128293197Y-106055723D01*
X128293197Y-106055723D02*
X128245578Y-106008103D01*
X128245578Y-106008103D02*
X128197959Y-105912865D01*
X128197959Y-105912865D02*
X128197959Y-105627151D01*
X128197959Y-105627151D02*
X128245578Y-105531913D01*
X128245578Y-105531913D02*
X128293197Y-105484294D01*
X128293197Y-105484294D02*
X128388435Y-105436675D01*
X128388435Y-105436675D02*
X128578911Y-105436675D01*
X128578911Y-105436675D02*
X128674149Y-105484294D01*
X129626530Y-106103342D02*
X129150340Y-106103342D01*
X129150340Y-106103342D02*
X129150340Y-105103342D01*
X129959864Y-105579532D02*
X130293197Y-105579532D01*
X130436054Y-106103342D02*
X129959864Y-106103342D01*
X129959864Y-106103342D02*
X129959864Y-105103342D01*
X129959864Y-105103342D02*
X130436054Y-105103342D01*
X130864626Y-106103342D02*
X130864626Y-105103342D01*
X130864626Y-105103342D02*
X131102721Y-105103342D01*
X131102721Y-105103342D02*
X131245578Y-105150961D01*
X131245578Y-105150961D02*
X131340816Y-105246199D01*
X131340816Y-105246199D02*
X131388435Y-105341437D01*
X131388435Y-105341437D02*
X131436054Y-105531913D01*
X131436054Y-105531913D02*
X131436054Y-105674770D01*
X131436054Y-105674770D02*
X131388435Y-105865246D01*
X131388435Y-105865246D02*
X131340816Y-105960484D01*
X131340816Y-105960484D02*
X131245578Y-106055723D01*
X131245578Y-106055723D02*
X131102721Y-106103342D01*
X131102721Y-106103342D02*
X130864626Y-106103342D01*
X131817007Y-105198580D02*
X131864626Y-105150961D01*
X131864626Y-105150961D02*
X131959864Y-105103342D01*
X131959864Y-105103342D02*
X132197959Y-105103342D01*
X132197959Y-105103342D02*
X132293197Y-105150961D01*
X132293197Y-105150961D02*
X132340816Y-105198580D01*
X132340816Y-105198580D02*
X132388435Y-105293818D01*
X132388435Y-105293818D02*
X132388435Y-105389056D01*
X132388435Y-105389056D02*
X132340816Y-105531913D01*
X132340816Y-105531913D02*
X131769388Y-106103342D01*
X131769388Y-106103342D02*
X132388435Y-106103342D01*
%TO.C,Brd1*%
X128088437Y-67053532D02*
X128231294Y-67101151D01*
X128231294Y-67101151D02*
X128278913Y-67148770D01*
X128278913Y-67148770D02*
X128326532Y-67244008D01*
X128326532Y-67244008D02*
X128326532Y-67386865D01*
X128326532Y-67386865D02*
X128278913Y-67482103D01*
X128278913Y-67482103D02*
X128231294Y-67529723D01*
X128231294Y-67529723D02*
X128136056Y-67577342D01*
X128136056Y-67577342D02*
X127755104Y-67577342D01*
X127755104Y-67577342D02*
X127755104Y-66577342D01*
X127755104Y-66577342D02*
X128088437Y-66577342D01*
X128088437Y-66577342D02*
X128183675Y-66624961D01*
X128183675Y-66624961D02*
X128231294Y-66672580D01*
X128231294Y-66672580D02*
X128278913Y-66767818D01*
X128278913Y-66767818D02*
X128278913Y-66863056D01*
X128278913Y-66863056D02*
X128231294Y-66958294D01*
X128231294Y-66958294D02*
X128183675Y-67005913D01*
X128183675Y-67005913D02*
X128088437Y-67053532D01*
X128088437Y-67053532D02*
X127755104Y-67053532D01*
X128755104Y-67577342D02*
X128755104Y-66910675D01*
X128755104Y-67101151D02*
X128802723Y-67005913D01*
X128802723Y-67005913D02*
X128850342Y-66958294D01*
X128850342Y-66958294D02*
X128945580Y-66910675D01*
X128945580Y-66910675D02*
X129040818Y-66910675D01*
X129802723Y-67577342D02*
X129802723Y-66577342D01*
X129802723Y-67529723D02*
X129707485Y-67577342D01*
X129707485Y-67577342D02*
X129517009Y-67577342D01*
X129517009Y-67577342D02*
X129421771Y-67529723D01*
X129421771Y-67529723D02*
X129374152Y-67482103D01*
X129374152Y-67482103D02*
X129326533Y-67386865D01*
X129326533Y-67386865D02*
X129326533Y-67101151D01*
X129326533Y-67101151D02*
X129374152Y-67005913D01*
X129374152Y-67005913D02*
X129421771Y-66958294D01*
X129421771Y-66958294D02*
X129517009Y-66910675D01*
X129517009Y-66910675D02*
X129707485Y-66910675D01*
X129707485Y-66910675D02*
X129802723Y-66958294D01*
X130802723Y-67577342D02*
X130231295Y-67577342D01*
X130517009Y-67577342D02*
X130517009Y-66577342D01*
X130517009Y-66577342D02*
X130421771Y-66720199D01*
X130421771Y-66720199D02*
X130326533Y-66815437D01*
X130326533Y-66815437D02*
X130231295Y-66863056D01*
D11*
%TO.C,S1*%
X84137484Y-102502365D02*
X84318913Y-102562841D01*
X84318913Y-102562841D02*
X84621294Y-102562841D01*
X84621294Y-102562841D02*
X84742246Y-102502365D01*
X84742246Y-102502365D02*
X84802722Y-102441888D01*
X84802722Y-102441888D02*
X84863199Y-102320936D01*
X84863199Y-102320936D02*
X84863199Y-102199984D01*
X84863199Y-102199984D02*
X84802722Y-102079031D01*
X84802722Y-102079031D02*
X84742246Y-102018555D01*
X84742246Y-102018555D02*
X84621294Y-101958079D01*
X84621294Y-101958079D02*
X84379389Y-101897603D01*
X84379389Y-101897603D02*
X84258437Y-101837126D01*
X84258437Y-101837126D02*
X84197960Y-101776650D01*
X84197960Y-101776650D02*
X84137484Y-101655698D01*
X84137484Y-101655698D02*
X84137484Y-101534745D01*
X84137484Y-101534745D02*
X84197960Y-101413793D01*
X84197960Y-101413793D02*
X84258437Y-101353317D01*
X84258437Y-101353317D02*
X84379389Y-101292841D01*
X84379389Y-101292841D02*
X84681770Y-101292841D01*
X84681770Y-101292841D02*
X84863199Y-101353317D01*
X86072723Y-102562841D02*
X85347008Y-102562841D01*
X85709865Y-102562841D02*
X85709865Y-101292841D01*
X85709865Y-101292841D02*
X85588913Y-101474269D01*
X85588913Y-101474269D02*
X85467961Y-101595222D01*
X85467961Y-101595222D02*
X85347008Y-101655698D01*
D10*
%TO.C,redLED1*%
X126755399Y-113723342D02*
X126755399Y-113056675D01*
X126755399Y-113247151D02*
X126803018Y-113151913D01*
X126803018Y-113151913D02*
X126850637Y-113104294D01*
X126850637Y-113104294D02*
X126945875Y-113056675D01*
X126945875Y-113056675D02*
X127041113Y-113056675D01*
X127755399Y-113675723D02*
X127660161Y-113723342D01*
X127660161Y-113723342D02*
X127469685Y-113723342D01*
X127469685Y-113723342D02*
X127374447Y-113675723D01*
X127374447Y-113675723D02*
X127326828Y-113580484D01*
X127326828Y-113580484D02*
X127326828Y-113199532D01*
X127326828Y-113199532D02*
X127374447Y-113104294D01*
X127374447Y-113104294D02*
X127469685Y-113056675D01*
X127469685Y-113056675D02*
X127660161Y-113056675D01*
X127660161Y-113056675D02*
X127755399Y-113104294D01*
X127755399Y-113104294D02*
X127803018Y-113199532D01*
X127803018Y-113199532D02*
X127803018Y-113294770D01*
X127803018Y-113294770D02*
X127326828Y-113390008D01*
X128660161Y-113723342D02*
X128660161Y-112723342D01*
X128660161Y-113675723D02*
X128564923Y-113723342D01*
X128564923Y-113723342D02*
X128374447Y-113723342D01*
X128374447Y-113723342D02*
X128279209Y-113675723D01*
X128279209Y-113675723D02*
X128231590Y-113628103D01*
X128231590Y-113628103D02*
X128183971Y-113532865D01*
X128183971Y-113532865D02*
X128183971Y-113247151D01*
X128183971Y-113247151D02*
X128231590Y-113151913D01*
X128231590Y-113151913D02*
X128279209Y-113104294D01*
X128279209Y-113104294D02*
X128374447Y-113056675D01*
X128374447Y-113056675D02*
X128564923Y-113056675D01*
X128564923Y-113056675D02*
X128660161Y-113104294D01*
X129612542Y-113723342D02*
X129136352Y-113723342D01*
X129136352Y-113723342D02*
X129136352Y-112723342D01*
X129945876Y-113199532D02*
X130279209Y-113199532D01*
X130422066Y-113723342D02*
X129945876Y-113723342D01*
X129945876Y-113723342D02*
X129945876Y-112723342D01*
X129945876Y-112723342D02*
X130422066Y-112723342D01*
X130850638Y-113723342D02*
X130850638Y-112723342D01*
X130850638Y-112723342D02*
X131088733Y-112723342D01*
X131088733Y-112723342D02*
X131231590Y-112770961D01*
X131231590Y-112770961D02*
X131326828Y-112866199D01*
X131326828Y-112866199D02*
X131374447Y-112961437D01*
X131374447Y-112961437D02*
X131422066Y-113151913D01*
X131422066Y-113151913D02*
X131422066Y-113294770D01*
X131422066Y-113294770D02*
X131374447Y-113485246D01*
X131374447Y-113485246D02*
X131326828Y-113580484D01*
X131326828Y-113580484D02*
X131231590Y-113675723D01*
X131231590Y-113675723D02*
X131088733Y-113723342D01*
X131088733Y-113723342D02*
X130850638Y-113723342D01*
X132374447Y-113723342D02*
X131803019Y-113723342D01*
X132088733Y-113723342D02*
X132088733Y-112723342D01*
X132088733Y-112723342D02*
X131993495Y-112866199D01*
X131993495Y-112866199D02*
X131898257Y-112961437D01*
X131898257Y-112961437D02*
X131803019Y-113009056D01*
%TO.C,yellowLED2*%
X150706353Y-97816675D02*
X150944448Y-98483342D01*
X151182543Y-97816675D02*
X150944448Y-98483342D01*
X150944448Y-98483342D02*
X150849210Y-98721437D01*
X150849210Y-98721437D02*
X150801591Y-98769056D01*
X150801591Y-98769056D02*
X150706353Y-98816675D01*
X151944448Y-98435723D02*
X151849210Y-98483342D01*
X151849210Y-98483342D02*
X151658734Y-98483342D01*
X151658734Y-98483342D02*
X151563496Y-98435723D01*
X151563496Y-98435723D02*
X151515877Y-98340484D01*
X151515877Y-98340484D02*
X151515877Y-97959532D01*
X151515877Y-97959532D02*
X151563496Y-97864294D01*
X151563496Y-97864294D02*
X151658734Y-97816675D01*
X151658734Y-97816675D02*
X151849210Y-97816675D01*
X151849210Y-97816675D02*
X151944448Y-97864294D01*
X151944448Y-97864294D02*
X151992067Y-97959532D01*
X151992067Y-97959532D02*
X151992067Y-98054770D01*
X151992067Y-98054770D02*
X151515877Y-98150008D01*
X152563496Y-98483342D02*
X152468258Y-98435723D01*
X152468258Y-98435723D02*
X152420639Y-98340484D01*
X152420639Y-98340484D02*
X152420639Y-97483342D01*
X153087306Y-98483342D02*
X152992068Y-98435723D01*
X152992068Y-98435723D02*
X152944449Y-98340484D01*
X152944449Y-98340484D02*
X152944449Y-97483342D01*
X153611116Y-98483342D02*
X153515878Y-98435723D01*
X153515878Y-98435723D02*
X153468259Y-98388103D01*
X153468259Y-98388103D02*
X153420640Y-98292865D01*
X153420640Y-98292865D02*
X153420640Y-98007151D01*
X153420640Y-98007151D02*
X153468259Y-97911913D01*
X153468259Y-97911913D02*
X153515878Y-97864294D01*
X153515878Y-97864294D02*
X153611116Y-97816675D01*
X153611116Y-97816675D02*
X153753973Y-97816675D01*
X153753973Y-97816675D02*
X153849211Y-97864294D01*
X153849211Y-97864294D02*
X153896830Y-97911913D01*
X153896830Y-97911913D02*
X153944449Y-98007151D01*
X153944449Y-98007151D02*
X153944449Y-98292865D01*
X153944449Y-98292865D02*
X153896830Y-98388103D01*
X153896830Y-98388103D02*
X153849211Y-98435723D01*
X153849211Y-98435723D02*
X153753973Y-98483342D01*
X153753973Y-98483342D02*
X153611116Y-98483342D01*
X154277783Y-97816675D02*
X154468259Y-98483342D01*
X154468259Y-98483342D02*
X154658735Y-98007151D01*
X154658735Y-98007151D02*
X154849211Y-98483342D01*
X154849211Y-98483342D02*
X155039687Y-97816675D01*
X155896830Y-98483342D02*
X155420640Y-98483342D01*
X155420640Y-98483342D02*
X155420640Y-97483342D01*
X156230164Y-97959532D02*
X156563497Y-97959532D01*
X156706354Y-98483342D02*
X156230164Y-98483342D01*
X156230164Y-98483342D02*
X156230164Y-97483342D01*
X156230164Y-97483342D02*
X156706354Y-97483342D01*
X157134926Y-98483342D02*
X157134926Y-97483342D01*
X157134926Y-97483342D02*
X157373021Y-97483342D01*
X157373021Y-97483342D02*
X157515878Y-97530961D01*
X157515878Y-97530961D02*
X157611116Y-97626199D01*
X157611116Y-97626199D02*
X157658735Y-97721437D01*
X157658735Y-97721437D02*
X157706354Y-97911913D01*
X157706354Y-97911913D02*
X157706354Y-98054770D01*
X157706354Y-98054770D02*
X157658735Y-98245246D01*
X157658735Y-98245246D02*
X157611116Y-98340484D01*
X157611116Y-98340484D02*
X157515878Y-98435723D01*
X157515878Y-98435723D02*
X157373021Y-98483342D01*
X157373021Y-98483342D02*
X157134926Y-98483342D01*
X158087307Y-97578580D02*
X158134926Y-97530961D01*
X158134926Y-97530961D02*
X158230164Y-97483342D01*
X158230164Y-97483342D02*
X158468259Y-97483342D01*
X158468259Y-97483342D02*
X158563497Y-97530961D01*
X158563497Y-97530961D02*
X158611116Y-97578580D01*
X158611116Y-97578580D02*
X158658735Y-97673818D01*
X158658735Y-97673818D02*
X158658735Y-97769056D01*
X158658735Y-97769056D02*
X158611116Y-97911913D01*
X158611116Y-97911913D02*
X158039688Y-98483342D01*
X158039688Y-98483342D02*
X158658735Y-98483342D01*
D11*
%TO.C,S2*%
X173037484Y-102502365D02*
X173218913Y-102562841D01*
X173218913Y-102562841D02*
X173521294Y-102562841D01*
X173521294Y-102562841D02*
X173642246Y-102502365D01*
X173642246Y-102502365D02*
X173702722Y-102441888D01*
X173702722Y-102441888D02*
X173763199Y-102320936D01*
X173763199Y-102320936D02*
X173763199Y-102199984D01*
X173763199Y-102199984D02*
X173702722Y-102079031D01*
X173702722Y-102079031D02*
X173642246Y-102018555D01*
X173642246Y-102018555D02*
X173521294Y-101958079D01*
X173521294Y-101958079D02*
X173279389Y-101897603D01*
X173279389Y-101897603D02*
X173158437Y-101837126D01*
X173158437Y-101837126D02*
X173097960Y-101776650D01*
X173097960Y-101776650D02*
X173037484Y-101655698D01*
X173037484Y-101655698D02*
X173037484Y-101534745D01*
X173037484Y-101534745D02*
X173097960Y-101413793D01*
X173097960Y-101413793D02*
X173158437Y-101353317D01*
X173158437Y-101353317D02*
X173279389Y-101292841D01*
X173279389Y-101292841D02*
X173581770Y-101292841D01*
X173581770Y-101292841D02*
X173763199Y-101353317D01*
X174247008Y-101413793D02*
X174307484Y-101353317D01*
X174307484Y-101353317D02*
X174428437Y-101292841D01*
X174428437Y-101292841D02*
X174730818Y-101292841D01*
X174730818Y-101292841D02*
X174851770Y-101353317D01*
X174851770Y-101353317D02*
X174912246Y-101413793D01*
X174912246Y-101413793D02*
X174972723Y-101534745D01*
X174972723Y-101534745D02*
X174972723Y-101655698D01*
X174972723Y-101655698D02*
X174912246Y-101837126D01*
X174912246Y-101837126D02*
X174186532Y-102562841D01*
X174186532Y-102562841D02*
X174972723Y-102562841D01*
D10*
%TO.C,greenLED1*%
X126317006Y-82576675D02*
X126317006Y-83386199D01*
X126317006Y-83386199D02*
X126269387Y-83481437D01*
X126269387Y-83481437D02*
X126221768Y-83529056D01*
X126221768Y-83529056D02*
X126126530Y-83576675D01*
X126126530Y-83576675D02*
X125983673Y-83576675D01*
X125983673Y-83576675D02*
X125888435Y-83529056D01*
X126317006Y-83195723D02*
X126221768Y-83243342D01*
X126221768Y-83243342D02*
X126031292Y-83243342D01*
X126031292Y-83243342D02*
X125936054Y-83195723D01*
X125936054Y-83195723D02*
X125888435Y-83148103D01*
X125888435Y-83148103D02*
X125840816Y-83052865D01*
X125840816Y-83052865D02*
X125840816Y-82767151D01*
X125840816Y-82767151D02*
X125888435Y-82671913D01*
X125888435Y-82671913D02*
X125936054Y-82624294D01*
X125936054Y-82624294D02*
X126031292Y-82576675D01*
X126031292Y-82576675D02*
X126221768Y-82576675D01*
X126221768Y-82576675D02*
X126317006Y-82624294D01*
X126793197Y-83243342D02*
X126793197Y-82576675D01*
X126793197Y-82767151D02*
X126840816Y-82671913D01*
X126840816Y-82671913D02*
X126888435Y-82624294D01*
X126888435Y-82624294D02*
X126983673Y-82576675D01*
X126983673Y-82576675D02*
X127078911Y-82576675D01*
X127793197Y-83195723D02*
X127697959Y-83243342D01*
X127697959Y-83243342D02*
X127507483Y-83243342D01*
X127507483Y-83243342D02*
X127412245Y-83195723D01*
X127412245Y-83195723D02*
X127364626Y-83100484D01*
X127364626Y-83100484D02*
X127364626Y-82719532D01*
X127364626Y-82719532D02*
X127412245Y-82624294D01*
X127412245Y-82624294D02*
X127507483Y-82576675D01*
X127507483Y-82576675D02*
X127697959Y-82576675D01*
X127697959Y-82576675D02*
X127793197Y-82624294D01*
X127793197Y-82624294D02*
X127840816Y-82719532D01*
X127840816Y-82719532D02*
X127840816Y-82814770D01*
X127840816Y-82814770D02*
X127364626Y-82910008D01*
X128650340Y-83195723D02*
X128555102Y-83243342D01*
X128555102Y-83243342D02*
X128364626Y-83243342D01*
X128364626Y-83243342D02*
X128269388Y-83195723D01*
X128269388Y-83195723D02*
X128221769Y-83100484D01*
X128221769Y-83100484D02*
X128221769Y-82719532D01*
X128221769Y-82719532D02*
X128269388Y-82624294D01*
X128269388Y-82624294D02*
X128364626Y-82576675D01*
X128364626Y-82576675D02*
X128555102Y-82576675D01*
X128555102Y-82576675D02*
X128650340Y-82624294D01*
X128650340Y-82624294D02*
X128697959Y-82719532D01*
X128697959Y-82719532D02*
X128697959Y-82814770D01*
X128697959Y-82814770D02*
X128221769Y-82910008D01*
X129126531Y-82576675D02*
X129126531Y-83243342D01*
X129126531Y-82671913D02*
X129174150Y-82624294D01*
X129174150Y-82624294D02*
X129269388Y-82576675D01*
X129269388Y-82576675D02*
X129412245Y-82576675D01*
X129412245Y-82576675D02*
X129507483Y-82624294D01*
X129507483Y-82624294D02*
X129555102Y-82719532D01*
X129555102Y-82719532D02*
X129555102Y-83243342D01*
X130507483Y-83243342D02*
X130031293Y-83243342D01*
X130031293Y-83243342D02*
X130031293Y-82243342D01*
X130840817Y-82719532D02*
X131174150Y-82719532D01*
X131317007Y-83243342D02*
X130840817Y-83243342D01*
X130840817Y-83243342D02*
X130840817Y-82243342D01*
X130840817Y-82243342D02*
X131317007Y-82243342D01*
X131745579Y-83243342D02*
X131745579Y-82243342D01*
X131745579Y-82243342D02*
X131983674Y-82243342D01*
X131983674Y-82243342D02*
X132126531Y-82290961D01*
X132126531Y-82290961D02*
X132221769Y-82386199D01*
X132221769Y-82386199D02*
X132269388Y-82481437D01*
X132269388Y-82481437D02*
X132317007Y-82671913D01*
X132317007Y-82671913D02*
X132317007Y-82814770D01*
X132317007Y-82814770D02*
X132269388Y-83005246D01*
X132269388Y-83005246D02*
X132221769Y-83100484D01*
X132221769Y-83100484D02*
X132126531Y-83195723D01*
X132126531Y-83195723D02*
X131983674Y-83243342D01*
X131983674Y-83243342D02*
X131745579Y-83243342D01*
X133269388Y-83243342D02*
X132697960Y-83243342D01*
X132983674Y-83243342D02*
X132983674Y-82243342D01*
X132983674Y-82243342D02*
X132888436Y-82386199D01*
X132888436Y-82386199D02*
X132793198Y-82481437D01*
X132793198Y-82481437D02*
X132697960Y-82529056D01*
%TO.C,G\u002A\u002A\u002A*%
G36*
X169136272Y-69091941D02*
G01*
X169187152Y-69143898D01*
X169195931Y-69182478D01*
X169184089Y-69219176D01*
X169139213Y-69246329D01*
X169047276Y-69269327D01*
X168914251Y-69290702D01*
X168637807Y-69353848D01*
X168410664Y-69445729D01*
X168277632Y-69512829D01*
X168194120Y-69547437D01*
X168144461Y-69551737D01*
X168112985Y-69527909D01*
X168090506Y-69490324D01*
X168079043Y-69451909D01*
X168098096Y-69416054D01*
X168158853Y-69372958D01*
X168272501Y-69312820D01*
X168319948Y-69289319D01*
X168484295Y-69218945D01*
X168663850Y-69158796D01*
X168839874Y-69113401D01*
X168993631Y-69087292D01*
X169106383Y-69084998D01*
X169136272Y-69091941D01*
G37*
G36*
X168179633Y-73700609D02*
G01*
X168196204Y-73743261D01*
X168204848Y-73780869D01*
X168195480Y-73826080D01*
X168141195Y-73870910D01*
X168030173Y-73924281D01*
X167996076Y-73938415D01*
X167844833Y-74003574D01*
X167668607Y-74084663D01*
X167519552Y-74157182D01*
X167351576Y-74236728D01*
X167237016Y-74276735D01*
X167167436Y-74277987D01*
X167134395Y-74241266D01*
X167128489Y-74193460D01*
X167147660Y-74119344D01*
X167183587Y-74101163D01*
X167238852Y-74085370D01*
X167342319Y-74042924D01*
X167476678Y-73981219D01*
X167562003Y-73939489D01*
X167751604Y-73848528D01*
X167919866Y-73775064D01*
X168055268Y-73723554D01*
X168146287Y-73698453D01*
X168179633Y-73700609D01*
G37*
G36*
X165760064Y-69300193D02*
G01*
X165768616Y-69310376D01*
X165795958Y-69376386D01*
X165766261Y-69423908D01*
X165718055Y-69453447D01*
X165534192Y-69523978D01*
X165294980Y-69572149D01*
X165016284Y-69595104D01*
X164922602Y-69596655D01*
X164762702Y-69596178D01*
X164662622Y-69591734D01*
X164608347Y-69579553D01*
X164585862Y-69555864D01*
X164581149Y-69516898D01*
X164581105Y-69504797D01*
X164583593Y-69461802D01*
X164600342Y-69434793D01*
X164645277Y-69420052D01*
X164732326Y-69413866D01*
X164875414Y-69412517D01*
X164927022Y-69412500D01*
X165185134Y-69401878D01*
X165398882Y-69367722D01*
X165505942Y-69338065D01*
X165638626Y-69299405D01*
X165718265Y-69287315D01*
X165760064Y-69300193D01*
G37*
G36*
X153887598Y-70276517D02*
G01*
X154152390Y-70284908D01*
X154421742Y-70294349D01*
X154676218Y-70304095D01*
X154896383Y-70313401D01*
X155062799Y-70321520D01*
X155067053Y-70321754D01*
X155465647Y-70343760D01*
X155454699Y-70551895D01*
X155443750Y-70760029D01*
X155203780Y-70764303D01*
X155098249Y-70764175D01*
X154932762Y-70761492D01*
X154721145Y-70756595D01*
X154477222Y-70749823D01*
X154214818Y-70741517D01*
X154059303Y-70736121D01*
X153807193Y-70726607D01*
X153579121Y-70717109D01*
X153385615Y-70708137D01*
X153237201Y-70700203D01*
X153144409Y-70693817D01*
X153117878Y-70690439D01*
X153099415Y-70648883D01*
X153091639Y-70554300D01*
X153093848Y-70465250D01*
X153106736Y-70253286D01*
X153887598Y-70276517D01*
G37*
G36*
X157501963Y-70500372D02*
G01*
X157803377Y-70506422D01*
X158087525Y-70513046D01*
X158344315Y-70519938D01*
X158563653Y-70526793D01*
X158735448Y-70533304D01*
X158849607Y-70539167D01*
X158886410Y-70542268D01*
X159043314Y-70561501D01*
X159043314Y-70780751D01*
X159041724Y-70902464D01*
X159031559Y-70967269D01*
X159004725Y-70992093D01*
X158953132Y-70993864D01*
X158941788Y-70993122D01*
X158875089Y-70989892D01*
X158747329Y-70984835D01*
X158571251Y-70978413D01*
X158359596Y-70971086D01*
X158125105Y-70963316D01*
X158064971Y-70961376D01*
X157790235Y-70953150D01*
X157500720Y-70945492D01*
X157219002Y-70938930D01*
X156967653Y-70933994D01*
X156782050Y-70931336D01*
X156274419Y-70926163D01*
X156274419Y-70701936D01*
X156274419Y-70477709D01*
X157501963Y-70500372D01*
G37*
G36*
X154665016Y-72823099D02*
G01*
X154677082Y-72844557D01*
X154770700Y-73060264D01*
X154900395Y-73265939D01*
X155052439Y-73444681D01*
X155213107Y-73579591D01*
X155321744Y-73638257D01*
X155433718Y-73675228D01*
X155528183Y-73679365D01*
X155645067Y-73653654D01*
X155789548Y-73586151D01*
X155945726Y-73469431D01*
X156094722Y-73321489D01*
X156217658Y-73160316D01*
X156277271Y-73051135D01*
X156327781Y-72958336D01*
X156375420Y-72905175D01*
X156395443Y-72899782D01*
X156463713Y-72917689D01*
X156542079Y-72935847D01*
X156613485Y-72965770D01*
X156638737Y-73020924D01*
X156617654Y-73111457D01*
X156550056Y-73247516D01*
X156536090Y-73272136D01*
X156417185Y-73443371D01*
X156262970Y-73614005D01*
X156090954Y-73768461D01*
X155918647Y-73891163D01*
X155763560Y-73966533D01*
X155751119Y-73970440D01*
X155580907Y-74012963D01*
X155446366Y-74021515D01*
X155316689Y-73994251D01*
X155175275Y-73935989D01*
X155003739Y-73830292D01*
X154828656Y-73678180D01*
X154663702Y-73496388D01*
X154522551Y-73301648D01*
X154418876Y-73110695D01*
X154367452Y-72947424D01*
X154357715Y-72865650D01*
X154375815Y-72825947D01*
X154439567Y-72809203D01*
X154502362Y-72802681D01*
X154610650Y-72800394D01*
X154665016Y-72823099D01*
G37*
G36*
X162154077Y-65911233D02*
G01*
X162336871Y-66017218D01*
X162485315Y-66168707D01*
X162587397Y-66356260D01*
X162631104Y-66570440D01*
X162631457Y-66579101D01*
X162633017Y-66723833D01*
X162622103Y-66843566D01*
X162592109Y-66951297D01*
X162536431Y-67060021D01*
X162448464Y-67182736D01*
X162321605Y-67332436D01*
X162155866Y-67514938D01*
X161962615Y-67722064D01*
X161809220Y-67878411D01*
X161687546Y-67989317D01*
X161589459Y-68060120D01*
X161506826Y-68096159D01*
X161431512Y-68102770D01*
X161355384Y-68085291D01*
X161312558Y-68068360D01*
X161246362Y-68023050D01*
X161143391Y-67933048D01*
X161014682Y-67809930D01*
X160871271Y-67665272D01*
X160724195Y-67510650D01*
X160584489Y-67357640D01*
X160463190Y-67217818D01*
X160371335Y-67102759D01*
X160323483Y-67030928D01*
X160271896Y-66876001D01*
X160253297Y-66685503D01*
X160267501Y-66489830D01*
X160314325Y-66319378D01*
X160327976Y-66290232D01*
X160467043Y-66089777D01*
X160645582Y-65949924D01*
X160809466Y-65884994D01*
X160990962Y-65860654D01*
X161168852Y-65875931D01*
X161318041Y-65927141D01*
X161377871Y-65968470D01*
X161433563Y-66007700D01*
X161480485Y-65992104D01*
X161508177Y-65968470D01*
X161584645Y-65923499D01*
X161696270Y-65882995D01*
X161733484Y-65873523D01*
X161948943Y-65860188D01*
X162154077Y-65911233D01*
G37*
G36*
X165743694Y-70759178D02*
G01*
X165910956Y-70875307D01*
X166054356Y-71050670D01*
X166117536Y-71166134D01*
X166169971Y-71300891D01*
X166197006Y-71442630D01*
X166204800Y-71623922D01*
X166204802Y-71627617D01*
X166178880Y-71885234D01*
X166106074Y-72109859D01*
X165993827Y-72295205D01*
X165849582Y-72434982D01*
X165680783Y-72522904D01*
X165494872Y-72552682D01*
X165299292Y-72518028D01*
X165201473Y-72475248D01*
X165031213Y-72346230D01*
X164904892Y-72170981D01*
X164822630Y-71962694D01*
X164784546Y-71734567D01*
X164790759Y-71499795D01*
X164839890Y-71278338D01*
X164950291Y-71278338D01*
X164974844Y-71272341D01*
X165036294Y-71228884D01*
X165062726Y-71207306D01*
X165244122Y-71096669D01*
X165439890Y-71049460D01*
X165635104Y-71065531D01*
X165814837Y-71144729D01*
X165902310Y-71215758D01*
X165993695Y-71296736D01*
X166041730Y-71318953D01*
X166045313Y-71284201D01*
X166003341Y-71194276D01*
X165960183Y-71121538D01*
X165823732Y-70956218D01*
X165666311Y-70857177D01*
X165495946Y-70826270D01*
X165320664Y-70865352D01*
X165188841Y-70943203D01*
X165097443Y-71029187D01*
X165016204Y-71132568D01*
X164962396Y-71229081D01*
X164950291Y-71278338D01*
X164839890Y-71278338D01*
X164841390Y-71271575D01*
X164936557Y-71063102D01*
X165076381Y-70887572D01*
X165186312Y-70800581D01*
X165372613Y-70718377D01*
X165561326Y-70705722D01*
X165743694Y-70759178D01*
G37*
G36*
X169079089Y-70724268D02*
G01*
X169251532Y-70801448D01*
X169410646Y-70939856D01*
X169540707Y-71129216D01*
X169580433Y-71216755D01*
X169604675Y-71313184D01*
X169616827Y-71439764D01*
X169620285Y-71617755D01*
X169620291Y-71627617D01*
X169617154Y-71808510D01*
X169605480Y-71937006D01*
X169581874Y-72034364D01*
X169542942Y-72121845D01*
X169540707Y-72126018D01*
X169400587Y-72327270D01*
X169235052Y-72465607D01*
X169051442Y-72538556D01*
X168857097Y-72543644D01*
X168659358Y-72478397D01*
X168598515Y-72443502D01*
X168425003Y-72290846D01*
X168302456Y-72087602D01*
X168233187Y-71838723D01*
X168217588Y-71627617D01*
X168243727Y-71366459D01*
X168278192Y-71261000D01*
X168387858Y-71261000D01*
X168395736Y-71290776D01*
X168448019Y-71261787D01*
X168497823Y-71218387D01*
X168611808Y-71137159D01*
X168742278Y-71077219D01*
X168760411Y-71071817D01*
X168972050Y-71048631D01*
X169168745Y-71097602D01*
X169338741Y-71207454D01*
X169488664Y-71335782D01*
X169448167Y-71219614D01*
X169374478Y-71085437D01*
X169260822Y-70961168D01*
X169130342Y-70868401D01*
X169032748Y-70831984D01*
X168852562Y-70833760D01*
X168679397Y-70900517D01*
X168528260Y-71023833D01*
X168425151Y-71172937D01*
X168387858Y-71261000D01*
X168278192Y-71261000D01*
X168316440Y-71143965D01*
X168427168Y-70963357D01*
X168567355Y-70827860D01*
X168728443Y-70740697D01*
X168901873Y-70705092D01*
X169079089Y-70724268D01*
G37*
G36*
X155886774Y-66431423D02*
G01*
X156522211Y-66481440D01*
X157120543Y-66594687D01*
X157684984Y-66772540D01*
X158218752Y-67016374D01*
X158725061Y-67327563D01*
X159207129Y-67707484D01*
X159488703Y-67971621D01*
X159864146Y-68380166D01*
X160175176Y-68797182D01*
X160430619Y-69237733D01*
X160639299Y-69716881D01*
X160797998Y-70206250D01*
X160906274Y-70716696D01*
X160955090Y-71251993D01*
X160946071Y-71799089D01*
X160880843Y-72344928D01*
X160761031Y-72876457D01*
X160588261Y-73380624D01*
X160364159Y-73844373D01*
X160339611Y-73886960D01*
X160194822Y-74134239D01*
X160286026Y-74360038D01*
X160394027Y-74681793D01*
X160458042Y-75011537D01*
X160479687Y-75365495D01*
X160460580Y-75759889D01*
X160442375Y-75928634D01*
X160409328Y-76148382D01*
X160363908Y-76378775D01*
X160309564Y-76608417D01*
X160249744Y-76825911D01*
X160187900Y-77019860D01*
X160127480Y-77178868D01*
X160071933Y-77291538D01*
X160024711Y-77346474D01*
X160012148Y-77350000D01*
X159968207Y-77325584D01*
X159899204Y-77264990D01*
X159880129Y-77245659D01*
X159780163Y-77141318D01*
X159851573Y-76977999D01*
X159904746Y-76829100D01*
X159960665Y-76626175D01*
X160015281Y-76388726D01*
X160064547Y-76136249D01*
X160104415Y-75888246D01*
X160130838Y-75664216D01*
X160134977Y-75612712D01*
X160141103Y-75333398D01*
X160122643Y-75055898D01*
X160082209Y-74803126D01*
X160022409Y-74597994D01*
X160018201Y-74587552D01*
X159967722Y-74464783D01*
X159788453Y-74679848D01*
X159427997Y-75063162D01*
X159011412Y-75419993D01*
X158555194Y-75737171D01*
X158231105Y-75923290D01*
X157948253Y-76064918D01*
X157683994Y-76179507D01*
X157412322Y-76276816D01*
X157107228Y-76366601D01*
X156919667Y-76415332D01*
X156775230Y-76450318D01*
X156650197Y-76476273D01*
X156529212Y-76494555D01*
X156396918Y-76506523D01*
X156237957Y-76513537D01*
X156036974Y-76516955D01*
X155778611Y-76518136D01*
X155757559Y-76518170D01*
X155422592Y-76515732D01*
X155143832Y-76505621D01*
X154903827Y-76485342D01*
X154685128Y-76452398D01*
X154470285Y-76404295D01*
X154241848Y-76338537D01*
X154040844Y-76272650D01*
X153487357Y-76047687D01*
X152957417Y-75759478D01*
X152461142Y-75415202D01*
X152008655Y-75022036D01*
X151610074Y-74587158D01*
X151540388Y-74499264D01*
X151428572Y-74357796D01*
X151349893Y-74275785D01*
X151292746Y-74253944D01*
X151245530Y-74292988D01*
X151196642Y-74393633D01*
X151146836Y-74523519D01*
X151071800Y-74791238D01*
X151022923Y-75112962D01*
X151000414Y-75473569D01*
X151004487Y-75857936D01*
X151035353Y-76250940D01*
X151093222Y-76637459D01*
X151115710Y-76749091D01*
X151204533Y-77163443D01*
X151053648Y-77194362D01*
X150935725Y-77207505D01*
X150879234Y-77186721D01*
X150878853Y-77186115D01*
X150861714Y-77135558D01*
X150834075Y-77029498D01*
X150800130Y-76884794D01*
X150772685Y-76759303D01*
X150724365Y-76472372D01*
X150690271Y-76146387D01*
X150671074Y-75803017D01*
X150667445Y-75463933D01*
X150680053Y-75150804D01*
X150709571Y-74885298D01*
X150713913Y-74859738D01*
X150768445Y-74632415D01*
X150849841Y-74392625D01*
X150947582Y-74166938D01*
X151051148Y-73981922D01*
X151075218Y-73947185D01*
X151092416Y-73904940D01*
X151086341Y-73843661D01*
X151053132Y-73748227D01*
X150988926Y-73603514D01*
X150985645Y-73596459D01*
X150818260Y-73205115D01*
X150693998Y-72835251D01*
X150608369Y-72465839D01*
X150556882Y-72075853D01*
X150535045Y-71644267D01*
X150534539Y-71587707D01*
X150848029Y-71587707D01*
X150883420Y-72082456D01*
X150987531Y-72600233D01*
X151160608Y-73142188D01*
X151207714Y-73264148D01*
X151276320Y-73426883D01*
X151329280Y-73520459D01*
X151373295Y-73546093D01*
X151415068Y-73505000D01*
X151461301Y-73398396D01*
X151490036Y-73315353D01*
X151542986Y-73063578D01*
X151553441Y-72768663D01*
X151523443Y-72446360D01*
X151455036Y-72112421D01*
X151350263Y-71782596D01*
X151265075Y-71580959D01*
X151183080Y-71412833D01*
X151119736Y-71304531D01*
X151066206Y-71247345D01*
X151013653Y-71232570D01*
X150953241Y-71251498D01*
X150938422Y-71259104D01*
X150891924Y-71289700D01*
X150864739Y-71331831D01*
X150851811Y-71403882D01*
X150848083Y-71524239D01*
X150848029Y-71587707D01*
X150534539Y-71587707D01*
X150533576Y-71479942D01*
X150536265Y-71189112D01*
X150543077Y-71008931D01*
X151328657Y-71008931D01*
X151403796Y-71114454D01*
X151458663Y-71204067D01*
X151526387Y-71331873D01*
X151583635Y-71451486D01*
X151735932Y-71846183D01*
X151837472Y-72238858D01*
X151888127Y-72620702D01*
X151887767Y-72982905D01*
X151836264Y-73316657D01*
X151733487Y-73613148D01*
X151618251Y-73812027D01*
X151541002Y-73920513D01*
X151668720Y-74112364D01*
X151793978Y-74282253D01*
X151958658Y-74479288D01*
X152145153Y-74683721D01*
X152335854Y-74875800D01*
X152416966Y-74951682D01*
X152870284Y-75314545D01*
X153369110Y-75619832D01*
X153911729Y-75866727D01*
X154496427Y-76054417D01*
X154945349Y-76152949D01*
X155125613Y-76174699D01*
X155359806Y-76187360D01*
X155628640Y-76191362D01*
X155912821Y-76187133D01*
X156193061Y-76175103D01*
X156450067Y-76155699D01*
X156664549Y-76129352D01*
X156754361Y-76112726D01*
X157132724Y-76011763D01*
X157525557Y-75874092D01*
X157912221Y-75708762D01*
X158272078Y-75524823D01*
X158584490Y-75331324D01*
X158659986Y-75277159D01*
X158861884Y-75115387D01*
X159081348Y-74920333D01*
X159298866Y-74710799D01*
X159494929Y-74505585D01*
X159650028Y-74323493D01*
X159651234Y-74321944D01*
X159809841Y-74118162D01*
X159736162Y-73842003D01*
X159697027Y-73645328D01*
X159667216Y-73394489D01*
X159647491Y-73108663D01*
X159640494Y-72870802D01*
X159985840Y-72870802D01*
X159986517Y-73114077D01*
X159992724Y-73325969D01*
X160004789Y-73490630D01*
X160016144Y-73565843D01*
X160047548Y-73713518D01*
X160168233Y-73473547D01*
X160244031Y-73309957D01*
X160323078Y-73119178D01*
X160383236Y-72956686D01*
X160489675Y-72597352D01*
X160562760Y-72233822D01*
X160606947Y-71840426D01*
X160621167Y-71586512D01*
X160640779Y-71083924D01*
X160497352Y-71058453D01*
X160387415Y-71037123D01*
X160301219Y-71017367D01*
X160290924Y-71014513D01*
X160250418Y-71025363D01*
X160210439Y-71085774D01*
X160169212Y-71201169D01*
X160124964Y-71376968D01*
X160075919Y-71618591D01*
X160053934Y-71738373D01*
X160031877Y-71900837D01*
X160013711Y-72111161D01*
X159999765Y-72353495D01*
X159990365Y-72611992D01*
X159985840Y-72870802D01*
X159640494Y-72870802D01*
X159638618Y-72807026D01*
X159641360Y-72508753D01*
X159656482Y-72233020D01*
X159667580Y-72120965D01*
X159701055Y-71875699D01*
X159746597Y-71600493D01*
X159798711Y-71325433D01*
X159851898Y-71080603D01*
X159874167Y-70990424D01*
X159884081Y-70931048D01*
X159866161Y-70889952D01*
X159806224Y-70851978D01*
X159702709Y-70807149D01*
X159129818Y-70537039D01*
X158570907Y-70206650D01*
X158040659Y-69826408D01*
X157553759Y-69406741D01*
X157166896Y-69006396D01*
X156967503Y-68763608D01*
X156763388Y-68486225D01*
X156563529Y-68188868D01*
X156376905Y-67886156D01*
X156212495Y-67592711D01*
X156079280Y-67323153D01*
X155986237Y-67092103D01*
X155980357Y-67074365D01*
X155934423Y-66932886D01*
X155746519Y-67148202D01*
X155398381Y-67531162D01*
X155002250Y-67939076D01*
X154568849Y-68362487D01*
X154108905Y-68791941D01*
X153633142Y-69217979D01*
X153152285Y-69631146D01*
X152677059Y-70021986D01*
X152218189Y-70381041D01*
X151786400Y-70698857D01*
X151484896Y-70905713D01*
X151328657Y-71008931D01*
X150543077Y-71008931D01*
X150545089Y-70955716D01*
X150550441Y-70891804D01*
X150883021Y-70891804D01*
X150985188Y-70838762D01*
X151049235Y-70799583D01*
X151160305Y-70725537D01*
X151305778Y-70625281D01*
X151473033Y-70507474D01*
X151585756Y-70426807D01*
X152245048Y-69936446D01*
X152887815Y-69428060D01*
X153488233Y-68922112D01*
X153523455Y-68891309D01*
X153733775Y-68702227D01*
X153975073Y-68477424D01*
X154235340Y-68228749D01*
X154502572Y-67968051D01*
X154764760Y-67707176D01*
X155009899Y-67457974D01*
X155225981Y-67232293D01*
X155400999Y-67041981D01*
X155425291Y-67014582D01*
X155646253Y-66763683D01*
X156231836Y-66763683D01*
X156254783Y-66860548D01*
X156288479Y-66958471D01*
X156351869Y-67104759D01*
X156437193Y-67284145D01*
X156536694Y-67481360D01*
X156642611Y-67681137D01*
X156747187Y-67868208D01*
X156842662Y-68027304D01*
X156866846Y-68064971D01*
X157268051Y-68611994D01*
X157721760Y-69107268D01*
X158228255Y-69551042D01*
X158787818Y-69943565D01*
X159357627Y-70263611D01*
X159569516Y-70365516D01*
X159784886Y-70461083D01*
X159992984Y-70546397D01*
X160183059Y-70617546D01*
X160344357Y-70670616D01*
X160466127Y-70701694D01*
X160537616Y-70706868D01*
X160551343Y-70698042D01*
X160549380Y-70648113D01*
X160532329Y-70547319D01*
X160503752Y-70416239D01*
X160499491Y-70398517D01*
X160327725Y-69845737D01*
X160088470Y-69322816D01*
X159781926Y-68830112D01*
X159408292Y-68367983D01*
X159315320Y-68268588D01*
X158869755Y-67855263D01*
X158388575Y-67506618D01*
X157871771Y-67222645D01*
X157319332Y-67003341D01*
X156731246Y-66848699D01*
X156520787Y-66810463D01*
X156231836Y-66763683D01*
X155646253Y-66763683D01*
X155665262Y-66742099D01*
X155351454Y-66764349D01*
X154776407Y-66841082D01*
X154212586Y-66986654D01*
X153668761Y-67197021D01*
X153153699Y-67468133D01*
X152676171Y-67795945D01*
X152244946Y-68176410D01*
X152205773Y-68216102D01*
X152004176Y-68429690D01*
X151840200Y-68621567D01*
X151694358Y-68816825D01*
X151547162Y-69040556D01*
X151476658Y-69154959D01*
X151315000Y-69456868D01*
X151166256Y-69801792D01*
X151040110Y-70162964D01*
X150946244Y-70513614D01*
X150905619Y-70733620D01*
X150883021Y-70891804D01*
X150550441Y-70891804D01*
X150561185Y-70763520D01*
X150585690Y-70596290D01*
X150600787Y-70520059D01*
X150765601Y-69921069D01*
X150994758Y-69356111D01*
X151285389Y-68828645D01*
X151634625Y-68342132D01*
X152039597Y-67900032D01*
X152497436Y-67505807D01*
X153005273Y-67162916D01*
X153560240Y-66874822D01*
X153658140Y-66831939D01*
X154184096Y-66640288D01*
X154722265Y-66511067D01*
X155284605Y-66442126D01*
X155883075Y-66431318D01*
X155886774Y-66431423D01*
G37*
G36*
X170002102Y-66339027D02*
G01*
X169959918Y-66440631D01*
X169886409Y-66568977D01*
X169806148Y-66684494D01*
X169647199Y-66891517D01*
X169878915Y-67027065D01*
X170325777Y-67324003D01*
X170750040Y-67675197D01*
X171140196Y-68068525D01*
X171484740Y-68491866D01*
X171772166Y-68933100D01*
X171880479Y-69135611D01*
X172114023Y-69684360D01*
X172278465Y-70248033D01*
X172374845Y-70820594D01*
X172404206Y-71396011D01*
X172367588Y-71968246D01*
X172266033Y-72531268D01*
X172100582Y-73079039D01*
X171872275Y-73605526D01*
X171582155Y-74104694D01*
X171231262Y-74570509D01*
X170878487Y-74942871D01*
X170472228Y-75292268D01*
X170031430Y-75605101D01*
X169573231Y-75870554D01*
X169114771Y-76077811D01*
X169029797Y-76109450D01*
X168718001Y-76214315D01*
X168433728Y-76292413D01*
X168155141Y-76347533D01*
X167860408Y-76383465D01*
X167527693Y-76403999D01*
X167294623Y-76410623D01*
X166948332Y-76413590D01*
X166668903Y-76407678D01*
X166449866Y-76392648D01*
X166316280Y-76374350D01*
X165688359Y-76226347D01*
X165097497Y-76014501D01*
X164543452Y-75738690D01*
X164025981Y-75398793D01*
X163544843Y-74994691D01*
X163535515Y-74985883D01*
X163108301Y-74534167D01*
X162747977Y-74051253D01*
X162454871Y-73537906D01*
X162229311Y-72994890D01*
X162071626Y-72422968D01*
X161982144Y-71822905D01*
X161960855Y-71341895D01*
X162292181Y-71341895D01*
X162327847Y-71931425D01*
X162433995Y-72500967D01*
X162609223Y-73047392D01*
X162852124Y-73567568D01*
X163161295Y-74058363D01*
X163535330Y-74516648D01*
X163861733Y-74840926D01*
X164315051Y-75203789D01*
X164813877Y-75509076D01*
X165356497Y-75755971D01*
X165941194Y-75943661D01*
X166390117Y-76042193D01*
X166570380Y-76063943D01*
X166804574Y-76076604D01*
X167073407Y-76080606D01*
X167357589Y-76076377D01*
X167637828Y-76064347D01*
X167894835Y-76044944D01*
X168109317Y-76018597D01*
X168199128Y-76001970D01*
X168777123Y-75840258D01*
X169324081Y-75616552D01*
X169835279Y-75334960D01*
X170305993Y-74999592D01*
X170731497Y-74614555D01*
X171107069Y-74183958D01*
X171427983Y-73711911D01*
X171689517Y-73202521D01*
X171827964Y-72845931D01*
X171936243Y-72478888D01*
X172010156Y-72105734D01*
X172054210Y-71700718D01*
X172066175Y-71484971D01*
X172073791Y-71286372D01*
X172076730Y-71150454D01*
X172073824Y-71066146D01*
X172063907Y-71022373D01*
X172045809Y-71008065D01*
X172018364Y-71012149D01*
X172016370Y-71012744D01*
X171947210Y-71030427D01*
X171829629Y-71057482D01*
X171687536Y-71088430D01*
X171669477Y-71092250D01*
X171510805Y-71126075D01*
X171359012Y-71159071D01*
X171246487Y-71184194D01*
X171244913Y-71184556D01*
X171143007Y-71207531D01*
X170994052Y-71240566D01*
X170823163Y-71278105D01*
X170740645Y-71296109D01*
X170384050Y-71373716D01*
X170357771Y-71600141D01*
X170287991Y-71941349D01*
X170165756Y-72246416D01*
X169997252Y-72509921D01*
X169788666Y-72726445D01*
X169546185Y-72890568D01*
X169275997Y-72996870D01*
X168984288Y-73039933D01*
X168732209Y-73024071D01*
X168459101Y-72953162D01*
X168215575Y-72826595D01*
X167984837Y-72635541D01*
X167975253Y-72626051D01*
X167757324Y-72359950D01*
X167606313Y-72062676D01*
X167529943Y-71781759D01*
X167489265Y-71550825D01*
X167210482Y-71561532D01*
X166931698Y-71572239D01*
X166886477Y-71794454D01*
X166791275Y-72120383D01*
X166645002Y-72399495D01*
X166440890Y-72644042D01*
X166391147Y-72691146D01*
X166149449Y-72863634D01*
X165874141Y-72977905D01*
X165579864Y-73031626D01*
X165281262Y-73022470D01*
X164992976Y-72948105D01*
X164933217Y-72923134D01*
X164776503Y-72830835D01*
X164606093Y-72695374D01*
X164445447Y-72537396D01*
X164325006Y-72387836D01*
X164255942Y-72267059D01*
X164186201Y-72112044D01*
X164124916Y-71947370D01*
X164081221Y-71797617D01*
X164064249Y-71687362D01*
X164064245Y-71686072D01*
X164058791Y-71658694D01*
X164036333Y-71634303D01*
X163987725Y-71609949D01*
X163903822Y-71582684D01*
X163775476Y-71549557D01*
X163593543Y-71507620D01*
X163386863Y-71462259D01*
X164267297Y-71462259D01*
X164268627Y-71645333D01*
X164275320Y-71776291D01*
X164291431Y-71876845D01*
X164321015Y-71968706D01*
X164368126Y-72073582D01*
X164389735Y-72117846D01*
X164551915Y-72381469D01*
X164754576Y-72588596D01*
X164993480Y-72742672D01*
X165220710Y-72822796D01*
X165476161Y-72851278D01*
X165734862Y-72827688D01*
X165955270Y-72759185D01*
X166195669Y-72612980D01*
X166403613Y-72406703D01*
X166569030Y-72150647D01*
X166587276Y-72113415D01*
X166648791Y-71970857D01*
X166686456Y-71842900D01*
X166707229Y-71698655D01*
X166716887Y-71538108D01*
X166713701Y-71441381D01*
X167690072Y-71441381D01*
X167706773Y-71733873D01*
X167769441Y-72001766D01*
X167821035Y-72126018D01*
X167948568Y-72325988D01*
X168119824Y-72515163D01*
X168314530Y-72674780D01*
X168512414Y-72786074D01*
X168549855Y-72800622D01*
X168641744Y-72820561D01*
X168778730Y-72835694D01*
X168932091Y-72842907D01*
X168940833Y-72843016D01*
X169103079Y-72840062D01*
X169225547Y-72822323D01*
X169341913Y-72782518D01*
X169445049Y-72734000D01*
X169683690Y-72575056D01*
X169882830Y-72362770D01*
X170036488Y-72109590D01*
X170138683Y-71827964D01*
X170183436Y-71530339D01*
X170165637Y-71234204D01*
X170081878Y-70924219D01*
X169947935Y-70653982D01*
X169771146Y-70428438D01*
X169558851Y-70252532D01*
X169318388Y-70131209D01*
X169057097Y-70069415D01*
X168782316Y-70072094D01*
X168531396Y-70133054D01*
X168333268Y-70235136D01*
X168138503Y-70390630D01*
X167965842Y-70580725D01*
X167834025Y-70786615D01*
X167796309Y-70870785D01*
X167719773Y-71146337D01*
X167690072Y-71441381D01*
X166713701Y-71441381D01*
X166705949Y-71205979D01*
X166641911Y-70918731D01*
X166521347Y-70666616D01*
X166340831Y-70439886D01*
X166325484Y-70424337D01*
X166090960Y-70236729D01*
X165836013Y-70116294D01*
X165569864Y-70062905D01*
X165301738Y-70076431D01*
X165040856Y-70156744D01*
X164796443Y-70303715D01*
X164638464Y-70447922D01*
X164527797Y-70583406D01*
X164423215Y-70739543D01*
X164366241Y-70844275D01*
X164321458Y-70947409D01*
X164292561Y-71041112D01*
X164276161Y-71146544D01*
X164268871Y-71284863D01*
X164267297Y-71462259D01*
X163386863Y-71462259D01*
X163348877Y-71453922D01*
X163335102Y-71450934D01*
X163104536Y-71401145D01*
X162891232Y-71355470D01*
X162708495Y-71316730D01*
X162569629Y-71287743D01*
X162487940Y-71271326D01*
X162482424Y-71270301D01*
X162399964Y-71248944D01*
X162372612Y-71210970D01*
X162381283Y-71135812D01*
X162401422Y-71052611D01*
X162418579Y-71008943D01*
X162418681Y-71008839D01*
X162457528Y-71012049D01*
X162557589Y-71029549D01*
X162708092Y-71059193D01*
X162898267Y-71098835D01*
X163117342Y-71146330D01*
X163192756Y-71163051D01*
X163421562Y-71213560D01*
X163627412Y-71258057D01*
X163798887Y-71294152D01*
X163924565Y-71319451D01*
X163993029Y-71331563D01*
X164000649Y-71332268D01*
X164036560Y-71297232D01*
X164073542Y-71199239D01*
X164096648Y-71103863D01*
X164192985Y-70800076D01*
X164346797Y-70519856D01*
X164548043Y-70276692D01*
X164786678Y-70084076D01*
X164906484Y-70016040D01*
X165148574Y-69931059D01*
X165421495Y-69893216D01*
X165698205Y-69903789D01*
X165951663Y-69964061D01*
X165957600Y-69966265D01*
X166190285Y-70088714D01*
X166409735Y-70269102D01*
X166603241Y-70491532D01*
X166758099Y-70740107D01*
X166861600Y-70998930D01*
X166891205Y-71134263D01*
X166915361Y-71295349D01*
X167205815Y-71295349D01*
X167351060Y-71294313D01*
X167438782Y-71287659D01*
X167485296Y-71270068D01*
X167506913Y-71236224D01*
X167517256Y-71193823D01*
X167619899Y-70837773D01*
X167769801Y-70537573D01*
X167968482Y-70291111D01*
X168217462Y-70096271D01*
X168364221Y-70016136D01*
X168507482Y-69951704D01*
X168624437Y-69914363D01*
X168747450Y-69896991D01*
X168908885Y-69892463D01*
X168926177Y-69892442D01*
X169194757Y-69913161D01*
X169432314Y-69980939D01*
X169663805Y-70104211D01*
X169768745Y-70177152D01*
X169917505Y-70315970D01*
X170062704Y-70502340D01*
X170186891Y-70711296D01*
X170260153Y-70880129D01*
X170301604Y-70991049D01*
X170336127Y-71071245D01*
X170350959Y-71096695D01*
X170393126Y-71096935D01*
X170494787Y-71082738D01*
X170643572Y-71056617D01*
X170827110Y-71021085D01*
X171033030Y-70978657D01*
X171248961Y-70931844D01*
X171462532Y-70883160D01*
X171661373Y-70835119D01*
X171750443Y-70812376D01*
X171886788Y-70776784D01*
X171577988Y-70392909D01*
X171442290Y-70217536D01*
X171284800Y-70003433D01*
X171122721Y-69774569D01*
X170973256Y-69554915D01*
X170936112Y-69498485D01*
X170763988Y-69241117D01*
X170617184Y-69038717D01*
X170485999Y-68881246D01*
X170360735Y-68758668D01*
X170231691Y-68660946D01*
X170089167Y-68578042D01*
X170008140Y-68538221D01*
X169836488Y-68458039D01*
X169715068Y-68403542D01*
X169627293Y-68368999D01*
X169556575Y-68348675D01*
X169486327Y-68336836D01*
X169399963Y-68327749D01*
X169398983Y-68327655D01*
X169274416Y-68315110D01*
X169107411Y-68297561D01*
X168928905Y-68278272D01*
X168882123Y-68273120D01*
X168675743Y-68254726D01*
X168443367Y-68240713D01*
X168232471Y-68233891D01*
X168216573Y-68233729D01*
X168020936Y-68226762D01*
X167887860Y-68208480D01*
X167806722Y-68177364D01*
X167802624Y-68174604D01*
X167721346Y-68146335D01*
X167576595Y-68126163D01*
X167378265Y-68113874D01*
X167136252Y-68109253D01*
X166860448Y-68112084D01*
X166560750Y-68122154D01*
X166247051Y-68139246D01*
X165929245Y-68163147D01*
X165617229Y-68193640D01*
X165337937Y-68228140D01*
X164966681Y-68309524D01*
X164632168Y-68448187D01*
X164522516Y-68510243D01*
X164411647Y-68577466D01*
X164319778Y-68633181D01*
X164281506Y-68656399D01*
X164207708Y-68704181D01*
X164075062Y-68793686D01*
X163883114Y-68925225D01*
X163631406Y-69099109D01*
X163608267Y-69115141D01*
X163494187Y-69189539D01*
X163399199Y-69243128D01*
X163343112Y-69264781D01*
X163341803Y-69264826D01*
X163286512Y-69297187D01*
X163201245Y-69391545D01*
X163088966Y-69543814D01*
X162952636Y-69749909D01*
X162795220Y-70005743D01*
X162752894Y-70077035D01*
X162607962Y-70324746D01*
X162497043Y-70521912D01*
X162415609Y-70680968D01*
X162359129Y-70814347D01*
X162323076Y-70934485D01*
X162302920Y-71053816D01*
X162294131Y-71184775D01*
X162292181Y-71339795D01*
X162292181Y-71341895D01*
X161960855Y-71341895D01*
X161959884Y-71319956D01*
X161995923Y-70737294D01*
X162101812Y-70169270D01*
X162274211Y-69620773D01*
X162509780Y-69096688D01*
X162805180Y-68601902D01*
X163157069Y-68141304D01*
X163562108Y-67719780D01*
X164016957Y-67342218D01*
X164518275Y-67013503D01*
X165062723Y-66738525D01*
X165102907Y-66721183D01*
X165616602Y-66537686D01*
X166166770Y-66406514D01*
X166735761Y-66329765D01*
X167305924Y-66309540D01*
X167859607Y-66347939D01*
X168030181Y-66372911D01*
X168218995Y-66401554D01*
X168363353Y-66414542D01*
X168490812Y-66412534D01*
X168628930Y-66396187D01*
X168677868Y-66388369D01*
X168863389Y-66360322D01*
X169074490Y-66332411D01*
X169251309Y-66312205D01*
X169406279Y-66292688D01*
X169545030Y-66268663D01*
X169640986Y-66244844D01*
X169650587Y-66241369D01*
X169759989Y-66213542D01*
X169886441Y-66200684D01*
X169896812Y-66200582D01*
X170039107Y-66200582D01*
X170002102Y-66339027D01*
G37*
D12*
%TO.C,yellowLED1*%
X101833854Y-100443523D02*
X101833854Y-103533523D01*
X107383853Y-101988985D02*
G75*
G03*
X101833855Y-100443693I-2989999J462D01*
G01*
X101833854Y-103533353D02*
G75*
G03*
X107383854Y-101988061I2560000J1544830D01*
G01*
X106893854Y-101988523D02*
G75*
G03*
X106893854Y-101988523I-2500000J0D01*
G01*
%TO.C,BZ1*%
X135655104Y-127388523D02*
G75*
G03*
X135655104Y-127388523I-6100000J0D01*
G01*
%TO.C,redLED4*%
X126995102Y-92823523D02*
X126995102Y-95913523D01*
X132545101Y-94368985D02*
G75*
G03*
X126995103Y-92823693I-2989999J462D01*
G01*
X126995102Y-95913353D02*
G75*
G03*
X132545102Y-94368061I2560000J1544830D01*
G01*
X132055102Y-94368523D02*
G75*
G03*
X132055102Y-94368523I-2500000J0D01*
G01*
%TO.C,redLED3*%
X126995102Y-100443523D02*
X126995102Y-103533523D01*
X132545101Y-101988985D02*
G75*
G03*
X126995103Y-100443693I-2989999J462D01*
G01*
X126995102Y-103533353D02*
G75*
G03*
X132545102Y-101988061I2560000J1544830D01*
G01*
X132055102Y-101988523D02*
G75*
G03*
X132055102Y-101988523I-2500000J0D01*
G01*
%TO.C,redLED2*%
X126995102Y-108063523D02*
X126995102Y-111153523D01*
X132545101Y-109608985D02*
G75*
G03*
X126995103Y-108063693I-2989999J462D01*
G01*
X126995102Y-111153353D02*
G75*
G03*
X132545102Y-109608061I2560000J1544830D01*
G01*
X132055102Y-109608523D02*
G75*
G03*
X132055102Y-109608523I-2500000J0D01*
G01*
%TO.C,Brd1*%
X115855104Y-54568523D02*
X143255104Y-54568523D01*
X115855104Y-81868523D02*
X115855104Y-54568523D01*
X116277104Y-57863523D02*
X139377104Y-57863523D01*
X116277104Y-74463523D02*
X116277104Y-57863523D01*
X124556104Y-55057523D02*
X124556104Y-57470523D01*
X124556104Y-55057523D02*
X134335104Y-55057523D01*
X134335104Y-55057523D02*
X134335104Y-57470523D01*
X134335104Y-57470523D02*
X124556104Y-57470523D01*
X139377104Y-57863523D02*
X142463104Y-57863523D01*
X139377104Y-74463523D02*
X116277104Y-74463523D01*
X139377104Y-74463523D02*
X142717104Y-74488523D01*
X142717104Y-57851523D02*
X142463104Y-57863523D01*
X142717104Y-74488523D02*
X142717104Y-57851523D01*
X143255104Y-54568523D02*
X143255104Y-81868523D01*
X143255104Y-81868523D02*
X115855104Y-81868523D01*
D13*
%TO.C,S1*%
X77255104Y-104388523D02*
X77255104Y-104388523D01*
X77455104Y-104388523D02*
X77455104Y-104388523D01*
D14*
X78605104Y-109038523D02*
X92705104Y-108988523D01*
X78655104Y-94938523D02*
X92705104Y-94938523D01*
X78655104Y-97988523D02*
X78655104Y-94938523D01*
X78655104Y-105988523D02*
X78605104Y-109038523D01*
X92705104Y-94938523D02*
X92705104Y-97988523D01*
X92705104Y-108988523D02*
X92705104Y-105988523D01*
D13*
X77455104Y-104388523D02*
G75*
G03*
X77255104Y-104388523I-100000J0D01*
G01*
X77255104Y-104388523D02*
G75*
G03*
X77455104Y-104388523I100000J0D01*
G01*
D12*
%TO.C,redLED1*%
X126981114Y-115683523D02*
X126981114Y-118773523D01*
X132531113Y-117228985D02*
G75*
G03*
X126981115Y-115683693I-2989999J462D01*
G01*
X126981114Y-118773353D02*
G75*
G03*
X132531114Y-117228061I2560000J1544830D01*
G01*
X132041114Y-117228523D02*
G75*
G03*
X132041114Y-117228523I-2500000J0D01*
G01*
%TO.C,yellowLED2*%
X152146354Y-100443523D02*
X152146354Y-103533523D01*
X157696353Y-101988985D02*
G75*
G03*
X152146355Y-100443693I-2989999J462D01*
G01*
X152146354Y-103533353D02*
G75*
G03*
X157696354Y-101988061I2560000J1544830D01*
G01*
X157206354Y-101988523D02*
G75*
G03*
X157206354Y-101988523I-2500000J0D01*
G01*
D13*
%TO.C,S2*%
X166155104Y-104388523D02*
X166155104Y-104388523D01*
X166355104Y-104388523D02*
X166355104Y-104388523D01*
D14*
X167505104Y-109038523D02*
X181605104Y-108988523D01*
X167555104Y-94938523D02*
X181605104Y-94938523D01*
X167555104Y-97988523D02*
X167555104Y-94938523D01*
X167555104Y-105988523D02*
X167505104Y-109038523D01*
X181605104Y-94938523D02*
X181605104Y-97988523D01*
X181605104Y-108988523D02*
X181605104Y-105988523D01*
D13*
X166355104Y-104388523D02*
G75*
G03*
X166155104Y-104388523I-100000J0D01*
G01*
X166155104Y-104388523D02*
G75*
G03*
X166355104Y-104388523I100000J0D01*
G01*
D12*
%TO.C,greenLED1*%
X126995102Y-85203523D02*
X126995102Y-88293523D01*
X132545101Y-86748985D02*
G75*
G03*
X126995103Y-85203693I-2989999J462D01*
G01*
X126995102Y-88293353D02*
G75*
G03*
X132545102Y-86748061I2560000J1544830D01*
G01*
X132055102Y-86748523D02*
G75*
G03*
X132055102Y-86748523I-2500000J0D01*
G01*
%TD*%
%LPC*%
D15*
%TO.C,H6*%
X185000000Y-123000000D03*
D16*
X185000000Y-123000000D03*
%TD*%
D15*
%TO.C,H5*%
X185000000Y-70000000D03*
D16*
X185000000Y-70000000D03*
%TD*%
D15*
%TO.C,H3*%
X150000000Y-57000000D03*
D16*
X150000000Y-57000000D03*
%TD*%
D17*
%TO.C,yellowLED1*%
X103123854Y-101988523D03*
D18*
X105663854Y-101988523D03*
%TD*%
D15*
%TO.C,H1*%
X110000000Y-57000000D03*
D16*
X110000000Y-57000000D03*
%TD*%
D15*
%TO.C,H4*%
X75000000Y-123000000D03*
D16*
X75000000Y-123000000D03*
%TD*%
D19*
%TO.C,BZ1*%
X133355104Y-127388523D03*
D20*
X125755104Y-127388523D03*
%TD*%
D17*
%TO.C,redLED4*%
X128285102Y-94368523D03*
D18*
X130825102Y-94368523D03*
%TD*%
D17*
%TO.C,redLED3*%
X128285102Y-101988523D03*
D18*
X130825102Y-101988523D03*
%TD*%
D15*
%TO.C,H2*%
X75000000Y-70000000D03*
D16*
X75000000Y-70000000D03*
%TD*%
D17*
%TO.C,redLED2*%
X128285102Y-109608523D03*
D18*
X130825102Y-109608523D03*
%TD*%
D21*
%TO.C,Brd1*%
X125635104Y-56268523D03*
X128175104Y-56268523D03*
X130715104Y-56268523D03*
X133255104Y-56268523D03*
%TD*%
D22*
%TO.C,S1*%
X79405104Y-104488523D03*
X91905104Y-104488523D03*
X79405104Y-99488523D03*
X91905104Y-99488523D03*
%TD*%
D17*
%TO.C,redLED1*%
X128271114Y-117228523D03*
D18*
X130811114Y-117228523D03*
%TD*%
D17*
%TO.C,yellowLED2*%
X153436354Y-101988523D03*
D18*
X155976354Y-101988523D03*
%TD*%
D22*
%TO.C,S2*%
X168305104Y-104488523D03*
X180805104Y-104488523D03*
X168305104Y-99488523D03*
X180805104Y-99488523D03*
%TD*%
D17*
%TO.C,greenLED1*%
X128285102Y-86748523D03*
D18*
X130825102Y-86748523D03*
%TD*%
D23*
%TO.C,R10*%
X161061354Y-109608523D03*
D24*
X148361354Y-109608523D03*
%TD*%
D23*
%TO.C,R4*%
X123210102Y-89607412D03*
D24*
X135910102Y-89607412D03*
%TD*%
D23*
%TO.C,R7*%
X167655104Y-89288523D03*
D24*
X180355104Y-89288523D03*
%TD*%
D25*
%TO.C,C2*%
X152211354Y-81668523D03*
D23*
X157211354Y-81668523D03*
%TD*%
D26*
%TO.C,U1*%
X141967604Y-86748523D03*
D27*
X141967604Y-89288523D03*
X141967604Y-91828523D03*
X141967604Y-94368523D03*
X141967604Y-96908523D03*
X141967604Y-99448523D03*
X141967604Y-101988523D03*
X141967604Y-104528523D03*
X141967604Y-107068523D03*
X141967604Y-109608523D03*
X141967604Y-112148523D03*
X141967604Y-114688523D03*
X141967604Y-117228523D03*
X141967604Y-119768523D03*
X141967604Y-122308523D03*
X141967604Y-124848523D03*
X141967604Y-127388523D03*
X141967604Y-129928523D03*
X141967604Y-132468523D03*
X116567604Y-86748523D03*
X116567604Y-89288523D03*
X116567604Y-91828523D03*
X116567604Y-94368523D03*
X116567604Y-96908523D03*
X116567604Y-99448523D03*
X116567604Y-101988523D03*
X116567604Y-104528523D03*
X116567604Y-107068523D03*
X116567604Y-109608523D03*
X116567604Y-112148523D03*
X116567604Y-114688523D03*
X116567604Y-117228523D03*
X116567604Y-119768523D03*
X116567604Y-122308523D03*
X116567604Y-124848523D03*
X116567604Y-127388523D03*
X116567604Y-129928523D03*
X116567604Y-132468523D03*
%TD*%
D23*
%TO.C,R6*%
X91455104Y-89288523D03*
D24*
X78755104Y-89288523D03*
%TD*%
D23*
%TO.C,R1*%
X123196114Y-113424079D03*
D24*
X135896114Y-113424079D03*
%TD*%
D25*
%TO.C,C3*%
X106898854Y-81668523D03*
D23*
X101898854Y-81668523D03*
%TD*%
%TO.C,R9*%
X110748854Y-109608523D03*
D24*
X98048854Y-109608523D03*
%TD*%
D23*
%TO.C,R3*%
X123210102Y-97546301D03*
D24*
X135910102Y-97546301D03*
%TD*%
D23*
%TO.C,R8*%
X167655104Y-114688523D03*
D24*
X180355104Y-114688523D03*
%TD*%
D23*
%TO.C,R11*%
X123210102Y-81668523D03*
D24*
X135910102Y-81668523D03*
%TD*%
D23*
%TO.C,R5*%
X91455104Y-114688523D03*
D24*
X78755104Y-114688523D03*
%TD*%
D23*
%TO.C,R2*%
X123210102Y-105485190D03*
D24*
X135910102Y-105485190D03*
%TD*%
%LPD*%
M02*
